<?xml version="1.0" encoding="UTF-8"?>
<svg xmlns="http://www.w3.org/2000/svg" version="1.1" viewBox="0 0 3000 3000">
  <!-- Generator: Adobe Illustrator 28.6.0, SVG Export Plug-In . SVG Version: 1.2.0 Build 709)  -->
  <g>
    <g id="Calque_1">
      <path d="M1531.5,278c-331.7,0-373.4,1.5-503.7,7.4-130,6-218.8,26.5-296.5,56.7-80.3,31.2-148.5,72.9-216.4,140.9-67.9,67.9-109.7,136-141,216.4-30.3,77.7-50.9,166.5-56.7,296.5-5.8,130.3-7.4,172-7.4,503.7s1.5,373.2,7.4,503.5c6,130,26.6,218.8,56.7,296.5,31.2,80.3,73,148.5,140.9,216.4,67.9,67.9,136,109.8,216.3,141,77.7,30.2,166.5,50.8,296.5,56.7,130.3,5.9,171.9,7.4,503.6,7.4s373.3-1.5,503.6-7.4c130-6,218.9-26.5,296.6-56.7,80.3-31.2,148.4-73,216.2-141,67.9-67.9,109.7-136,141-216.4,30-77.7,50.6-166.5,56.7-296.5,5.9-130.3,7.4-171.8,7.4-503.6s-1.5-373.4-7.4-503.7c-6.1-130-26.7-218.8-56.7-296.5-31.3-80.3-73-148.5-141-216.4-67.9-67.9-135.9-109.7-216.3-140.9-77.9-30.2-166.7-50.8-296.7-56.7-130.3-5.9-171.8-7.4-503.6-7.4h.4ZM1422,498.1c32.5,0,68.8,0,109.6,0,326.1,0,364.8,1.2,493.6,7,119.1,5.4,183.7,25.3,226.8,42.1,57,22.1,97.6,48.6,140.4,91.4,42.8,42.8,69.2,83.5,91.4,140.5,16.7,43,36.6,107.6,42.1,226.7,5.9,128.8,7.1,167.4,7.1,493.4s-1.3,364.7-7.1,493.4c-5.4,119.1-25.3,183.7-42.1,226.7-22.1,57-48.7,97.6-91.4,140.3-42.8,42.8-83.3,69.2-140.4,91.4-43,16.8-107.7,36.6-226.8,42.1-128.8,5.9-167.4,7.1-493.6,7.1s-364.8-1.3-493.6-7.1c-119.1-5.5-183.7-25.4-226.8-42.1-57-22.1-97.7-48.6-140.5-91.4-42.8-42.8-69.2-83.4-91.4-140.4-16.7-43-36.6-107.6-42.1-226.7-5.9-128.8-7-167.4-7-493.6s1.2-364.7,7-493.4c5.4-119.1,25.3-183.7,42.1-226.8,22.1-57,48.7-97.7,91.4-140.5,42.8-42.8,83.5-69.2,140.5-91.4,43.1-16.8,107.7-36.6,226.8-42.1,112.7-5.1,156.4-6.6,384-6.9v.3ZM2183.6,700.9c-80.9,0-146.6,65.6-146.6,146.5s65.7,146.6,146.6,146.6,146.6-65.7,146.6-146.6-65.7-146.6-146.6-146.6h0ZM1531.5,872.2c-346.4,0-627.3,280.9-627.3,627.3s280.9,627.2,627.3,627.2c346.4,0,627.2-280.7,627.2-627.2s-280.8-627.3-627.2-627.3h0ZM1531.5,1092.3c224.9,0,407.2,182.3,407.2,407.2s-182.3,407.2-407.2,407.2-407.2-182.3-407.2-407.2,182.3-407.2,407.2-407.2Z"/>
    </g>
  </g>
</svg>