<?xml version="1.0" encoding="utf-8"?>
<!-- Generator: Adobe Illustrator 19.0.0, SVG Export Plug-In . SVG Version: 6.00 Build 0)  -->
<svg version="1.1" id="Calque_1" xmlns="http://www.w3.org/2000/svg" xmlns:xlink="http://www.w3.org/1999/xlink" x="0px" y="0px"
	 viewBox="0 0 482 172" style="enable-background:new 0 0 482 172;" xml:space="preserve">
<style type="text/css">
	.st0{fill:none;}
	.st1{fill:#1E1E1C;}
	.st2{fill:#FFED00;}
	.st3{fill:#009FE3;}
	.st4{fill:#E30613;}
	.st5{clip-path:url(#XMLID_383_);fill:#1E1E1C;}
	.st6{clip-path:url(#XMLID_384_);fill:#252525;}
	.st7{clip-path:url(#XMLID_384_);fill:#010101;}
	.st8{clip-path:url(#XMLID_384_);fill:#3A3A39;}
	.st9{clip-path:url(#XMLID_384_);fill:#030404;}
	.st10{clip-path:url(#XMLID_384_);fill:#CDCBCB;}
	.st11{clip-path:url(#XMLID_384_);fill:#686868;}
	.st12{clip-path:url(#XMLID_384_);fill:#E4E5E4;}
	.st13{clip-path:url(#XMLID_384_);fill:#F1F1F1;}
	.st14{clip-path:url(#XMLID_384_);fill:#FFFFFF;}
	.st15{opacity:0;clip-path:url(#XMLID_384_);}
	.st16{clip-path:url(#XMLID_385_);}
	.st17{clip-path:url(#XMLID_386_);fill:#010101;}
	.st18{clip-path:url(#XMLID_384_);fill:#D2B4AE;}
	.st19{clip-path:url(#XMLID_384_);fill:#70433A;}
	.st20{clip-path:url(#XMLID_384_);fill:#D12042;}
	.st21{clip-path:url(#XMLID_384_);fill:#ECD814;}
	.st22{clip-path:url(#XMLID_384_);fill:#A49A43;}
	.st23{clip-path:url(#XMLID_384_);fill:#D2BF12;}
	.st24{clip-path:url(#XMLID_384_);fill:#EDD714;}
	.st25{clip-path:url(#XMLID_384_);fill:#EDDB36;}
	.st26{clip-path:url(#XMLID_384_);fill:#EFDF4F;}
	.st27{clip-path:url(#XMLID_384_);fill:#B7A60E;}
	.st28{clip-path:url(#XMLID_384_);fill:#787872;}
	.st29{clip-path:url(#XMLID_384_);fill:#200A0B;}
	.st30{clip-path:url(#XMLID_384_);fill:#5D551B;}
	.st31{clip-path:url(#XMLID_384_);fill:#7F1713;}
	.st32{clip-path:url(#XMLID_384_);fill:#3D1314;}
	.st33{clip-path:url(#XMLID_384_);fill:#9E1A18;}
	.st34{clip-path:url(#XMLID_384_);fill:#BB1B1B;}
	.st35{clip-path:url(#XMLID_384_);fill:#8B865A;}
	.st36{clip-path:url(#XMLID_384_);fill:#57131F;}
	.st37{clip-path:url(#XMLID_384_);fill:#1E1E1C;}
</style>
<rect id="XMLID_453_" x="14.4" y="-63.3" class="st0" width="662.9" height="295.5"/>
<g id="XMLID_464_">
	<path id="XMLID_465_" class="st1" d="M224.6,59.3h-4l-3.4-12.1l0.1,3.8v8.3h-3.9v-19h5.8l3.4,12.1l3.4-12.1h5.8v19h-3.9V51l0.1-3.8
		L224.6,59.3z"/>
	<path id="XMLID_467_" class="st1" d="M238.6,59.3h-3.9v-19h3.9V59.3z"/>
	<path id="XMLID_469_" class="st1" d="M255.4,59.3h-4.2l-6.1-11.8l0.1,3.8v8h-3.7v-19h4.2l6.1,11.8l-0.1-3.8v-8h3.7V59.3z"/>
	<path id="XMLID_471_" class="st1" d="M262.1,59.3h-3.9v-19h3.9V59.3z"/>
	<path id="XMLID_473_" class="st1" d="M264.6,45.9v-0.3c0-3.4,2.4-5.6,6.7-5.6c4.7,0,6.7,2.1,6.7,6.5v0.5H274c0-2.5-0.8-3.6-2.8-3.6
		h-0.2c-1.6,0-2.5,0.9-2.5,2.1v0.1c0,1.4,0.6,2.1,3.3,2.5c4.1,0.6,6.2,2,6.2,5.5v0.2c0,3.7-2.4,5.8-6.9,5.8c-4.5,0-6.8-2-6.8-6.6
		v-0.2h3.9c0,2.4,1,3.4,2.8,3.4h0.2c1.8,0,2.7-1,2.7-2.2v-0.1c0-1.4-0.7-2.1-3.5-2.5C266.5,50.8,264.6,49.4,264.6,45.9z"/>
	<path id="XMLID_475_" class="st1" d="M287.7,59.3h-3.9V43.7h-4.4v-3.4h12.7v3.4h-4.4V59.3z"/>
	<path id="XMLID_477_" class="st1" d="M305.5,40.3v3.4h-7.7v4.2h6.4v3.4h-6.4v4.6h7.7v3.4h-11.6v-19H305.5z"/>
	<path id="XMLID_479_" class="st1" d="M311.8,59.3h-3.9v-19h6.2c3.1,0,6.6,0.8,6.6,5.8v0.5c0,3.1-1.3,4.6-3,5.3l3,7.4h-4.3l-2.6-6.8
		h-2V59.3z M314.2,49.1c1.1,0,2.4-0.4,2.4-2.6v-0.2c0-2.1-1.4-2.6-2.4-2.6h-2.5v5.4H314.2z"/>
	<path id="XMLID_482_" class="st1" d="M334.6,40.3v3.4h-7.7v4.2h6.5v3.4h-6.5v4.6h7.7v3.4H323v-19H334.6z"/>
	<path id="XMLID_484_" class="st1" d="M219.2,88.5h-5.8v-19h5.8c5.6,0,8,2.4,8,9v1C227.2,86.1,224.9,88.5,219.2,88.5z M219,85.1
		c3.3,0,4.2-1.8,4.2-5.6v-1c0-3.8-0.9-5.6-4.2-5.6h-1.7v12.2H219z"/>
	<path id="XMLID_487_" class="st1" d="M241.2,69.5V73h-7.7v4.2h6.4v3.4h-6.4v4.6h7.7v3.4h-11.6v-19H241.2z"/>
	<path id="XMLID_489_" class="st1" d="M248.4,88.5v-19h3.9v15.6h7v3.4H248.4z"/>
	<path id="XMLID_491_" class="st1" d="M265,69.5l-0.6,7.9h-2.9l-0.6-7.9H265z"/>
	<path id="XMLID_493_" class="st1" d="M279.1,69.5V73h-7.7v4.2h6.4v3.4h-6.4v4.6h7.7v3.4h-11.6v-19H279.1z"/>
	<path id="XMLID_495_" class="st1" d="M295.3,88.5h-4.2L285,76.8l0.1,3.8v8h-3.7v-19h4.2l6.1,11.8l-0.1-3.8v-8h3.7V88.5z"/>
	<path id="XMLID_497_" class="st1" d="M301.8,88.6l-4.7-19h4.2l3.2,14.5l3.2-14.5h4.2l-4.7,19H301.8z"/>
	<path id="XMLID_499_" class="st1" d="M317.7,88.5h-3.9v-19h3.9V88.5z"/>
	<path id="XMLID_501_" class="st1" d="M324.5,88.5h-3.9v-19h6.2c3.1,0,6.6,0.8,6.6,5.8v0.5c0,3.1-1.3,4.6-3,5.3l3,7.4h-4.3l-2.6-6.8
		h-2V88.5z M327,78.3c1.1,0,2.4-0.4,2.4-2.6v-0.2c0-2.1-1.4-2.6-2.4-2.6h-2.5v5.4H327z"/>
	<path id="XMLID_504_" class="st1" d="M335.3,79.5v-1c0-6.6,2.3-9.3,7.2-9.3c4.9,0,7.3,2.8,7.3,9.3v1c0,6.6-2.3,9.3-7.3,9.3
		C337.6,88.8,335.3,86.1,335.3,79.5z M342.7,85.4c2.4,0,3.1-2.1,3.1-5.9v-1c0-3.8-0.7-5.9-3.1-5.9h-0.2c-2.4,0-3.1,2.1-3.1,5.9v1
		c0,3.8,0.7,5.9,3.1,5.9H342.7z"/>
	<path id="XMLID_507_" class="st1" d="M366,88.5h-4.2l-6.1-11.8l0.1,3.8v8h-3.7v-19h4.2l6.1,11.8l-0.1-3.8v-8h3.7V88.5z"/>
	<path id="XMLID_509_" class="st1" d="M382.6,88.5h-4.2l-6.1-11.8l0.1,3.8v8h-3.7v-19h4.2l6.1,11.8l-0.1-3.8v-8h3.7V88.5z"/>
	<path id="XMLID_511_" class="st1" d="M397,69.5V73h-7.7v4.2h6.4v3.4h-6.4v4.6h7.7v3.4h-11.6v-19H397z"/>
	<path id="XMLID_513_" class="st1" d="M410.5,88.5h-4l-3.4-12.1l0.1,3.8v8.3h-3.9v-19h5.8l3.4,12.1l3.4-12.1h5.8v19h-3.9v-8.3
		l0.1-3.8L410.5,88.5z"/>
	<path id="XMLID_515_" class="st1" d="M432,69.5V73h-7.7v4.2h6.4v3.4h-6.4v4.6h7.7v3.4h-11.6v-19H432z"/>
	<path id="XMLID_517_" class="st1" d="M448.3,88.5h-4.2L438,76.8l0.1,3.8v8h-3.7v-19h4.2l6.1,11.8l-0.1-3.8v-8h3.7V88.5z"/>
	<path id="XMLID_519_" class="st1" d="M458.4,88.5h-3.9V73h-4.4v-3.4h12.7V73h-4.4V88.5z"/>
	<path id="XMLID_521_" class="st1" d="M225,98.8v3.4h-7.7v4.2h6.4v3.4h-6.4v4.6h7.7v3.4h-11.6v-19H225z"/>
	<path id="XMLID_523_" class="st1" d="M234.7,117.7h-3.9v-15.6h-4.4v-3.4h12.7v3.4h-4.4V117.7z"/>
	<path id="XMLID_525_" class="st1" d="M251.6,117.7h-5.8v-19h5.8c5.6,0,8,2.4,8,9v1C259.6,115.3,257.3,117.7,251.6,117.7z
		 M251.4,114.3c3.3,0,4.2-1.8,4.2-5.6v-1c0-3.8-0.9-5.6-4.2-5.6h-1.7v12.2H251.4z"/>
	<path id="XMLID_528_" class="st1" d="M273.5,98.8v3.4h-7.7v4.2h6.4v3.4h-6.4v4.6h7.7v3.4h-11.6v-19H273.5z"/>
	<path id="XMLID_530_" class="st1" d="M279.6,117.8l-4.7-19h4.2l3.2,14.5l3.2-14.5h4.2l-4.7,19H279.6z"/>
	<path id="XMLID_532_" class="st1" d="M303.1,98.8v3.4h-7.7v4.2h6.4v3.4h-6.4v4.6h7.7v3.4h-11.6v-19H303.1z"/>
	<path id="XMLID_534_" class="st1" d="M305.4,117.7v-19h3.9v15.6h7v3.4H305.4z"/>
	<path id="XMLID_536_" class="st1" d="M317.7,108.7v-1c0-6.6,2.3-9.3,7.2-9.3c4.9,0,7.3,2.8,7.3,9.3v1c0,6.6-2.3,9.3-7.3,9.3
		C320,118.1,317.7,115.3,317.7,108.7z M325,114.6c2.4,0,3.1-2.1,3.1-5.9v-1c0-3.8-0.7-5.9-3.1-5.9h-0.2c-2.4,0-3.1,2.1-3.1,5.9v1
		c0,3.8,0.7,5.9,3.1,5.9H325z"/>
	<path id="XMLID_539_" class="st1" d="M338.4,117.7h-3.9v-19h6.2c3.1,0,6.6,0.8,6.6,5.8v0.5c0,5.1-3.5,5.8-6.6,5.8h-2.3V117.7z
		 M340.9,107.5c1.1,0,2.4-0.4,2.4-2.6v-0.2c0-2.1-1.4-2.6-2.4-2.6h-2.5v5.4H340.9z"/>
	<path id="XMLID_542_" class="st1" d="M353.2,117.7h-3.9v-19h6.2c3.1,0,6.6,0.8,6.6,5.8v0.5c0,5.1-3.5,5.8-6.6,5.8h-2.3V117.7z
		 M355.7,107.5c1.1,0,2.4-0.4,2.4-2.6v-0.2c0-2.1-1.4-2.6-2.4-2.6h-2.5v5.4H355.7z"/>
	<path id="XMLID_545_" class="st1" d="M375.7,98.8v3.4h-7.7v4.2h6.4v3.4h-6.4v4.6h7.7v3.4h-11.6v-19H375.7z"/>
	<path id="XMLID_547_" class="st1" d="M389.3,117.7h-4l-3.4-12.1l0.1,3.8v8.3h-3.9v-19h5.8l3.4,12.1l3.4-12.1h5.8v19h-3.9v-8.3
		l0.1-3.8L389.3,117.7z"/>
	<path id="XMLID_549_" class="st1" d="M410.8,98.8v3.4h-7.7v4.2h6.4v3.4h-6.4v4.6h7.7v3.4h-11.6v-19H410.8z"/>
	<path id="XMLID_551_" class="st1" d="M427.1,117.7h-4.2l-6.1-11.8l0.1,3.8v8h-3.7v-19h4.2l6.1,11.8l-0.1-3.8v-8h3.7V117.7z"/>
	<path id="XMLID_553_" class="st1" d="M437.2,117.7h-3.9v-15.6h-4.4v-3.4h12.7v3.4h-4.4V117.7z"/>
	<path id="XMLID_555_" class="st1" d="M219.2,146.9h-5.8v-19h5.8c5.6,0,8,2.4,8,9v1C227.2,144.5,224.9,146.9,219.2,146.9z
		 M219,143.5c3.3,0,4.2-1.8,4.2-5.6v-1c0-3.8-0.9-5.6-4.2-5.6h-1.7v12.2H219z"/>
	<path id="XMLID_558_" class="st1" d="M229.4,140.9v-13h3.9v12.9c0,2,0.6,3,2.9,3c2.2,0,2.9-1,2.9-3V128h3.9v13
		c0,4.1-1.7,6.3-6.8,6.3S229.4,145.1,229.4,140.9z"/>
	<path id="XMLID_560_" class="st1" d="M249.6,146.9h-3.9v-19h6.2c3.1,0,6.6,0.8,6.6,5.8v0.5c0,3.1-1.3,4.6-3,5.3l3,7.4h-4.3
		l-2.6-6.8h-2V146.9z M252.1,136.7c1.1,0,2.4-0.4,2.4-2.6v-0.2c0-2.1-1.4-2.6-2.4-2.6h-2.5v5.4H252.1z"/>
	<path id="XMLID_563_" class="st1" d="M270,127.9l4.7,19h-4.2l-0.9-4.1H265l-0.9,4.1h-4.2l4.7-19H270z M265.7,139.4h3.1l-1.6-7
		L265.7,139.4z"/>
	<path id="XMLID_566_" class="st1" d="M282.7,128c3,0,6.1,0.8,6.1,5.3v0.5c0,1.7-0.8,2.8-1.8,3.4c1.4,0.7,2.3,1.8,2.3,3.9v0.5
		c0,4.6-3.3,5.5-6.4,5.5h-6.4v-19H282.7z M280.4,131.4v4.2h2.3c1,0,2.1-0.4,2.1-1.9v-0.3c0-1.6-1.1-1.9-2.1-1.9H280.4z M280.4,139
		v4.6h2.6c1.1,0,2.3-0.5,2.3-2.2v-0.2c0-1.7-1.2-2.2-2.3-2.2H280.4z"/>
	<path id="XMLID_570_" class="st1" d="M291.8,146.9v-19h3.9v15.6h7v3.4H291.8z"/>
	<path id="XMLID_572_" class="st1" d="M316.1,128v3.4h-7.7v4.2h6.4v3.4h-6.4v4.6h7.7v3.4h-11.6v-19H316.1z"/>
</g>
<rect id="XMLID_436_" x="189.1" y="63.3" class="st2" width="4.9" height="49.7"/>
<rect id="XMLID_435_" x="189.1" y="13.4" class="st3" width="4.9" height="49.7"/>
<rect id="XMLID_434_" x="189.1" y="113.2" class="st4" width="4.9" height="49.7"/>
<g id="XMLID_429_">
	<defs>
		<rect id="XMLID_430_" x="14.4" y="-63.3" width="662.9" height="295.5"/>
	</defs>
	<clipPath id="XMLID_383_">
		<use xlink:href="#XMLID_430_"  style="overflow:visible;"/>
	</clipPath>
	<path id="XMLID_431_" class="st5" d="M93.3,14.4c19.7,0,38.2,7.7,52.1,21.6s21.6,32.4,21.6,52.1c0,19.7-7.7,38.2-21.6,52.1
		c-13.9,13.9-32.4,21.6-52.1,21.6s-38.2-7.7-52.1-21.6c-13.9-13.9-21.6-32.4-21.6-52.1c0-19.7,7.7-38.2,21.6-52.1
		C55.1,22.1,73.7,14.4,93.3,14.4 M93.3,13.3c-20,0-38.8,7.8-52.9,21.9C26.3,49.3,18.5,68.1,18.5,88.1c0,20,7.8,38.8,21.9,52.9
		C54.6,155.2,73.4,163,93.3,163s38.8-7.8,52.9-21.9c14.1-14.1,21.9-32.9,21.9-52.9c0-20-7.8-38.8-21.9-52.9
		C132.1,21.1,113.3,13.3,93.3,13.3"/>
</g>
<g id="XMLID_412_">
	<path id="XMLID_580_" class="st1" d="M48.8,124.5l0.7,0.8l-5.4,4.8l2.3,2.6l-0.7,0.6l-3-3.4L48.8,124.5z"/>
</g>
<g id="XMLID_428_">
	<path id="XMLID_582_" class="st1" d="M52.9,134.8l-2.3-2.1l-2,2.2l2.6,2.4l-0.6,0.6l-3.4-3.1l5.5-6l3.2,3l-0.6,0.6l-2.5-2.2
		l-1.7,1.9l2.3,2.1L52.9,134.8z"/>
</g>
<g id="XMLID_427_">
	<path id="XMLID_584_" class="st1" d="M60.4,144.5c-0.5-0.1-1.4-0.4-2.3-1c-1-0.7-1.7-1.5-2-2.5c-0.2-0.9,0-2.1,0.7-3.1
		c1.3-2,3.7-2.6,6-1.1c0.8,0.5,1.3,1.1,1.5,1.4l-0.7,0.6c-0.3-0.4-0.6-0.8-1.3-1.3c-1.7-1.1-3.4-0.7-4.5,1c-1.1,1.7-0.7,3.4,0.8,4.4
		c0.6,0.4,1,0.5,1.3,0.6l1.3-2l-1.4-0.9l0.5-0.7l2.2,1.5L60.4,144.5z"/>
</g>
<g id="XMLID_425_">
	<path id="XMLID_426_" class="st1" d="M70.5,145.3c-1.2,2.5-3.4,3.1-5.2,2.2c-1.9-0.9-2.6-3.1-1.5-5.3c1.1-2.3,3.3-3.2,5.2-2.2
		C71,141,71.6,143.1,70.5,145.3z M64.8,142.7c-0.7,1.6-0.6,3.4,0.9,4.1c1.5,0.7,3-0.3,3.8-1.9c0.7-1.5,0.7-3.3-0.9-4.1
		C67,140.1,65.6,141.1,64.8,142.7z"/>
</g>
<g id="XMLID_593_">
	<path id="XMLID_594_" class="st1" d="M73.9,142.3l-1.5,4.6c-0.6,1.7,0,2.7,1,3c1.1,0.4,2.1-0.2,2.7-1.9l1.5-4.6l1,0.3l-1.4,4.5
		c-0.8,2.4-2.3,2.9-4,2.4c-1.6-0.5-2.5-1.8-1.7-4.2l1.5-4.5L73.9,142.3z"/>
</g>
<g id="XMLID_590_">
	<path id="XMLID_591_" class="st1" d="M80.4,152.5l-1.2-8.4l1.1,0.2l0.5,4.2c0.1,1.1,0.3,2.2,0.3,3.1l0,0c0.4-0.9,0.9-1.8,1.5-2.8
		l2.1-3.7l1.1,0.2l-4.3,7.5L80.4,152.5z"/>
</g>
<g id="XMLID_424_">
	<path id="XMLID_588_" class="st1" d="M91.2,149.9l-3.1-0.2l-0.2,2.9l3.5,0.2l-0.1,0.9l-4.5-0.3l0.5-8.1l4.4,0.3l-0.1,0.9l-3.3-0.2
		l-0.2,2.6l3.1,0.2L91.2,149.9z"/>
</g>
<g id="XMLID_611_">
	<path id="XMLID_612_" class="st1" d="M93.9,145.7c0.5-0.1,1.3-0.2,2-0.3c1.1-0.1,1.8,0.1,2.4,0.5c0.4,0.3,0.7,0.9,0.7,1.5
		c0.1,1.1-0.6,1.8-1.4,2.2l0,0c0.6,0.2,1,0.7,1.3,1.6c0.3,1.1,0.6,1.9,0.8,2.2l-1.1,0.1c-0.1-0.2-0.4-0.9-0.6-1.9
		c-0.3-1.1-0.8-1.5-1.7-1.5l-1,0.1l0.2,3.5l-1,0.1L93.9,145.7z M95.2,149.3l1.1-0.1c1.1-0.1,1.8-0.7,1.7-1.6c-0.1-1-0.8-1.5-1.9-1.4
		c-0.5,0-0.9,0.1-1,0.2L95.2,149.3z"/>
</g>
<g id="XMLID_608_">
	<path id="XMLID_609_" class="st1" d="M102.3,153.1l-1.5-8l1.1-0.2l3.3,3.6c0.8,0.8,1.4,1.6,1.9,2.3l0,0c-0.3-1-0.5-2-0.7-3.3
		l-0.6-3.3l1-0.2l1.5,8l-1,0.2l-3.3-3.6c-0.7-0.8-1.4-1.6-2-2.4l0,0c0.2,1,0.4,1.9,0.7,3.3l0.6,3.4L102.3,153.1z"/>
</g>
<g id="XMLID_605_">
	<path id="XMLID_606_" class="st1" d="M113.8,146.4l-3,1l0.9,2.8l3.3-1.1l0.3,0.8l-4.3,1.4l-2.5-7.7l4.2-1.3l0.3,0.8l-3.2,1l0.8,2.4
		l3-1L113.8,146.4z"/>
</g>
<g id="XMLID_602_">
	<path id="XMLID_603_" class="st1" d="M122.8,142.7c-0.5-1-1.2-2.2-1.6-3.1l0,0c0.2,1,0.3,2,0.4,3.2l0.4,4.2l-0.7,0.3l-2.9-2.9
		c-0.8-0.9-1.6-1.7-2.2-2.4l0,0c0.4,0.9,1,2.2,1.4,3.3l1.3,3.2l-0.9,0.4l-3-7.5l1.2-0.6l3,2.9c0.7,0.8,1.4,1.4,1.9,2.1l0,0
		c-0.2-0.8-0.3-1.8-0.4-2.8l-0.4-4.2l1.2-0.6l4,7.1l-0.9,0.4L122.8,142.7z"/>
</g>
<g id="XMLID_599_">
	<path id="XMLID_600_" class="st1" d="M129.3,138.3l-2.6,1.8l1.6,2.4l2.9-2l0.5,0.7l-3.8,2.6l-4.5-6.7l3.6-2.5l0.5,0.7l-2.8,1.9
		l1.4,2.1l2.6-1.8L129.3,138.3z"/>
</g>
<g id="XMLID_596_">
	<path id="XMLID_597_" class="st1" d="M134.2,139.6l-5.3-6.1l0.9-0.8l4.7,1.4c1.1,0.3,2,0.7,2.8,1l0,0c-0.8-0.8-1.5-1.5-2.3-2.4
		l-2.2-2.6l0.7-0.6l5.3,6.1l-0.8,0.7l-4.6-1.4c-1-0.3-2-0.6-2.9-1l0,0c0.7,0.7,1.4,1.4,2.3,2.5l2.3,2.6L134.2,139.6z"/>
</g>
<g id="XMLID_421_">
	<path id="XMLID_422_" class="st1" d="M136.3,127.7l-1.6,1.8l-0.7-0.6l4-4.5l0.7,0.6l-1.7,1.8l5.4,4.8l-0.7,0.8L136.3,127.7z"/>
</g>
<g id="XMLID_452_">
	<path id="XMLID_574_" class="st1" d="M28.9,95.6c-0.1-0.5-0.2-1.2-0.3-1.9c-0.1-1.1,0.1-1.7,0.5-2.3c0.3-0.4,0.8-0.7,1.4-0.7
		c1-0.1,1.7,0.5,2.1,1.3l0,0c0.2-0.6,0.7-1,1.5-1.2c1-0.3,1.8-0.6,2-0.7l0.1,1c-0.2,0.1-0.8,0.4-1.8,0.6c-1,0.3-1.4,0.7-1.4,1.6
		l0.1,0.9l3.3-0.2l0.1,1L28.9,95.6z M32.3,94.4l-0.1-1c-0.1-1.1-0.7-1.7-1.6-1.6c-1,0.1-1.4,0.8-1.3,1.9c0,0.5,0.1,0.8,0.2,1
		L32.3,94.4z"/>
</g>
<g id="XMLID_413_">
	<path id="XMLID_577_" class="st1" d="M26.8,84.4l1.3,1.5l0,0.8l-1.3-1.1L26.8,84.4z M32.6,84.4l-0.1,3l2.8,0.1l0.1-3.3l0.8,0
		L36,88.5l-7.6-0.3l0.1-4.1l0.8,0l-0.1,3.1l2.4,0.1l0.1-3L32.6,84.4z"/>
</g>
<g id="XMLID_632_">
	<path id="XMLID_633_" class="st1" d="M28.9,81.3c0-0.5,0-1.1,0.1-1.9c0.1-1,0.5-1.6,0.9-2c0.4-0.4,1-0.5,1.7-0.4
		c0.7,0.1,1.2,0.4,1.5,0.8c0.5,0.6,0.6,1.5,0.5,2.4c0,0.3-0.1,0.6-0.2,0.8l3,0.4l-0.1,1L28.9,81.3z M32.6,80.8
		c0.1-0.2,0.1-0.5,0.2-0.8c0.2-1.2-0.3-2-1.3-2.1c-1-0.1-1.6,0.5-1.7,1.6c-0.1,0.4-0.1,0.8-0.1,0.9L32.6,80.8z"/>
</g>
<g id="XMLID_629_">
	<path id="XMLID_630_" class="st1" d="M30.2,73.1l4.4,1.2c1.7,0.4,2.6-0.1,2.8-1.1c0.3-1.1-0.2-2-1.9-2.4l-4.4-1.2l0.3-1l4.3,1.2
		c2.3,0.6,2.9,2,2.4,3.6c-0.4,1.5-1.6,2.4-3.9,1.8l-4.3-1.2L30.2,73.1z"/>
</g>
<g id="XMLID_624_">
	<path id="XMLID_625_" class="st1" d="M32.2,66.5c0.1-0.4,0.3-1.1,0.5-1.7c0.4-0.9,0.8-1.4,1.3-1.7c0.4-0.3,0.9-0.3,1.5-0.1
		c0.7,0.3,1.1,1,1.1,1.8l0,0c0.4-0.6,1.3-1.2,2.4-0.7c0.6,0.2,1,0.7,1.2,1.2c0.3,0.7,0.1,1.6-0.3,2.7c-0.3,0.6-0.5,1.1-0.7,1.4
		L32.2,66.5z M35.5,66.7l0.3-0.8c0.4-1,0.1-1.7-0.6-2c-0.8-0.3-1.4,0.2-1.8,1.1c-0.2,0.4-0.2,0.7-0.3,0.8L35.5,66.7z M38.9,68.1
		c0.1-0.2,0.2-0.4,0.3-0.8c0.4-0.9,0.4-2-0.6-2.4c-1-0.4-1.7,0.3-2.1,1.3L36.2,67L38.9,68.1z"/>
</g>
<g id="XMLID_621_">
	<path id="XMLID_622_" class="st1" d="M35,59.5l0.5-0.9l6,3.2l1.5-2.9l0.7,0.4l-2,3.8L35,59.5z"/>
</g>
<g id="XMLID_618_">
	<path id="XMLID_619_" class="st1" d="M38.5,53.4l6.5,4.1l-0.5,0.8l-6.5-4.1L38.5,53.4z"/>
</g>
<g id="XMLID_420_">
	<path id="XMLID_615_" class="st1" d="M50.6,51.6c-0.8,0.7-1.7,1.3-2.5,1.8c-0.1,0.1-0.3,0.2-0.4,0.3c-1.1,1.4-3.2,1.8-5.1,0.4
		c-2-1.5-2.3-3.6-1.1-5.3c1.3-1.7,3.3-1.8,5.1-0.4c1.6,1.2,2,2.7,1.6,3.9l0,0c0.6-0.5,1.3-1,1.7-1.5L50.6,51.6z M46.1,49.2
		c-1.2-0.9-3-1.2-3.9,0.1c-1,1.3-0.3,2.9,1.1,3.9c1.3,1,3,1.2,3.9-0.1C48.1,51.9,47.5,50.3,46.1,49.2z"/>
</g>
<g id="XMLID_417_">
	<path id="XMLID_418_" class="st1" d="M45.5,44.3l3.2,3.1c1.2,1.2,2.3,1.2,3,0.4c0.8-0.8,0.8-1.9-0.5-3L48,41.7l0.7-0.7l3.2,3.1
		c1.7,1.6,1.5,3.2,0.4,4.4c-1.1,1.1-2.6,1.3-4.3-0.3L44.8,45L45.5,44.3z"/>
</g>
<g id="XMLID_414_">
	<path id="XMLID_415_" class="st1" d="M56,40.1L53.8,42l1.7,2.1l2.6-2.1l0.5,0.6l-3.3,2.7l-4.8-5.9l3.2-2.6l0.5,0.6l-2.4,2l1.5,1.9
		l2.3-1.9L56,40.1z"/>
</g>
<g id="XMLID_650_">
	<path id="XMLID_651_" class="st1" d="M57.8,33.8c0.5-0.4,1-0.8,1.7-1.2c1.2-0.7,2.3-1,3.1-0.8c0.9,0.2,1.7,0.7,2.3,1.8
		c0.6,1.1,0.8,2.1,0.6,3.1c-0.2,1-1.1,1.9-2.3,2.7c-0.6,0.4-1.1,0.6-1.6,0.8L57.8,33.8z M62.1,39.1c0.2-0.1,0.6-0.3,0.9-0.5
		c1.8-1.1,2.2-2.7,1.1-4.5c-0.9-1.6-2.4-2-4.2-1c-0.4,0.3-0.7,0.5-0.9,0.7L62.1,39.1z"/>
</g>
<g id="XMLID_646_">
	<path id="XMLID_647_" class="st1" d="M69.9,31.9l-2.7,1.2l1.1,2.5l3-1.4l0.3,0.8l-3.9,1.8l-3.1-7l3.8-1.7l0.3,0.8l-2.9,1.3l1,2.2
		l2.7-1.2L69.9,31.9z M67.4,26.6l-0.8,1.8l-0.7,0.3l0.4-1.6L67.4,26.6z"/>
</g>
<g id="XMLID_643_">
	<path id="XMLID_644_" class="st1" d="M78.5,29.2c-0.4-1-0.8-2.2-1-3.1l0,0c0,0.9,0,1.9-0.1,3.1l-0.2,3.9l-0.7,0.2l-2.2-3.1
		c-0.7-0.9-1.2-1.8-1.7-2.6l0,0c0.2,0.9,0.6,2.2,0.8,3.3l0.7,3.2l-0.9,0.3l-1.7-7.5l1.2-0.4l2.3,3.2c0.6,0.8,1.1,1.5,1.5,2.2l0,0
		c0-0.8,0-1.7,0-2.7l0.3-3.9l1.2-0.4l2.6,7.2l-0.9,0.3L78.5,29.2z"/>
</g>
<g id="XMLID_639_">
	<path id="XMLID_640_" class="st1" d="M88,27.1c0.4,2.6-1,4.2-2.9,4.5c-2,0.3-3.6-1.1-4-3.3c-0.3-2.4,0.9-4.2,2.9-4.5
		C86.1,23.5,87.7,24.8,88,27.1z M82.2,28.1c0.2,1.6,1.3,2.9,2.9,2.7c1.5-0.2,2.2-1.8,2-3.5c-0.2-1.5-1.2-3-2.9-2.7
		C82.5,24.8,81.9,26.4,82.2,28.1z"/>
</g>
<g id="XMLID_636_">
	<path id="XMLID_637_" class="st1" d="M94.6,30.6c-0.4,0.2-1.1,0.4-2,0.4c-2.2,0-3.8-1.3-3.9-3.8c-0.1-2.4,1.5-4,3.9-4.1
		c1,0,1.6,0.2,1.8,0.3l-0.2,0.8c-0.4-0.2-0.9-0.3-1.5-0.3c-1.8,0-3,1.2-2.9,3.2c0,1.9,1.1,3,3,3c0.6,0,1.2-0.2,1.6-0.4L94.6,30.6z"
		/>
</g>
<g id="XMLID_408_">
	<path id="XMLID_409_" class="st1" d="M96.9,23.4c0.5-0.1,1.2,0,1.9,0c1,0.1,1.7,0.4,2.1,0.8c0.4,0.4,0.5,0.9,0.5,1.5
		c-0.1,1-0.8,1.6-1.6,1.8l0,0c0.6,0.3,0.9,0.8,1,1.6c0.1,1.1,0.3,1.8,0.4,2.1l-1-0.1c-0.1-0.2-0.2-0.9-0.3-1.9
		c-0.1-1.1-0.5-1.5-1.4-1.6l-0.9-0.1L97.1,31l-1-0.1L96.9,23.4z M97.5,26.9l1,0.1c1,0.1,1.8-0.4,1.9-1.3c0.1-1-0.6-1.5-1.6-1.6
		c-0.5,0-0.8,0-1,0L97.5,26.9z"/>
</g>
<g id="XMLID_404_">
	<path id="XMLID_405_" class="st1" d="M104.3,29.4l-1.3,2.2l-1-0.2l4.1-6.9l1.2,0.2l1,8l-1-0.2L107,30L104.3,29.4z M106.9,29.2
		l-0.3-2.3c-0.1-0.5-0.1-1-0.1-1.4l0,0c-0.2,0.4-0.4,0.8-0.7,1.3l-1.2,2L106.9,29.2z"/>
</g>
<g id="XMLID_659_">
	<path id="XMLID_660_" class="st1" d="M112.1,26.8l-2.2-0.7l0.3-0.8l5.4,1.7l-0.3,0.8l-2.2-0.7l-2.1,6.5l-1-0.3L112.1,26.8z"/>
</g>
<g id="XMLID_656_">
	<path id="XMLID_657_" class="st1" d="M118,28l-2.9,7.1l-0.9-0.4l2.9-7.1L118,28z"/>
</g>
<g id="XMLID_402_">
	<path id="XMLID_403_" class="st1" d="M121.9,39.6c-0.8-0.7-1.6-1.4-2.2-2.1c-0.1-0.1-0.2-0.2-0.4-0.3c-1.6-0.9-2.4-2.8-1.2-5
		c1.1-2.2,3.2-2.9,5-2c1.8,0.9,2.3,3,1.3,5c-0.9,1.7-2.3,2.5-3.6,2.3l0,0c0.6,0.5,1.2,1.1,1.8,1.5L121.9,39.6z M123.4,34.8
		c0.7-1.4,0.7-3.1-0.7-3.9c-1.5-0.8-2.9,0.2-3.7,1.7c-0.7,1.4-0.6,3.1,0.8,3.8C121.2,37.2,122.6,36.3,123.4,34.8z"/>
</g>
<g id="XMLID_399_">
	<path id="XMLID_400_" class="st1" d="M128.2,33.4l-2.5,3.7c-1,1.4-0.7,2.4,0.1,3c0.9,0.6,2,0.4,2.9-1l2.5-3.7L132,36l-2.5,3.7
		c-1.3,1.9-2.9,2-4.3,1.1c-1.3-0.9-1.8-2.3-0.4-4.2l2.5-3.7L128.2,33.4z"/>
</g>
<g id="XMLID_396_">
	<path id="XMLID_397_" class="st1" d="M134.2,43L132,41l-1.8,2.1l2.5,2.2l-0.5,0.6l-3.3-2.8l5-5.8L137,40l-0.5,0.6l-2.4-2l-1.6,1.8
		l2.3,1.9L134.2,43z"/>
</g>
<g id="XMLID_677_">
	<path id="XMLID_678_" class="st1" d="M140.6,43.7c0.5,0.4,1,0.9,1.5,1.5c0.9,1.1,1.3,2.1,1.3,3c0,0.9-0.4,1.8-1.4,2.6
		c-0.9,0.8-2,1.2-3,1.1c-1-0.1-2.1-0.7-3-1.8c-0.5-0.5-0.8-1-1.1-1.4L140.6,43.7z M136.1,48.9c0.1,0.2,0.4,0.5,0.6,0.8
		c1.4,1.6,3,1.7,4.6,0.3c1.4-1.2,1.6-2.7,0.2-4.3c-0.3-0.4-0.6-0.6-0.8-0.8L136.1,48.9z"/>
</g>
<g id="XMLID_674_">
	<path id="XMLID_675_" class="st1" d="M146.3,50.6l-3.8,2.5c-1.4,1-1.6,2-1,2.8c0.6,0.9,1.7,1.1,3.1,0.2l3.8-2.5l0.6,0.8l-3.7,2.5
		c-2,1.3-3.4,0.8-4.4-0.6c-0.9-1.3-0.8-2.8,1.2-4.1l3.7-2.5L146.3,50.6z"/>
</g>
<g id="XMLID_671_">
	<path id="XMLID_672_" class="st1" d="M146.7,66.5c-0.3-0.3-0.8-0.8-1.2-1.7c-0.9-2-0.3-4,1.9-5c2.2-1,4.3-0.2,5.3,2
		c0.4,0.9,0.5,1.5,0.4,1.8l-0.8,0.1c0-0.4-0.1-1-0.4-1.5c-0.7-1.6-2.3-2.2-4.1-1.4c-1.7,0.8-2.3,2.3-1.6,4c0.3,0.5,0.6,1,1,1.3
		L146.7,66.5z"/>
</g>
<g id="XMLID_667_">
	<path id="XMLID_668_" class="st1" d="M152.7,73.1c-2.5,0.8-4.3-0.3-4.9-2.2c-0.6-1.9,0.5-3.7,2.7-4.4c2.3-0.7,4.3,0.2,4.9,2.2
		C156,70.6,154.9,72.4,152.7,73.1z M150.8,67.5c-1.6,0.5-2.7,1.8-2.2,3.3c0.5,1.5,2.1,1.9,3.8,1.4c1.4-0.5,2.7-1.7,2.2-3.3
		C154.1,67.3,152.4,66.9,150.8,67.5z"/>
</g>
<g id="XMLID_664_">
	<path id="XMLID_665_" class="st1" d="M149.2,74.8l7.5-1.4l0.2,1.1l-3.4,3.1c-0.8,0.7-1.5,1.3-2.2,1.8l0,0c1-0.3,1.9-0.5,3.1-0.7
		l3.1-0.6l0.2,0.9l-7.5,1.4l-0.2-1l3.4-3.1c0.7-0.7,1.5-1.3,2.3-1.9l0,0c-0.9,0.2-1.8,0.4-3.1,0.6l-3.2,0.6L149.2,74.8z"/>
</g>
<g id="XMLID_395_">
	<path id="XMLID_662_" class="st1" d="M151,87.8c-0.2-0.4-0.5-1.3-0.5-2.3c-0.1-1.2,0.2-2.1,0.9-2.9c0.6-0.7,1.6-1.2,2.8-1.2
		c2.3-0.1,4,1.4,4.2,3.9c0,0.9-0.1,1.6-0.2,1.9l-0.8-0.2c0.2-0.4,0.3-0.9,0.2-1.7c-0.1-1.9-1.3-3-3.2-2.9c-1.9,0.1-3,1.3-2.9,3.1
		c0,0.6,0.1,1.1,0.3,1.3l2.3-0.1l-0.1-1.6l0.8,0l0.1,2.5L151,87.8z"/>
</g>
<g id="XMLID_391_">
	<path id="XMLID_392_" class="st1" d="M154.1,96c-2.6-0.2-3.9-1.9-3.8-3.8c0.1-2,1.8-3.3,4.1-3.2c2.4,0.2,3.9,1.8,3.8,3.8
		C158,94.9,156.3,96.1,154.1,96z M154.3,90c-1.6-0.1-3.1,0.7-3.3,2.2c-0.1,1.6,1.3,2.5,3,2.7c1.5,0.1,3.2-0.6,3.3-2.2
		C157.5,91.1,156,90.1,154.3,90z"/>
</g>
<g id="XMLID_2_">
	<defs>
		<rect id="XMLID_3_" x="14.4" y="-63.3" width="662.9" height="295.5"/>
	</defs>
	<clipPath id="XMLID_384_">
		<use xlink:href="#XMLID_3_"  style="overflow:visible;"/>
	</clipPath>
	<path id="XMLID_381_" class="st6" d="M98.3,104l12.2-31.7c-5.7-8.8,4.8-15.4,8-18.7c0.1,7.6,3.3,15.8-6,19.6L101,104.7L98.3,104z"
		/>
	<path id="XMLID_378_" class="st7" d="M101.3,105.1l-3.5-0.8l12.3-31.9c-4.8-7.6,2.1-13.6,6.2-17.2c0.8-0.7,1.5-1.3,2-1.8l0.6-0.6
		l0,0.9c0,1.5,0.2,3.1,0.3,4.6c0.5,6,1.1,12.2-6.4,15.3L101.3,105.1z M98.8,103.8l2,0.5L112.2,73l0.1-0.1c7.2-2.9,6.7-8.6,6.1-14.6
		c-0.1-1.2-0.2-2.5-0.3-3.8c-0.4,0.4-0.9,0.8-1.4,1.3c-4.2,3.7-10.6,9.3-5.9,16.4l0.1,0.2L98.8,103.8z"/>
	<path id="XMLID_377_" class="st8" d="M118.3,55.4c0-0.4-0.1-0.8-0.1-1.3l-0.1,0.1c-3.2,2.9-6.8,5.6-8.5,9.7c-1.1,2.6-0.7,5.7,0.9,8
		c0.5,0.5-0.3,1.2-0.4,1.7c-3.9,10-7.7,20.1-11.6,30.1c0.8,0.2,1.5,0.4,2.3,0.6c3.8-10.4,7.6-20.9,11.3-31.3c2.6-1,5-2.9,5.9-5.6
		C119.4,63.6,118.5,59.4,118.3,55.4"/>
	<path id="XMLID_376_" class="st9" d="M118.5,53.8l-0.3-0.1c0,0-4.7,12-6.1,17.6C114.5,65.8,118.5,53.8,118.5,53.8"/>
	<path id="XMLID_375_" class="st10" d="M90.4,104.2C65.6,78.1,76.3,63.4,80.4,56C60.7,72.9,70,92,80.2,106.1L90.4,104.2z"/>
	<path id="XMLID_372_" class="st11" d="M80.2,106.5c-0.1,0-0.2-0.1-0.3-0.2C70.3,93,59.8,73.2,80.2,55.7c0.1-0.1,0.3-0.1,0.5,0
		c0.1,0.1,0.2,0.3,0.1,0.5c-0.2,0.4-0.5,0.8-0.7,1.3c-4.4,7.7-12.7,22,10.6,46.4c0.1,0.1,0.1,0.2,0.1,0.4c0,0.1-0.1,0.2-0.3,0.2
		L80.2,106.5C80.2,106.5,80.2,106.5,80.2,106.5 M79,57.8c-3.7,3.5-6.4,7.3-8,11.3c-1.6,4-2.1,8.4-1.5,12.9
		c0.9,7.1,4.4,14.6,10.9,23.7l9.3-1.8C67.3,80.1,74.4,65.8,79,57.8"/>
	<path id="XMLID_371_" class="st12" d="M78.6,58.3C73.8,63,70.1,69,69.5,75.7c-0.7,6.9,1.5,13.9,4.7,19.9c1.8,3.5,4,6.8,6.2,9.9
		l9.1-1.7c-6-6.5-11.5-13.8-14.2-22.3c-1.8-5.8-1.6-12.2,0.7-17.9C76.7,61.8,77.6,60,78.6,58.3"/>
	<path id="XMLID_370_" class="st13" d="M74.6,64.5c-3.3,4.9-4.9,10.9-4.2,16.7c0.9,8,4.8,15.2,9.3,21.7c0.4,0.6,0.8,1.1,1.1,1.6
		c2.3-0.4,4.6-0.9,6.9-1.3c-6-6.6-11.4-14.2-13.7-23c-1.3-5.2-1-10.8,0.7-15.9C74.7,64.3,74.6,64.4,74.6,64.5"/>
	<path id="XMLID_369_" class="st14" d="M71.8,77.9c-0.1,6.5,2.3,12.8,5.5,18.3c1.3,2.3,3.2,5.3,4.7,7.5c1-0.2,2.3-0.4,3.2-0.6
		C79.2,96.1,73.4,87,71.8,77.9L71.8,77.9z"/>
	<g id="XMLID_363_" class="st15">
		<g id="XMLID_364_">
			<defs>
				<rect id="XMLID_365_" x="72.6" y="56" width="10.8" height="47.9"/>
			</defs>
			<clipPath id="XMLID_385_">
				<use xlink:href="#XMLID_365_"  style="overflow:visible;"/>
			</clipPath>
			<g id="XMLID_366_" class="st16">
				<defs>
					<rect id="XMLID_367_" x="72.6" y="56" width="10.8" height="47.9"/>
				</defs>
				<clipPath id="XMLID_386_">
					<use xlink:href="#XMLID_367_"  style="overflow:visible;"/>
				</clipPath>
				<path id="XMLID_368_" class="st17" d="M80.4,56c-10.8,11.2-10.9,30.3,2.9,47.9"/>
			</g>
		</g>
	</g>
	<path id="XMLID_362_" class="st11" d="M83.4,104.2c-0.1,0-0.2,0-0.3-0.1c-6.7-8.5-10.4-17.7-10.8-26.5c-0.4-8.5,2.4-16.2,7.9-21.8
		c0.1-0.1,0.4-0.1,0.5,0c0.1,0.1,0.1,0.4,0,0.5c-5.3,5.5-8,13-7.7,21.3c0.4,8.7,4.1,17.8,10.6,26.1c0.1,0.2,0.1,0.4-0.1,0.5
		C83.5,104.2,83.5,104.2,83.4,104.2"/>
	<path id="XMLID_361_" class="st18" d="M70.5,111.5c4.1-0.4,8-0.3,12-0.3c3.3-0.1,6.5,0.5,9.8,0.7c3,0.2,5.9-0.2,8.9-0.2l7.8,0.4
		l5.3,0.2c0.8,0.1,0.8,0.5,0.7,0.9c-0.2,2.2-1.4,3.7-2.1,5.5c-1,1.3-1.9,2.2-2.9,3.2c-0.7,0.7-1.6,0.8-2.9,0.5c-0.6-0.4-5.6,0-8.5,0
		c0,0-1.1-0.3-1.8-0.2c-0.7,0-0.5,0.3-1.2,0.3c-0.7,0-0.9-0.2-1.5-0.2c-0.4,0.1-0.4,0.3-0.9,0.3c-1.5,0-4.8-0.5-5.2-0.3
		c-2.7,1.4-6.4,0.6-9.8,0.6h-3.6c-1.3,0-1.8-1-2.2-2c-0.4-1.1-1-1.6-1.4-2.4c-1.3-2.2-0.9-3.9-1-5.7
		C69.7,111.7,70.2,111.7,70.5,111.5"/>
	<path id="XMLID_358_" class="st19" d="M83.8,123.5c-1,0-2-0.1-3-0.1c-0.8-0.1-1.7-0.1-2.5-0.1h-3.5c-1.6,0-2.2-1.4-2.6-2.2
		c-0.2-0.7-0.6-1.1-0.9-1.6c-0.2-0.2-0.3-0.5-0.5-0.7c-1.1-1.9-1-3.4-1-4.9c0-0.3,0-0.7,0-1c-0.3-1,0-1.3,0.5-1.5c0,0,0.1,0,0.1-0.1
		l0.1,0l0.1,0c2.9-0.3,5.8-0.3,8.6-0.3c1.1,0,2.3,0,3.4,0c2.2-0.1,4.5,0.2,6.6,0.4c1,0.1,2.1,0.2,3.2,0.3c1.9,0.1,3.9,0,5.9-0.1
		c1-0.1,2-0.1,3-0.1h0l0,0l7.8,0.4l5.3,0.2c0.4,0,0.7,0.1,0.9,0.4c0.3,0.3,0.2,0.7,0.2,0.9c-0.2,1.6-0.8,2.9-1.4,4.1
		c-0.3,0.5-0.5,1-0.7,1.5l0,0.1c-1.1,1.4-2.2,2.5-3,3.2c-0.7,0.7-1.8,0.9-3.2,0.5l0,0l0,0c-0.4-0.2-3-0.1-4.9,0
		c-1.2,0-2.4,0.1-3.3,0.1l-0.1,0c0,0-1-0.2-1.7-0.2c-0.3,0-0.4,0-0.5,0.1c-0.2,0.1-0.3,0.2-0.7,0.2c-0.4,0-0.6,0-0.9-0.1
		c-0.2-0.1-0.4-0.1-0.6-0.1c-0.1,0-0.1,0-0.2,0.1c-0.2,0.1-0.3,0.2-0.7,0.2c-0.7,0-1.8-0.1-2.8-0.2c-0.8-0.1-2-0.2-2.2-0.1
		C86.9,123.3,85.3,123.5,83.8,123.5 M70.6,111.9c0,0-0.1,0-0.1,0.1c-0.1,0-0.1,0.1-0.2,0.1c0,0-0.1,0.1,0.1,0.6l0,0.1
		c0,0.4,0,0.7,0,1.1c0,1.4,0,2.8,0.9,4.5c0.1,0.2,0.3,0.4,0.5,0.7c0.4,0.5,0.7,1,1,1.8c0.5,1.1,0.9,1.7,1.9,1.7h3.6
		c0.9,0,1.7,0.1,2.6,0.1c2.6,0.2,5.1,0.4,7.1-0.7c0.3-0.1,0.8-0.1,2.6,0.1c1,0.1,2,0.2,2.7,0.2c0.2,0,0.2,0,0.3-0.1
		c0.1-0.1,0.3-0.2,0.5-0.2c0.4,0,0.6,0,0.9,0.1c0.2,0,0.4,0.1,0.6,0.1c0.2,0,0.3,0,0.4-0.1c0.2-0.1,0.4-0.2,0.8-0.2
		c0.7,0,1.6,0.2,1.9,0.2c0.9,0,2.1,0,3.3-0.1c3.3-0.1,4.8-0.1,5.3,0.1c1.1,0.3,1.9,0.2,2.5-0.4c0.8-0.7,1.9-1.7,2.9-3.1
		c0.2-0.5,0.5-1,0.7-1.5c0.6-1.2,1.2-2.3,1.3-3.8c0-0.1,0-0.3,0-0.4c0,0-0.2-0.1-0.4-0.1l-5.3-0.2l-7.8-0.4c-1,0-2,0.1-2.9,0.1
		c-2,0.1-4,0.2-6,0.1c-1.1-0.1-2.1-0.2-3.2-0.3c-2.1-0.2-4.4-0.5-6.5-0.4c-1.2,0-2.3,0-3.5,0C76.3,111.6,73.5,111.6,70.6,111.9"/>
	<path id="XMLID_357_" class="st18" d="M112,112.8c-4.1-0.1-8.2-0.6-12.3-0.5c-3.6,0.2-7.2,0.4-10.7-0.2c-1.9-0.3-3.9-0.5-5.8-0.5
		c-4.2,0.2-8.5-0.1-12.7,0.2c0.3,1,0,2.2,0.1,3.2c0,1.5,0.6,3,1.6,4.1c0.7,0.9,0.8,2.2,1.7,2.9c1,0.6,2.2,0.2,3.3,0.3
		c3.3-0.1,6.7,0.9,9.9-0.1c0.7-0.4,1.4-0.6,2.2-0.4c1.4,0.1,2.8,0.5,4.2,0.2c0.8-0.6,1.9,0.3,2.7-0.3c1.3-0.3,2.6,0.4,4,0.1
		c2.3,0,4.7-0.4,7,0.1c1,0.4,2.3,0,2.9-0.9c1.3-1.2,2.5-2.5,3.1-4.1c0.6-1.2,1.3-2.7,1.3-4.2C113.6,112.7,112.8,112.9,112,112.8"/>
	<path id="XMLID_356_" class="st18" d="M70.1,111.7c1.2-1.8,5.2-3.3,7.8-5l30.2,1.4c2.2,1.2,4.3,2.6,6.4,4c0.7,0.6,0.3,0.6,0.1,0.6
		C99.7,112.9,84.9,113.2,70.1,111.7"/>
	<path id="XMLID_353_" class="st19" d="M97.1,113.2c-9,0-18.1-0.2-27-1.1l-0.4-0.1l0.2-0.5c0.8-1.2,2.8-2.2,4.8-3.3
		c1.1-0.6,2.2-1.2,3.1-1.8l0.1-0.1l0.1,0l30.3,1.4l0.1,0c2,1.1,3.9,2.3,5.8,3.6l0.7,0.4c0.3,0.3,0.6,0.6,0.5,0.9
		c-0.1,0.3-0.4,0.3-0.6,0.3h0l-1.8,0C107.6,113.2,102.3,113.2,97.1,113.2 M70.8,111.4c14,1.3,28.2,1.1,41.9,0.9l1.4,0l-0.5-0.3
		c-1.8-1.2-3.7-2.5-5.6-3.5l-30-1.4c-0.9,0.6-2,1.2-3.1,1.7C73.4,109.7,71.7,110.6,70.8,111.4"/>
	<path id="XMLID_352_" class="st18" d="M107.9,108.6c-10-0.5-19.9-0.9-29.9-1.3c-2.2,1.5-4.9,2.4-6.9,4.1c3.7,0.3,7.4,0.6,11.1,0.7
		c10.5,0.5,21.1,0.3,31.6,0.1C111.9,110.9,110,109.6,107.9,108.6"/>
	<path id="XMLID_351_" class="st20" d="M123.1,70.2c-0.4,5.1-1.9,8.7-3.1,12.6c-2.2,6.2-8.5,11.9-13,15.9c-1,1-1.4,2.5-1.1,4
		c-0.8,0.1-1.7,0.5-2.4,0.6c-0.8,0.3-1.5,0.3-2.6,0l-19.2-0.1c-0.3-0.3-1.1-0.4-1.8-0.3c0.4-1.6,0-3.3-1-4.3
		c-4.4-4-10.7-9.7-13-15.9c-1.2-3.9-2.7-7.5-3.1-12.6c-0.6-4-6.6-2.3-5.8,2.4l1.7,7.3c3.5,16.6,12.9,19.9,19.1,25.7
		c0,0.3,0.1,0.5,0.2,0.8c-0.4,3.1,1.2,4.7,4.5,4.2l25.1-0.2c0.5-0.1,0.7-1.1,0.7-1.8c-0.1-0.9-0.2-1.8-0.2-2.7
		c6.1-5.9,15.7-9,19.2-25.8l1.7-7.3C129.7,67.9,123.7,66.3,123.1,70.2"/>
	<path id="XMLID_350_" class="st21" d="M62.5,76l0.1,1.6h-0.2c-0.1-0.2-0.2-0.2-0.4-0.2l-1.6,0.1c-0.3,0-0.5,0-0.7-0.1
		c-0.2-0.1-0.3-0.2-0.4-0.4c-0.1-0.2-0.1-0.5-0.2-0.8c0-0.4,0.1-0.7,0.2-0.9c0.1-0.2,0.5-0.4,0.7-0.4c0.1,0,0.2,0,0.3,0.1
		c0.1,0.1,0.1,0.2,0.1,0.3c0,0.1,0,0.3-0.1,0.3c0,0.1-0.1,0.2-0.2,0.2c-0.1,0-0.1,0-0.1,0c0,0-0.1,0-0.1-0.1
		c-0.1-0.2-0.3-0.1-0.3-0.1c-0.2,0.1-0.2,0.2-0.2,0.4c0,0.1,0,0.2,0.1,0.2c0,0.1,0.1,0.1,0.2,0.1c0.1,0,0.3,0,0.6,0l1.7-0.1
		c0.3,0,0.3-0.1,0.4-0.3H62.5z"/>
	<path id="XMLID_349_" class="st21" d="M63.1,78.7l0.4,1.4l-0.1,0c0-0.1,0-0.2-0.1-0.2c0-0.1-0.1-0.1-0.1-0.1c-0.1,0-0.2,0-0.4,0.1
		l-1.6,0.5c-0.3,0.1-0.3,0.1-0.4,0.2c-0.1,0.1-0.1,0.2-0.2,0.3c0,0.1,0,0.3,0,0.4c0.1,0.2,0.1,0.3,0.3,0.4c0.1,0,0.1,0.1,0.2,0.1
		c0.2,0.1,1.6-0.4,2.3-0.5c0.1-0.1,0.1-0.1,0.1-0.2c0-0.1,0-0.2,0-0.3l0.1,0l0.3,1h-0.1c-0.1-0.2-0.3-0.3-0.6-0.2l-1.2,0.4
		c-0.4,0.1-0.7,0.2-0.8,0.2c-0.2,0-0.4-0.1-0.6-0.2c-0.2-0.2-0.3-0.4-0.4-0.8c-0.1-0.3-0.1-0.5-0.1-0.7c0.1-0.3,0.1-0.4,0.3-0.6
		c0.1-0.1,0.3-0.3,0.6-0.3l1.6-0.5C62.9,79,63,78.9,63.1,78.7L63.1,78.7z"/>
	<path id="XMLID_348_" class="st21" d="M65.5,85l-1,0.6l-0.1-0.1c0.2-0.2,0.4-0.4,0.4-0.7c0.1-0.3,0-0.5-0.1-0.8
		c-0.1-0.2-0.2-0.3-0.3-0.4c-0.1-0.1-0.3-0.1-0.4,0c-0.1,0-0.1,0.1-0.2,0.2c-0.1,0.1-0.1,0.2-0.1,0.4c0,0.1,0,0.4,0,0.7
		c0.1,0.5,0,0.9-0.1,1.1c-0.1,0.2-0.2,0.4-0.4,0.5c-0.3,0.1-0.5,0.1-0.8,0c-0.3-0.2-0.5-0.4-0.7-0.8c-0.1-0.1-0.1-0.2-0.1-0.3
		c0-0.1,0-0.3-0.1-0.4c0-0.1,0-0.2-0.1-0.2c0-0.1-0.1-0.1-0.1-0.1c0,0-0.1-0.1-0.2-0.1l-0.1-0.1l1.1-0.6l0.1,0.1
		c-0.3,0.3-0.4,0.5-0.5,0.8c0,0.3,0,0.6,0.1,0.9c0.1,0.2,0.2,0.3,0.4,0.4c0.2,0.1,0.3,0.1,0.4,0c0.1,0,0.1-0.1,0.2-0.2
		c0.1-0.1,0.1-0.2,0.1-0.3c0-0.1,0-0.3,0-0.6c0-0.4,0-0.7,0-0.9c0-0.2,0.1-0.4,0.2-0.5c0.1-0.1,0.2-0.3,0.3-0.3
		c0.2-0.1,0.5-0.1,0.7,0c0.3,0.1,0.5,0.4,0.6,0.7c0.1,0.1,0.1,0.2,0.1,0.4c0,0.1,0.1,0.2,0.1,0.4c0,0.2,0,0.3,0.1,0.3
		c0,0.1,0.1,0.1,0.1,0.1c0,0,0.1,0,0.2,0L65.5,85z"/>
	<path id="XMLID_347_" class="st21" d="M67.6,88.8l-0.7,0.5l-0.1-0.1c0.1-0.2,0.2-0.3,0.3-0.4c0-0.1,0.1-0.2,0-0.3
		c0-0.1-0.1-0.2-0.2-0.3L66.8,88l-2,1.5c-0.1,0.1-0.2,0.2-0.2,0.2c0,0,0,0.1,0,0.2c0,0.1,0,0.1,0.1,0.2l0.1,0.1l-0.1,0.1l-1-1.4
		l0.1,0l0.1,0.1c0.1,0.1,0.1,0.1,0.2,0.2c0.1,0,0.1,0,0.2,0c0.1,0,0.1-0.1,0.3-0.2l2-1.5l-0.1-0.2c-0.1-0.2-0.3-0.3-0.4-0.3
		c-0.2-0.1-0.4,0-0.6,0.1l-0.1-0.1l0.7-0.5L67.6,88.8z"/>
	<path id="XMLID_346_" class="st21" d="M67.4,93.4L67.4,93.4l-1.6-1.6l0.1-0.1l0.1,0.1c0.1,0.1,0.2,0.2,0.3,0.2c0.1,0,0.1,0,0.2,0
		c0.1,0,0.1-0.1,0.3-0.2l1.6-1.4c0.1-0.1,0.2-0.2,0.2-0.2c0-0.1,0-0.1,0-0.2c0-0.1-0.1-0.2-0.2-0.3l-0.1-0.1l0.1-0.1l1.6,1.7
		l-0.1,0.1l-0.1-0.1c-0.1-0.1-0.2-0.2-0.3-0.2c-0.1,0-0.1,0-0.2,0c-0.1,0-0.1,0-0.3,0.2l-1.6,1.4c-0.1,0.1-0.2,0.2-0.2,0.2
		c0,0.1,0,0.1,0,0.2c0,0.1,0.1,0.2,0.2,0.3L67.4,93.4z"/>
	<path id="XMLID_345_" class="st21" d="M72.6,93.7l-0.7,1l-0.1-0.1c0.1-0.3,0.1-0.6,0-0.8c-0.1-0.3-0.2-0.5-0.4-0.6
		c-0.2-0.1-0.4-0.2-0.6-0.2c-0.2,0-0.4,0.1-0.6,0.2c-0.2,0.2-0.4,0.4-0.6,0.6c-0.2,0.3-0.3,0.5-0.4,0.8c-0.1,0.3-0.1,0.5,0,0.7
		c0.1,0.2,0.2,0.4,0.4,0.5c0.2,0.1,0.4,0.2,0.6,0.2c0.2,0,0.5,0,0.7-0.1l-0.2,0.3c-0.3,0.1-0.5,0.1-0.7,0c-0.2-0.1-0.5-0.2-0.7-0.3
		c-0.3-0.2-0.5-0.5-0.7-0.7c-0.2-0.3-0.2-0.6-0.2-0.9c0-0.3,0.1-0.6,0.3-0.9c0.2-0.3,0.4-0.5,0.7-0.6c0.3-0.2,0.6-0.2,1-0.2
		s0.6,0.1,0.9,0.3c0.2,0.1,0.4,0.3,0.6,0.6c0.1,0.1,0.2,0.2,0.2,0.3c0.1,0,0.1,0.1,0.2,0C72.5,93.8,72.5,93.7,72.6,93.7L72.6,93.7z"
		/>
	<path id="XMLID_344_" class="st21" d="M74.4,96.1l-0.9,1l0.1,0.1c0.2,0.2,0.4,0.2,0.5,0.2c0.2,0,0.4-0.1,0.6-0.3l0.1,0.1l-1.1,1.3
		l-0.1-0.1c0.1-0.2,0.2-0.3,0.2-0.5c0-0.2,0-0.3,0-0.4c-0.1-0.1-0.2-0.2-0.3-0.3l-0.6,0.7c-0.1,0.1-0.2,0.2-0.2,0.3
		c0,0.1,0,0.1,0,0.2c0,0.1,0.1,0.1,0.2,0.2l0.2,0.2c0.3,0.3,0.6,0.4,0.8,0.4c0.3,0,0.5,0,0.8-0.2l0.1,0.1l-0.8,0.7l-2.6-2.2l0-0.1
		l0.1,0.1c0.1,0.1,0.2,0.1,0.3,0.2c0.1,0,0.1,0,0.2,0c0.1,0,0.1-0.1,0.2-0.2l1.4-1.6c0.1-0.1,0.2-0.2,0.2-0.2c0-0.1,0-0.1,0-0.2
		c0-0.1-0.1-0.2-0.2-0.3L73.4,95l0.1-0.1l2.5,2.1l-0.6,0.7l-0.1-0.1c0.1-0.2,0.2-0.4,0.2-0.6c0-0.2-0.1-0.3-0.2-0.5
		c-0.1-0.1-0.2-0.2-0.4-0.4L74.4,96.1z"/>
	<path id="XMLID_343_" class="st21" d="M111.7,96.6l0.6,0.7l-0.1,0.1c-0.2-0.1-0.3-0.2-0.4-0.2c-0.1,0-0.2,0-0.3,0
		c-0.1,0-0.2,0.1-0.3,0.2l-0.2,0.2l1.6,1.9c0.1,0.1,0.2,0.2,0.2,0.2c0.1,0,0.1,0,0.2,0s0.1,0,0.2-0.1l0.1-0.1l0.1,0.1l-1.3,1.1
		l-0.1-0.1l0.1-0.1c0.1,0,0.1-0.1,0.2-0.2c0,0,0-0.1,0-0.1c0-0.1-0.1-0.1-0.2-0.3l-1.6-1.9l-0.2,0.2c-0.2,0.1-0.3,0.3-0.3,0.4
		c0,0.2,0,0.4,0.2,0.6l-0.1,0l-0.6-0.7L111.7,96.6z"/>
	<path id="XMLID_340_" class="st21" d="M123.6,83.9l-0.5,1.1l0.3,0.3c0.1,0.1,0.2,0.2,0.2,0.2c0.1,0,0.2,0,0.3,0
		c0.1,0,0.1-0.1,0.2-0.3l0.1,0l-0.5,1.3l-0.1,0c0-0.1,0.1-0.2,0-0.4c-0.1-0.2-0.2-0.3-0.4-0.5l-1.8-2l0.2-0.5l2.8,0
		c0.3,0,0.5,0,0.6-0.1c0.1,0,0.1-0.1,0.2-0.2l0.1,0l-0.7,1.6l-0.1,0l0-0.1c0.1-0.1,0.1-0.2,0.1-0.3c0-0.1-0.1-0.1-0.1-0.1
		c0,0-0.1,0-0.1,0h-0.2L123.6,83.9z M123.4,83.9l-1.3,0l0.9,1L123.4,83.9z"/>
	<path id="XMLID_337_" class="st21" d="M119.2,92.2l-0.8,1l0.2,0.3c0.1,0.1,0.1,0.2,0.2,0.2c0.1,0.1,0.2,0.1,0.3,0
		c0.1,0,0.2-0.1,0.3-0.2l0.1,0l-0.9,1.1l-0.1-0.1c0-0.1,0.1-0.2,0.1-0.3c0-0.2-0.1-0.3-0.2-0.6l-1.2-2.4l0.4-0.4l2.6,0.8
		c0.3,0.1,0.5,0.1,0.6,0.1c0.1,0,0.2-0.1,0.2-0.1l0.1,0.1l-1.1,1.3l-0.1-0.1l0.1,0c0.1-0.1,0.1-0.2,0.2-0.3c0-0.1,0-0.1-0.1-0.1
		c0,0-0.1,0-0.1-0.1c0,0-0.1,0-0.2-0.1L119.2,92.2z M119,92.1l-1.3-0.4l0.6,1.2L119,92.1z"/>
	<path id="XMLID_336_" class="st21" d="M122.5,81L122.5,81l0.6-2.2l0.1,0l-0.1,0.2c0,0.1-0.1,0.2-0.1,0.3c0,0,0,0.1,0.1,0.1
		c0,0,0.1,0.1,0.3,0.1l2,0.7c0.2,0.1,0.3,0.1,0.3,0.1s0.1,0,0.2-0.1c0.1-0.1,0.1-0.2,0.1-0.3l0.1-0.2l0.1,0l-0.7,2.2l-0.1,0l0.1-0.2
		c0-0.1,0.1-0.2,0.1-0.3c0-0.1,0-0.1-0.1-0.2c0,0-0.1-0.1-0.3-0.1l-2-0.7c-0.2-0.1-0.3-0.1-0.3-0.1c-0.1,0-0.1,0.1-0.2,0.1
		c-0.1,0.1-0.1,0.2-0.1,0.3L122.5,81z"/>
	<path id="XMLID_333_" class="st21" d="M115,96l0.6,0.7c0.1,0.1,0.2,0.2,0.3,0.2c0.1,0,0.1,0,0.1,0c0.1,0,0.2-0.1,0.3-0.2l0.1,0.1
		l-1.3,1.1l0-0.1c0.1-0.1,0.2-0.2,0.2-0.3c0-0.1,0-0.1,0-0.2s-0.1-0.2-0.2-0.3l-1.4-1.6c-0.1-0.1-0.2-0.2-0.3-0.2
		c-0.1,0-0.1,0-0.2,0c-0.1,0-0.2,0.1-0.3,0.2l-0.1-0.1l1.2-1c0.3-0.3,0.6-0.5,0.7-0.5c0.2-0.1,0.4-0.1,0.6-0.1
		c0.2,0,0.4,0.1,0.5,0.3c0.2,0.2,0.2,0.4,0.2,0.6c0,0.2-0.1,0.3-0.2,0.5l1.4,0.3c0.2,0.1,0.3,0.1,0.4,0.1c0.1,0,0.2,0,0.2-0.1
		l0.1,0.1l-0.8,0.7l-1.8-0.4L115,96z M113.9,94.7l1,1.1l0.1-0.1c0.2-0.2,0.3-0.3,0.4-0.4c0.1-0.1,0.1-0.2,0.1-0.4
		c0-0.1-0.1-0.3-0.2-0.4c-0.2-0.2-0.3-0.3-0.5-0.3c-0.2,0-0.4,0.1-0.6,0.3L113.9,94.7z"/>
	<path id="XMLID_332_" class="st21" d="M120.6,85.9L120.6,85.9c0,0.2,0,0.3,0.1,0.5c0.1,0.1,0.2,0.3,0.4,0.6l1.6,2.2l-0.2,0.3
		l-2.8-0.4c-0.4,0-0.6-0.1-0.7,0c-0.1,0-0.1,0.1-0.3,0.2l-0.1-0.1l0.9-1.5l0.1,0.1l0,0.1c-0.1,0.1-0.1,0.2-0.1,0.3
		c0,0.1,0,0.1,0.1,0.1c0,0,0.1,0,0.1,0.1c0.1,0,0.2,0,0.4,0.1l1.9,0.3l-1-1.4c-0.1-0.2-0.2-0.3-0.3-0.3c-0.1-0.1-0.1-0.1-0.1-0.1
		c-0.1,0-0.1-0.1-0.2,0c-0.1,0-0.1,0-0.2,0c-0.1,0.1-0.1,0.1-0.2,0.2l-0.1-0.1L120.6,85.9z"/>
	<path id="XMLID_331_" class="st21" d="M126.2,75.5l1.1,0.4l-0.7,2.8l-0.1,0l0-0.1c0-0.1,0-0.2,0-0.2c0-0.1-0.1-0.1-0.1-0.1
		c0,0-0.1-0.1-0.3-0.1l-2-0.5c-0.2-0.1-0.3-0.1-0.3-0.1c-0.1,0-0.1,0-0.1,0.1c-0.1,0.1-0.1,0.1-0.1,0.2l0,0.1l-0.1,0l0.4-1.7l0.1,0
		l0,0.2c0,0.1,0,0.2,0,0.2c0,0.1,0.1,0.1,0.1,0.1s0.1,0,0.3,0.1l2,0.5c0.1,0,0.3,0,0.3,0c0.1,0,0.1,0,0.1-0.1c0,0,0.1-0.1,0.1-0.3
		l0.1-0.3c0.1-0.2,0.1-0.3,0-0.5c0-0.1-0.1-0.3-0.2-0.4C126.5,75.8,126.4,75.7,126.2,75.5L126.2,75.5z"/>
	<path id="XMLID_328_" class="st21" d="M84.1,107.5c0.1,0.4,0,0.4,0.4,0.4v0.2h-1.7v-0.2c0.4,0,0.4,0,0.4-0.4v-2.1
		c0-0.2,0-0.3,0-0.3c-0.1-0.1-0.2-0.1-0.3-0.1v-0.2h1.5c0.5,0,0.9,0.1,1.2,0.3c0.2,0.2,0.4,0.4,0.4,0.6c0,0.2-0.1,0.4-0.2,0.5
		s-0.4,0.3-0.6,0.3c-0.2,0-0.5,0.1-0.9,0.1L84.1,107.5z M84.1,105.1v1.4c0.2,0,0.3,0,0.4,0c0.1,0,0.2-0.1,0.3-0.1
		c0.1-0.1,0.2-0.3,0.2-0.5c0-0.2,0-0.4-0.2-0.5c-0.1-0.1-0.3-0.2-0.6-0.2L84.1,105.1z"/>
	<path id="XMLID_325_" class="st21" d="M90.1,107.1h-1.2l-0.2,0.4c-0.1,0.1-0.1,0.2-0.1,0.3c0,0.1,0,0.2,0.1,0.2
		c0.1,0,0.2,0.1,0.4,0.1v0.1h-1.4V108c0.1-0.1,0.2,0,0.3-0.2c0.1-0.1,0.2-0.3,0.3-0.5l1.1-2.5H90l1.1,2.5c0.1,0.3,0.2,0.5,0.3,0.5
		c0.1,0.1,0.2,0.1,0.3,0.1v0.1h-1.7V108H90c0.1,0,0.2,0,0.3-0.1c0.1,0,0.1-0.1,0.1-0.1c0,0,0-0.1,0-0.1c0,0,0-0.1-0.1-0.2
		L90.1,107.1z M90,106.9l-0.5-1.2l-0.5,1.2H90z"/>
	<path id="XMLID_324_" class="st21" d="M99.6,106.2l0.9,1.3c0.2,0.2,0.3,0.4,0.3,0.4c0.1,0.1,0.2,0.1,0.2,0.1v0.1h-1.6V108
		c0.1,0,0.2,0,0.3,0c0,0,0.1-0.1,0.1-0.1c0,0,0-0.1,0-0.1c0-0.1-0.1-0.2-0.2-0.3l-0.4-0.6l-0.8,0.9c0,0.1,0,0.1,0.1,0.2
		c0.1,0,0.1,0.1,0.2,0.1c0,0,0.1,0,0.2,0v0.1h-1.3V108c0.2,0,0.3,0,0.4-0.1c0.1-0.1,0.3-0.2,0.5-0.5l0.7-0.8l-0.9-1.2
		c-0.2-0.2-0.2-0.3-0.2-0.4c-0.1,0-0.1-0.1-0.1-0.1c-0.1,0-0.1-0.1-0.2-0.1v-0.1h1.6v0.1h-0.1c-0.1,0-0.2,0-0.2,0.1
		c0,0-0.1,0.1-0.1,0.1c0,0,0,0.1,0,0.1l0.2,0.3l0.4,0.6l0.4-0.4c0.2-0.2,0.3-0.4,0.3-0.5c0-0.1,0-0.1-0.1-0.1c0,0-0.1-0.1-0.1-0.1
		c0,0-0.1,0-0.2,0v-0.1h1.2v0.1c-0.1,0-0.2,0-0.3,0.1L99.6,106.2z"/>
	<path id="XMLID_323_" class="st21" d="M95.4,108L95.4,108l-2.3,0.1V108h0.2c0.1,0,0.2,0,0.3-0.1c0.1,0,0.1-0.1,0.1-0.1
		c0,0,0.1-0.1,0.1-0.3l0.1-2.1c0-0.2,0-0.3,0-0.3c0,0-0.1-0.1-0.1-0.1c-0.1,0-0.2-0.1-0.3-0.1h-0.2v-0.1l2.3,0v0.1h-0.2
		c-0.1,0-0.2,0-0.3,0.1c-0.1,0-0.1,0.1-0.1,0.1c0,0.1-0.1,0.1-0.1,0.3l-0.1,2.1c0,0.2,0,0.3,0,0.3c0,0.1,0.1,0.1,0.2,0.1
		c0.1,0,0.2,0.1,0.3,0.1H95.4z"/>
	<path id="XMLID_322_" class="st22" d="M100.9,69.7c0.8-1,1.8-1.8,3.1-2.6c2.1-1.2,3.6-0.6,2.9,3.8c-0.5,1.3-1.2,2.2-2,2.9L105,74
		l-0.7,0.7c-0.7,0.8-0.2,1.4,0.2,1.9c1.3,2.6,0,4.3-1.2,5.5l-2.3,1.8c-0.4,0.6-0.6,1.2-0.7,1.8c-0.2,0.8-1.1,1.7-1.7,2.8
		c-0.4,0.9-0.3,1.7-0.4,2.8c-1,3.2-4,2.7-5.5,2.8c-1.5-0.1-4.5,0.4-5.5-2.8c-0.2-1.1-0.1-1.9-0.4-2.8c-0.6-1.1-1.5-2-1.7-2.8
		c-0.1-0.6-0.3-1.3-0.7-1.8l-2.3-1.8c-1.2-1.2-2.5-2.9-1.2-5.5c0.3-0.6,0.8-1.2,0.2-1.9L80.4,74l0.1-0.3c-0.8-0.7-1.5-1.5-2-2.9
		c-0.7-4.4,0.8-5,2.9-3.8c1.2,0.8,2.2,1.6,3.1,2.6l-1.1-1.2c1.4-1.1,3.8-1.6,5.6-2.1c2.9-2.6,4.7-2.5,7.7,0.1c1.8,0.5,4,1.1,5.4,2.1
		L100.9,69.7z"/>
	<path id="XMLID_321_" class="st23" d="M92.7,64.9h-0.1c-1.4,0.1-2.5,1.2-3.6,1.9c-1.7,0.5-3.4,0.8-4.9,1.7c0.5,0.5,1,1.1,1,1.8
		c-1.3-0.4-3.6-1.9-4.4-1.1c-0.8,0.8-0.2,2.6,0,3.2c0.2,0.4,0.3,1,0.4,1.1c-0.3,0.6,0.7,0.8,0.8,1.3c0.5,1.1-0.7,2-0.8,3
		c-0.4,1.9,0.9,3.5,2.4,4.5c0.9,0.7,2,1.4,2.1,2.6c0.1,0.9,0.6,1.6,1.2,2.3c0.7,0.9,1,2,0.9,3.2c0.1,1.5,1.3,2.8,2.8,3
		c1.6,0.2,3.2,0.1,4.8,0c1.5-0.3,2.7-1.6,2.6-3.1c0-1.1,0.3-2.3,1.1-3.2c0.6-0.7,1.1-1.5,1.1-2.4c0.2-1.1,1.1-1.8,2-2.3
		c1.4-1,2.8-2.6,2.4-4.4c-0.1-1-1.1-1.8-1-2.9c0.1-0.6,0.7-1,1-1.5c0-0.2,0.3-0.9,0.4-1.3c0.1-1,0.8-2.5-0.1-3.2
		c-1.4-1.1-2.9,0.8-4.3,1c-0.1-0.7,0.4-1.3,0.9-1.7c-1.5-0.9-3.3-1.2-4.9-1.8C95.3,65.9,94.1,64.9,92.7,64.9"/>
	<path id="XMLID_318_" class="st24" d="M94.7,91.4c-0.7,0-1.2-0.4-1.8-0.6c-0.9,0.1-1.7,1-2.6,0.6c-1.4-0.4-1.8-2.1-1.9-3.4
		c-0.1-1.4-0.3-3.2-1.6-4c-0.5-0.4-0.6-1.5,0.2-1.6c1.3-0.2,2.6,0.6,4,0.3c0.7-0.1,1.3-0.6,1.9-0.8c0.7,0.3,1.3,0.8,2.1,0.8
		c1.3,0.2,2.5-0.5,3.8-0.3c0.7,0.2,0.7,1.3,0.1,1.6c-0.9,0.6-1.3,1.6-1.4,2.6c-0.1,0.6-0.1,1.2-0.3,2.4
		C96.6,90.6,95.8,91.5,94.7,91.4 M100.1,71.1c-0.6-0.2-0.5-1-0.4-1.5c0.1-0.3,0.3-0.6,0.3-0.8c-1.7-0.8-3.8-0.9-5.2-2.3
		c-0.7-0.5-1.4-0.9-2.3-0.9c-1.8,0.2-2.8,2.1-4.6,2.2c-0.9,0.3-2,0.5-2.8,1c0.5,0.7,0.7,1.6,0.4,2.4c-1.7,0-4.2-2.7-4.7-1.4
		c-0.4,1.1,0.5,2.4,1,3.6c-0.5,0.3,0.1,0.5,0.3,0.7c0.8,1,0.2,2.4-0.4,3.4c-0.7,1.5,0.3,3.2,1.5,4.1c1.3,0.8,2.7,2,2.8,3.7
		c0.5,1.5,2,2.5,2,4.2c0.1,1.1,0.1,2.5,1.3,3c1.5,0.7,3.2,0.4,4.7,0.4c1.2,0,2.6-0.7,2.8-2c0.1-0.5,0.2-0.9,0.5-2.3
		c0.4-1.5,1.6-2.4,1.7-3.8c0.2-1.1,0.9-1.9,1.8-2.5c1.3-0.9,2.8-2.1,2.6-3.8c0-1.2-1.1-2-1-3.2c0-0.8,0.8-1.2,1-1.8
		c0.4-1.5,0.9-3,0.4-3.4C103.2,69.3,101.7,71.1,100.1,71.1"/>
	<path id="XMLID_313_" class="st25" d="M92.7,66.5c-1.7,0.4-2.7,2.1-4.5,2.2c-0.6,0.2-1.2,0.3-1.7,0.5c0.3,0.9,0.2,2-0.2,2.9
		c-1.9,0.3-2.8-0.2-3.6-1c-0.8-0.8-0.8-0.7-1.2-0.9c-0.3,0.3,0,1.8,1.3,2.7c0.2,0.4,0.1,0.8,0.4,1c0.7,1.3,0.1,2.9-0.6,4.1
		c-0.4,1.3,0.8,2.5,1.8,3.2c0.5,0.3,0.9,0.7,1.3,1.1c0.4-0.9,1.5-1.1,2.4-0.9c1.3,0.2,2.8,0.7,3.9-0.2c0.7-0.4,1.6-0.4,2.2,0.2
		c1.7,1,3.7-0.7,5.4,0.3c0.2,0.2,0.4,0.4,0.6,0c1-0.8,2.5-1.6,2.5-3.1c-0.2-1.3-1.4-2.4-0.9-3.8c0.5-2.1,2.2-3,1.5-3.9
		c-0.6-0.9-1.2,1-3.1,1.1c-1,0-1.7-1-1.5-2c-0.1-0.3,0.4-0.8-0.2-0.8c-1.7-0.5-3.5-1.1-4.8-2.4C93.4,66.7,93.1,66.5,92.7,66.5
		 M98.3,72.3c0.9,0,2.1,0,2.5,1c0.2,1-0.9,1.4-1.6,1.7c-0.9,0.8-2,1.8-3.3,1.4c-1.3-0.2-2.1-2.1-1.1-3.1
		C95.7,72.4,97.1,72.4,98.3,72.3 M87.2,72.3c1.4,0,3.1,0.3,3.8,1.7c0.6,1.4-1,2.8-2.4,2.5c-1.4-0.2-2.2-1.6-3.5-2
		c-0.7-0.5-0.6-1.7,0.3-1.9C85.9,72.3,86.5,72.4,87.2,72.3 M93,91.8c-0.3,0.1-0.5,0.2-0.7,0.3c0.4,0,1.1,0,1.3-0.1
		C93.4,92,93.2,91.8,93,91.8"/>
	<path id="XMLID_310_" class="st26" d="M92.6,68.6c-1.2,0.7-2.4,1.6-3.7,2c1.6,0.3,3.1,1.3,3.7,2.9c0.5-1.7,2.2-2.7,3.9-2.9
		C95.2,70.1,93.9,69.2,92.6,68.6 M92.7,75.8C91.9,78,89,79.2,87,77.9c-0.6-0.3-1.2-0.8-1.7-1.1c-0.2,0.7-0.7,1.4-0.6,2.1
		c0.3,0.4,0.8,0.9,1.3,0.9c1.5-0.7,3.1-0.1,4.6,0c1.1-0.5,2.5-1.2,3.7-0.5c0.8,0.4,1.6,0.8,2.5,0.4c1-0.2,2.1-0.3,3.1,0
		c0.5-0.3,1.3-0.9,0.8-1.5c-0.2-0.5-0.4-0.9-0.5-1.4c-1.2,1-2.7,1.9-4.4,1.5C94.4,78.1,93.2,77.1,92.7,75.8"/>
	<path id="XMLID_309_" class="st7" d="M91.6,73.8c0.4,0,0.9,1.3,0.1,1.4C91.6,75.2,91.5,74,91.6,73.8"/>
	<path id="XMLID_306_" class="st7" d="M91.7,75.4L91.7,75.4c-0.1,0-0.1,0-0.1-0.1c-0.1-0.2-0.1-1.3-0.1-1.5l0-0.1h0.1
		c0.3,0,0.6,0.5,0.6,0.9C92.3,75,92.1,75.3,91.7,75.4L91.7,75.4z M91.7,74c0,0.3,0,0.9,0,1.1C92,75,92,74.8,92,74.6
		C91.9,74.3,91.8,74.1,91.7,74"/>
	<path id="XMLID_305_" class="st7" d="M89.6,81.5c-0.1,0.1-0.1,0.2,0,0.4c0.1,0.1,0.3,0.2,0.4,0c0.1-0.1,0.1-0.2,0-0.4
		C90,81.4,89.8,81.4,89.6,81.5"/>
	<path id="XMLID_302_" class="st7" d="M89.9,82C89.9,82,89.8,82,89.9,82c-0.1,0-0.2-0.1-0.3-0.1c-0.1-0.1-0.1-0.2-0.1-0.2
		c0-0.1,0-0.2,0.1-0.2c0.1-0.1,0.2-0.1,0.3-0.1c0.1,0,0.2,0.1,0.3,0.2c0.1,0.1,0.2,0.3,0,0.5C90,82,90,82,89.9,82 M89.8,81.5
		c-0.1,0-0.1,0-0.1,0.1l0,0c-0.1,0-0.1,0.1-0.1,0.1c0,0,0,0.1,0.1,0.1c0,0,0.1,0.1,0.1,0.1c0.1,0,0.1,0,0.2,0c0.1-0.1,0.1-0.1,0-0.2
		C90,81.5,89.9,81.5,89.8,81.5L89.8,81.5z"/>
	<path id="XMLID_301_" class="st7" d="M89.1,79.3c-0.1,0.1-0.1,0.2,0,0.4c0.1,0.1,0.3,0.2,0.4,0c0.1-0.1,0.1-0.2,0-0.4
		C89.5,79.2,89.3,79.2,89.1,79.3"/>
	<path id="XMLID_298_" class="st7" d="M89.4,79.8c-0.1,0-0.2,0-0.3-0.1c-0.2-0.3-0.1-0.4,0-0.5h0c0.2-0.1,0.4-0.1,0.5,0.1
		c0.1,0.1,0.2,0.3,0,0.5C89.5,79.8,89.5,79.8,89.4,79.8 M89.2,79.3c-0.1,0-0.1,0.1-0.1,0.1c0,0,0,0.1,0.1,0.1c0.1,0.1,0.2,0.1,0.3,0
		c0.1-0.1,0.1-0.1,0-0.2C89.4,79.3,89.3,79.3,89.2,79.3"/>
	<path id="XMLID_297_" class="st7" d="M90.3,80.1c0.2-0.2,0.7,0.5,0.5,0.6C90.7,80.7,90.5,80.5,90.3,80.1"/>
	<path id="XMLID_294_" class="st7" d="M90.8,80.7L90.8,80.7c-0.3,0-0.5-0.3-0.6-0.7l0,0l0,0c0,0,0.1-0.1,0.2,0
		c0.2,0.1,0.4,0.4,0.5,0.6C90.9,80.7,90.9,80.7,90.8,80.7L90.8,80.7z M90.4,80.1c0.1,0.3,0.2,0.5,0.4,0.5c0-0.1-0.1-0.3-0.3-0.4
		C90.5,80.2,90.4,80.1,90.4,80.1L90.4,80.1z"/>
	<path id="XMLID_293_" class="st7" d="M89,78.3c0.2-0.2,0.7,0.3,0.6,0.4C89.4,78.6,89.1,78.7,89,78.3"/>
	<path id="XMLID_290_" class="st7" d="M89.6,78.7L89.6,78.7c-0.1,0-0.1,0-0.1,0c-0.2,0-0.4,0-0.5-0.4l0,0l0,0c0,0,0.1-0.1,0.3,0
		c0.2,0.1,0.4,0.2,0.4,0.4C89.7,78.6,89.6,78.7,89.6,78.7L89.6,78.7z M89.1,78.3c0.1,0.3,0.2,0.3,0.4,0.3c0,0,0,0,0.1,0
		c0,0-0.1-0.2-0.2-0.2C89.2,78.3,89.1,78.3,89.1,78.3"/>
	<path id="XMLID_289_" class="st7" d="M90.3,80.7c-0.1-0.2-0.4-0.4-0.5-0.2c-0.1,0.2,0.1,0.6,0.2,0.6C90.1,81.1,90.3,80.9,90.3,80.7
		"/>
	<path id="XMLID_286_" class="st7" d="M90,81.2c-0.1,0-0.2-0.1-0.3-0.2c-0.1-0.2-0.1-0.4,0-0.5c0.1-0.1,0.2-0.1,0.3-0.1
		c0.2,0,0.3,0.2,0.4,0.3c0,0.1,0,0.3-0.1,0.4C90.2,81.1,90.1,81.2,90,81.2 M89.9,80.5C89.8,80.5,89.8,80.5,89.9,80.5
		c-0.1,0.1-0.1,0.3-0.1,0.4c0,0.1,0.1,0.1,0.1,0.1c0.1,0,0.1,0,0.2-0.1c0.1-0.1,0.1-0.2,0-0.2C90.1,80.6,90,80.5,89.9,80.5
		C89.9,80.5,89.9,80.5,89.9,80.5"/>
	<path id="XMLID_285_" class="st7" d="M91,81.4c-0.1-0.2-0.3-0.3-0.4-0.1c-0.1,0.2,0,0.5,0.2,0.5C90.9,81.8,91,81.5,91,81.4"/>
	<path id="XMLID_282_" class="st7" d="M90.7,81.9c-0.1,0-0.2-0.1-0.2-0.2c-0.1-0.1-0.1-0.3,0-0.4c0-0.1,0.1-0.1,0.2-0.1
		c0.1,0,0.3,0.1,0.3,0.2c0,0.1,0,0.2-0.1,0.3C90.9,81.8,90.8,81.9,90.7,81.9 M90.7,81.3C90.7,81.3,90.6,81.3,90.7,81.3
		c-0.1,0.1-0.1,0.2-0.1,0.3c0,0.1,0.1,0.1,0.1,0.1c0,0,0.1,0,0.1-0.1c0.1-0.1,0.1-0.2,0.1-0.2C90.9,81.3,90.8,81.3,90.7,81.3
		C90.7,81.3,90.7,81.3,90.7,81.3"/>
	<path id="XMLID_281_" class="st7" d="M88.6,78.7c-0.1-0.1-0.3-0.2-0.4-0.1c-0.1,0.1,0,0.4,0.2,0.4C88.5,79,88.7,78.8,88.6,78.7"/>
	<path id="XMLID_278_" class="st7" d="M88.4,79.1C88.4,79.1,88.4,79.1,88.4,79.1L88.4,79.1c-0.1,0-0.1,0-0.2-0.1
		c-0.1-0.1-0.1-0.3,0-0.4c0-0.1,0.1-0.1,0.2-0.1c0.1,0,0.2,0.1,0.3,0.2c0,0.1,0,0.2-0.1,0.3C88.6,79,88.5,79.1,88.4,79.1 M88.4,78.6
		C88.3,78.6,88.3,78.6,88.4,78.6c-0.1,0.1-0.1,0.2,0,0.3c0,0,0.1,0.1,0.1,0.1c0,0,0.1,0,0.1,0c0-0.1,0.1-0.1,0-0.2
		C88.5,78.7,88.5,78.6,88.4,78.6C88.4,78.6,88.4,78.6,88.4,78.6"/>
	<path id="XMLID_277_" class="st7" d="M88.4,79.5c-0.1,0.2-0.1,0.5,0.1,0.5s0.5-0.3,0.4-0.5C88.9,79.3,88.6,79.3,88.4,79.5"/>
	<path id="XMLID_274_" class="st7" d="M88.6,80.1c-0.1,0-0.2-0.1-0.2-0.2c-0.1-0.1,0-0.3,0-0.4c0.1-0.1,0.2-0.2,0.4-0.1
		c0.1,0,0.2,0.1,0.2,0.2c0,0.1,0,0.2-0.1,0.3C88.9,79.9,88.7,80.1,88.6,80.1 M88.7,79.5c-0.1,0-0.2,0-0.2,0.1
		c-0.1,0.1-0.1,0.2,0,0.3c0.1,0.1,0.3,0,0.4-0.1c0-0.1,0.1-0.1,0-0.2C88.9,79.5,88.8,79.5,88.7,79.5C88.7,79.5,88.7,79.5,88.7,79.5"
		/>
	<path id="XMLID_273_" class="st7" d="M89,80.3c0.2-0.1,0.6,0.5,0.4,0.5C89.3,80.7,89,80.8,89,80.3"/>
	<path id="XMLID_270_" class="st7" d="M89.4,80.9L89.4,80.9c0,0-0.1,0-0.1,0c-0.1,0-0.4-0.1-0.4-0.5v0l0,0c0,0,0.1-0.1,0.3,0
		c0.2,0.1,0.3,0.4,0.3,0.5C89.5,80.8,89.5,80.9,89.4,80.9L89.4,80.9z M89.1,80.3c0,0.3,0.1,0.4,0.3,0.4c0,0,0,0,0.1,0
		C89.4,80.6,89.3,80.4,89.1,80.3C89.2,80.3,89.1,80.3,89.1,80.3L89.1,80.3z"/>
	<path id="XMLID_269_" class="st7" d="M89.8,77.3c0.3-0.4,1.6,0.6,1.5,1C91.1,78.4,89.7,77.6,89.8,77.3"/>
	<path id="XMLID_266_" class="st7" d="M91.2,78.4c-0.3,0-0.6-0.2-0.8-0.3c-0.3-0.1-0.8-0.5-0.7-0.8l0,0c0.2-0.2,0.4-0.2,0.8,0.1
		c0.4,0.2,1,0.7,0.9,1l0,0l0,0C91.4,78.3,91.3,78.4,91.2,78.4 M89.9,77.3c0,0,0.1,0.1,0.2,0.2c0.4,0.3,0.9,0.6,1.1,0.6
		c-0.1-0.1-0.3-0.5-0.8-0.7C90.2,77.3,90,77.3,89.9,77.3"/>
	<path id="XMLID_265_" class="st7" d="M90.7,76.3c0.4-0.3,1.2,0.9,1.2,1.3C91.4,77.5,90.5,76.6,90.7,76.3"/>
	<path id="XMLID_262_" class="st7" d="M92,77.8l-0.2-0.1c-0.4-0.1-1.2-0.8-1.3-1.2c0-0.1,0-0.2,0-0.3l0,0c0.1-0.1,0.2-0.1,0.4,0
		c0.5,0.2,1,1.1,1,1.4L92,77.8z M90.8,76.4C90.8,76.4,90.8,76.4,90.8,76.4c0.1,0.3,0.6,0.8,0.9,1c-0.1-0.3-0.5-0.8-0.8-0.9
		C90.8,76.4,90.8,76.4,90.8,76.4"/>
	<path id="XMLID_261_" class="st7" d="M91.9,75.8c0.3,0,0.3,1,0.1,1.1C91.7,76.9,91.6,76,91.9,75.8"/>
	<path id="XMLID_258_" class="st7" d="M92,77.1L92,77.1c-0.3,0-0.4-0.3-0.4-0.6c0-0.3,0-0.7,0.3-0.8l0,0l0,0c0.2,0,0.3,0.2,0.3,0.4
		C92.3,76.4,92.3,76.9,92,77.1L92,77.1z M91.9,76c-0.1,0.1-0.1,0.3-0.1,0.5c0,0.2,0.1,0.3,0.1,0.3c0.1-0.1,0.1-0.3,0.1-0.6
		C92,76.1,92,76,91.9,76"/>
	<path id="XMLID_257_" class="st7" d="M86.7,69.6c-0.3-0.1-0.9,0.5-0.8,0.8c0.1,0.3,1,0.6,1.1,0.4C87.3,70.6,87,69.7,86.7,69.6"/>
	<path id="XMLID_254_" class="st7" d="M86.9,71c-0.1,0-0.1,0-0.2,0c-0.3,0-0.7-0.2-0.8-0.5c-0.1-0.2,0.1-0.5,0.3-0.7
		c0.2-0.2,0.4-0.3,0.6-0.3c0.2,0.1,0.4,0.5,0.5,0.7c0,0.2,0.1,0.5-0.1,0.6C87.1,70.9,87,71,86.9,71 M86.7,69.7
		c-0.1,0-0.2,0.1-0.3,0.2c-0.2,0.2-0.3,0.4-0.2,0.5c0,0.1,0.3,0.3,0.6,0.3c0.2,0,0.3,0,0.3,0c0,0,0.1-0.2,0-0.4
		C86.9,70,86.8,69.8,86.7,69.7L86.7,69.7C86.7,69.7,86.7,69.7,86.7,69.7"/>
	<path id="XMLID_253_" class="st7" d="M85.1,71.5c-0.3-0.1-0.9,0.3-0.8,0.6s1,0.6,1.1,0.4C85.7,72.3,85.4,71.6,85.1,71.5"/>
	<path id="XMLID_250_" class="st7" d="M85.2,72.7c-0.1,0-0.2,0-0.2,0c-0.3-0.1-0.7-0.2-0.8-0.5c-0.1-0.2,0-0.4,0.2-0.5
		c0.2-0.2,0.5-0.3,0.7-0.3c0.2,0.1,0.4,0.4,0.5,0.7c0.1,0.2,0,0.4-0.1,0.5C85.5,72.7,85.4,72.7,85.2,72.7 M85,71.6
		c-0.1,0-0.3,0.1-0.4,0.2c-0.1,0.1-0.2,0.2-0.1,0.3c0,0.1,0.3,0.3,0.6,0.3c0.2,0,0.3,0,0.3,0c0,0,0.1-0.1,0-0.3
		C85.3,71.9,85.2,71.7,85,71.6L85,71.6C85,71.6,85,71.6,85,71.6"/>
	<path id="XMLID_249_" class="st7" d="M90.8,67.8c-0.3-0.1-1.1,0.4-1.1,0.7c0.1,0.3,1.1,0.4,1.2,0.2C91.1,68.5,91,67.9,90.8,67.8"/>
	<path id="XMLID_246_" class="st7" d="M90.6,69c-0.1,0-0.3,0-0.4,0c-0.2,0-0.5-0.1-0.6-0.4c0-0.1,0-0.3,0.2-0.4
		c0.2-0.2,0.8-0.5,1-0.4c0.2,0,0.3,0.2,0.3,0.4c0.1,0.2,0.1,0.5-0.1,0.7C90.9,68.9,90.7,69,90.6,69 M90.7,67.9
		c-0.2,0-0.5,0.2-0.7,0.4c-0.1,0.1-0.1,0.2-0.1,0.2c0,0.1,0.2,0.2,0.4,0.2c0.3,0.1,0.6,0,0.6,0c0.1-0.1,0.1-0.3,0.1-0.5
		C90.9,68.1,90.8,68,90.7,67.9L90.7,67.9C90.7,67.9,90.7,67.9,90.7,67.9"/>
	<path id="XMLID_245_" class="st7" d="M86.9,67.8c-0.2,0.2-0.3,0.6-0.1,0.8c0.2,0.2,0.6,0.2,0.8,0c0.2-0.2,0.2-0.5,0-0.7
		C87.4,67.7,87.1,67.6,86.9,67.8"/>
	<path id="XMLID_242_" class="st7" d="M87.1,68.8C87.1,68.8,87.1,68.8,87.1,68.8c-0.2,0-0.4-0.1-0.4-0.2c-0.2-0.3-0.1-0.7,0.1-0.9
		l0,0c0.2-0.2,0.6-0.1,0.8,0.1c0.2,0.3,0.2,0.6,0,0.8C87.5,68.8,87.3,68.8,87.1,68.8 M87,67.9c-0.1,0.1-0.2,0.5-0.1,0.6
		c0,0,0.1,0.1,0.2,0.1c0.1,0,0.3,0,0.4-0.1c0.1-0.1,0.1-0.4,0-0.5C87.3,67.8,87.1,67.8,87,67.9"/>
	<path id="XMLID_241_" class="st7" d="M85.2,68.3c-0.2,0.2-0.2,0.4,0,0.6c0.2,0.2,0.4,0.2,0.6,0.1c0.2-0.2,0.2-0.3,0-0.5
		C85.6,68.2,85.4,68.1,85.2,68.3"/>
	<path id="XMLID_238_" class="st7" d="M85.5,69.1C85.5,69.1,85.5,69.1,85.5,69.1c-0.2,0-0.3-0.1-0.4-0.2c-0.2-0.3-0.2-0.5,0-0.7l0,0
		c0.1-0.1,0.3-0.1,0.4-0.1c0.1,0,0.3,0.1,0.4,0.2c0.2,0.2,0.2,0.5,0,0.7C85.8,69.1,85.6,69.1,85.5,69.1 M85.2,68.4
		c-0.1,0.1-0.1,0.2,0,0.4c0.1,0.1,0.1,0.1,0.2,0.1c0.1,0,0.2,0,0.2-0.1c0.1-0.1,0.1-0.2,0-0.4c-0.1-0.1-0.2-0.1-0.2-0.2
		C85.4,68.3,85.3,68.3,85.2,68.4"/>
	<path id="XMLID_237_" class="st7" d="M90.1,72.3c-0.3,0.3-2-1.7-1.6-1.8C88.6,70.5,90.3,72.1,90.1,72.3"/>
	<path id="XMLID_234_" class="st7" d="M90,72.5c-0.1,0-0.1,0-0.2-0.1c-0.5-0.2-1.5-1.4-1.5-1.8c0-0.1,0.1-0.2,0.2-0.2
		c0.3,0,1.5,1.4,1.7,1.7c0.1,0.1,0.1,0.2,0,0.3C90.1,72.4,90.1,72.5,90,72.5 M88.6,70.7c0.1,0.2,0.3,0.6,0.7,0.9
		c0.3,0.3,0.5,0.5,0.6,0.5C89.8,71.9,88.9,71,88.6,70.7"/>
	<path id="XMLID_233_" class="st7" d="M91.4,71.9c-0.2,0.3-1.9-1.7-1.6-1.8C90.2,70,91.6,71.7,91.4,71.9"/>
	<path id="XMLID_230_" class="st7" d="M91.3,72.1c0,0-0.1,0-0.1,0c-0.4-0.1-1.6-1.4-1.6-1.8c0-0.1,0.1-0.2,0.1-0.2
		c0.4-0.2,1.3,1,1.3,1c0.5,0.7,0.4,0.9,0.4,0.9C91.5,72,91.4,72.1,91.3,72.1 M89.9,70.2c0,0.1,0.2,0.5,0.6,0.9
		c0.4,0.4,0.6,0.6,0.7,0.6c0-0.2-0.4-0.7-0.9-1.2C90.1,70.3,90,70.2,89.9,70.2"/>
	<path id="XMLID_229_" class="st7" d="M90,66.1c-0.3-0.1-0.8,0.2-0.7,0.5c0.1,0.3,0.8,0.5,1,0.3C90.5,66.7,90.3,66.2,90,66.1"/>
	<path id="XMLID_226_" class="st7" d="M90,67.1c-0.1,0-0.1,0-0.2,0c-0.2-0.1-0.5-0.2-0.6-0.4c-0.1-0.1,0-0.3,0.1-0.4
		c0.2-0.2,0.5-0.3,0.7-0.2c0.2,0.1,0.4,0.3,0.4,0.5c0,0.2,0,0.3-0.1,0.4C90.3,67,90.2,67.1,90,67.1 M89.8,66.2
		c-0.1,0-0.3,0.1-0.3,0.1c-0.1,0.1-0.1,0.1-0.1,0.2c0,0.1,0.2,0.2,0.4,0.3c0.2,0,0.3,0,0.3,0c0.1-0.1,0-0.1,0-0.2
		C90.2,66.4,90.1,66.3,89.8,66.2C89.9,66.2,89.9,66.2,89.8,66.2"/>
	<path id="XMLID_225_" class="st7" d="M84.6,74.4c0.2-0.1,1.6,1.5,1.2,1.6C85.3,76,84.6,75.4,84.6,74.4"/>
	<path id="XMLID_222_" class="st7" d="M85.8,76.1L85.8,76.1c-0.3,0-0.6-0.2-0.9-0.4c-0.3-0.3-0.5-0.8-0.5-1.3l0-0.1l0.1,0
		c0.1,0,0.2,0,0.2,0.1c0.3,0.2,1.3,1.2,1.2,1.6C86,76,85.9,76.1,85.8,76.1L85.8,76.1z M84.7,74.6c0,0.4,0.2,0.7,0.4,1
		c0.2,0.2,0.4,0.3,0.6,0.3C85.7,75.6,85,74.8,84.7,74.6"/>
	<path id="XMLID_221_" class="st7" d="M83.4,76.1c0.4-0.3,1.1,1.3,0.8,1.4C83.9,77.4,83.5,77.1,83.4,76.1"/>
	<path id="XMLID_218_" class="st7" d="M84.2,77.7L84.2,77.7c-0.5-0.2-0.8-0.7-0.9-1.5l0-0.1l0.1,0c0.1-0.1,0.2-0.1,0.4,0
		c0.4,0.2,0.7,0.9,0.7,1.3C84.4,77.6,84.3,77.6,84.2,77.7L84.2,77.7z M83.6,76.2c0.1,0.6,0.3,1,0.6,1.2c0,0,0-0.1,0-0.1
		C84.2,76.9,83.8,76.3,83.6,76.2C83.6,76.2,83.6,76.2,83.6,76.2"/>
	<path id="XMLID_217_" class="st7" d="M86.8,75.7c0.6,0.4,1.5,1.4,1.2,1.8C87.7,77.6,86.9,76.4,86.8,75.7"/>
	<path id="XMLID_214_" class="st7" d="M88,77.6c-0.1,0-0.1,0-0.2-0.1c-0.4-0.2-1-1.3-1.1-1.8l-0.1-0.3l0.2,0.2
		c0.5,0.3,1.6,1.4,1.3,2l0,0L88,77.6C88,77.6,88,77.6,88,77.6 M87,76c0.2,0.5,0.6,1.2,0.9,1.3c0,0,0,0,0.1,0
		C88,77.1,87.5,76.5,87,76"/>
	<path id="XMLID_213_" class="st7" d="M86.4,79.3c-0.4,0.6,1.3,1.9,1.8,1.3C87.5,80.5,86.9,79.9,86.4,79.3"/>
	<path id="XMLID_210_" class="st7" d="M87.9,80.9c-0.3,0-0.7-0.2-1.1-0.5c-0.5-0.4-0.7-0.9-0.5-1.2l0.1-0.1l0.2,0.2
		c0.5,0.5,1,1.1,1.7,1.2l0.2,0.1l-0.1,0.1C88.2,80.9,88,80.9,87.9,80.9 M86.5,79.6c0,0.2,0.2,0.5,0.5,0.7c0.3,0.2,0.7,0.4,0.9,0.4
		C87.3,80.5,86.9,80,86.5,79.6"/>
	<path id="XMLID_209_" class="st7" d="M85.2,80.2c0,0,1.8,1.1,1.6,1.3C86.5,81.7,85.1,80.3,85.2,80.2"/>
	<path id="XMLID_206_" class="st7" d="M86.7,81.6c-0.2,0-0.4-0.1-0.5-0.3c-0.2-0.2-0.5-0.4-0.7-0.6c-0.1-0.1-0.2-0.2-0.3-0.3
		c-0.1-0.1-0.2-0.2-0.1-0.3c0.2-0.2,1.6,1,1.6,1c0.1,0.1,0.3,0.3,0.2,0.5C86.8,81.6,86.8,81.6,86.7,81.6 M85.9,80.8
		c0.3,0.2,0.6,0.5,0.7,0.6C86.5,81.2,86.2,81,85.9,80.8"/>
	<path id="XMLID_205_" class="st7" d="M85.8,84.8c0.1-0.4,1,1.6,0.9,1.8C86.5,86.9,85.8,84.9,85.8,84.8"/>
	<path id="XMLID_202_" class="st7" d="M86.6,86.8C86.6,86.8,86.6,86.8,86.6,86.8c-0.3-0.1-1-1.9-0.9-2c0-0.1,0.1-0.1,0.1-0.1
		c0.1,0,0.2,0.1,0.3,0.2c0.3,0.3,0.8,1.7,0.7,1.9C86.7,86.7,86.7,86.8,86.6,86.8 M86.1,85.3c0.1,0.3,0.3,0.6,0.4,0.9
		C86.4,85.9,86.2,85.6,86.1,85.3"/>
	<path id="XMLID_201_" class="st7" d="M82.3,78c-0.6,1.6,0.2,3.5,1.3,3.7c0.2-0.2-0.7-0.6-1-1.7C82.4,79,82.5,77.9,82.3,78"/>
	<path id="XMLID_198_" class="st7" d="M83.7,81.8L83.7,81.8c-0.5-0.1-0.9-0.5-1.2-1c-0.5-0.9-0.6-1.9-0.2-2.9l0-0.1l0.1,0
		c0,0,0.1,0,0.1,0c0.1,0.1,0.1,0.3,0.2,0.8c0,0.4,0.1,0.8,0.1,1.2c0.1,0.7,0.5,1,0.7,1.3C83.7,81.4,83.8,81.5,83.7,81.8L83.7,81.8z
		 M82.3,78.4c-0.2,0.9,0,1.7,0.3,2.2c0.2,0.4,0.4,0.6,0.7,0.8c0,0,0,0-0.1-0.1c-0.2-0.3-0.7-0.7-0.8-1.4c-0.1-0.4-0.1-0.9-0.1-1.3
		C82.3,78.6,82.3,78.5,82.3,78.4"/>
	<path id="XMLID_197_" class="st7" d="M87.4,87.2c0.1-0.2,0.7,1.1,0.8,1.7c0.1,0.5-0.5,0.6-0.6,0.4C87.6,88.8,87.3,87.3,87.4,87.2"
		/>
	<path id="XMLID_194_" class="st7" d="M87.8,89.5c0,0-0.1,0-0.1,0c-0.1,0-0.1-0.1-0.1-0.2c0-0.1,0-0.2-0.1-0.3
		c-0.2-1.5-0.2-1.7-0.2-1.8l0,0c0,0,0.1-0.1,0.2-0.1c0.3,0.1,0.8,1.4,0.9,1.8c0,0.2,0,0.4-0.2,0.5C88.1,89.4,87.9,89.5,87.8,89.5
		 M87.8,89.2c0,0,0.1,0,0.2-0.1c0.1,0,0.1-0.1,0.1-0.3c-0.1-0.4-0.4-1.1-0.6-1.4c0,0.4,0.1,1.1,0.2,1.4C87.7,89,87.8,89.1,87.8,89.2
		"/>
	<path id="XMLID_193_" class="st7" d="M91.8,79.1c0.7,0.8,1.3,0.4,1.6,0c1-1,1.9,0,1.2,0.7l-1,1c-0.4,0.4-1.5,0.4-1.8,0l-1.1-1.1
		C90.1,78.9,90.9,78.2,91.8,79.1"/>
	<path id="XMLID_190_" class="st7" d="M92.6,81.2C92.6,81.2,92.5,81.2,92.6,81.2c-0.3,0-0.7-0.1-0.9-0.3l-1.1-1.1
		c-0.3-0.5-0.2-0.9,0-1.1c0.3-0.2,0.8-0.3,1.3,0.2l0,0c0.2,0.3,0.5,0.4,0.7,0.4c0.3,0,0.5-0.3,0.6-0.4c0.6-0.6,1.1-0.6,1.4-0.3
		c0.3,0.3,0.4,0.7,0,1.2l-1,1C93.5,81.1,93,81.2,92.6,81.2 M91,78.8c-0.1,0-0.2,0-0.3,0.1c-0.1,0.1-0.2,0.4,0,0.7l1.1,1.1
		c0.1,0.1,0.4,0.2,0.7,0.2c0.4,0,0.8-0.1,1-0.3l1-1c0.3-0.3,0.2-0.6,0-0.8c-0.2-0.2-0.6-0.2-1.1,0.2c-0.1,0.2-0.4,0.5-0.8,0.5
		c-0.3,0-0.6-0.1-0.9-0.5C91.5,78.9,91.2,78.8,91,78.8"/>
	<path id="XMLID_189_" class="st7" d="M98.7,69.6c0.3-0.1,0.9,0.5,0.8,0.8c-0.1,0.3-1,0.6-1.1,0.4C98.1,70.5,98.4,69.7,98.7,69.6"/>
	<path id="XMLID_186_" class="st7" d="M98.5,70.9c-0.1,0-0.3,0-0.3-0.1c-0.1-0.2-0.1-0.5,0-0.6c0.1-0.2,0.2-0.6,0.5-0.7
		c0.2-0.1,0.4,0,0.6,0.3c0.2,0.2,0.4,0.5,0.3,0.7c-0.1,0.2-0.5,0.4-0.8,0.5C98.7,70.9,98.6,70.9,98.5,70.9 M98.7,69.7
		C98.7,69.7,98.7,69.7,98.7,69.7c-0.1,0-0.3,0.3-0.3,0.6c-0.1,0.2,0,0.4,0,0.4c0,0,0.1,0.1,0.3,0c0.3-0.1,0.6-0.2,0.6-0.3
		c0-0.1-0.1-0.3-0.2-0.5C98.9,69.8,98.8,69.7,98.7,69.7"/>
	<path id="XMLID_185_" class="st7" d="M100.3,71.5c0.3-0.1,0.9,0.3,0.8,0.6c-0.1,0.3-1,0.6-1.1,0.4C99.7,72.3,100,71.6,100.3,71.5"
		/>
	<path id="XMLID_182_" class="st7" d="M100.2,72.7c-0.1,0-0.3,0-0.3-0.1c-0.1-0.1-0.1-0.3-0.1-0.5c0.1-0.3,0.3-0.6,0.5-0.7
		c0.2-0.1,0.5,0.1,0.7,0.3c0.2,0.2,0.2,0.4,0.2,0.5c-0.1,0.2-0.5,0.4-0.8,0.5C100.3,72.6,100.3,72.7,100.2,72.7 M100.4,71.6
		C100.4,71.6,100.4,71.6,100.4,71.6c-0.2,0-0.3,0.3-0.4,0.6c0,0.1,0,0.2,0,0.2c0,0,0.1,0.1,0.3,0c0.3-0.1,0.6-0.2,0.6-0.3
		c0-0.1,0-0.2-0.1-0.3C100.7,71.7,100.5,71.6,100.4,71.6"/>
	<path id="XMLID_181_" class="st7" d="M94.7,67.8c0.3-0.1,1.1,0.4,1.1,0.7c-0.1,0.3-1.1,0.4-1.2,0.2C94.3,68.5,94.4,67.9,94.7,67.8"
		/>
	<path id="XMLID_178_" class="st7" d="M94.8,68.9c-0.2,0-0.4,0-0.4-0.1c-0.1-0.2-0.2-0.5-0.1-0.7c0.1-0.2,0.2-0.3,0.3-0.4
		c0.3-0.1,0.8,0.2,1,0.4c0.2,0.2,0.2,0.3,0.2,0.4c-0.1,0.2-0.4,0.3-0.6,0.4C95.2,68.9,95,68.9,94.8,68.9 M94.8,67.9
		C94.7,67.9,94.7,67.9,94.8,67.9L94.8,67.9c-0.1,0-0.2,0.1-0.2,0.2c-0.1,0.2,0,0.4,0,0.5c0,0.1,0.3,0.1,0.6,0
		c0.3-0.1,0.4-0.2,0.4-0.2c0,0,0-0.1-0.1-0.2C95.3,68.1,94.9,67.9,94.8,67.9"/>
	<path id="XMLID_177_" class="st7" d="M98.5,67.8c0.2,0.2,0.3,0.6,0.1,0.8c-0.2,0.2-0.6,0.2-0.8,0c-0.2-0.2-0.2-0.5,0-0.7
		C98,67.7,98.3,67.6,98.5,67.8"/>
	<path id="XMLID_174_" class="st7" d="M98.3,68.8c-0.2,0-0.4-0.1-0.5-0.2c-0.2-0.2-0.2-0.6,0-0.8c0.1-0.1,0.3-0.2,0.4-0.2
		c0.2,0,0.3,0,0.4,0.1l0,0c0.2,0.2,0.3,0.7,0.1,0.9C98.6,68.8,98.5,68.8,98.3,68.8C98.3,68.8,98.3,68.8,98.3,68.8 M98.3,67.8
		C98.2,67.8,98.2,67.8,98.3,67.8c-0.1,0-0.2,0.1-0.3,0.2c-0.1,0.2-0.1,0.4,0,0.5c0.1,0.1,0.2,0.1,0.4,0.1c0.1,0,0.2,0,0.2-0.1
		c0.1-0.2,0-0.5-0.1-0.6C98.4,67.8,98.3,67.8,98.3,67.8"/>
	<path id="XMLID_173_" class="st7" d="M100.3,68.3c0.2,0.2,0.2,0.4,0,0.6c-0.2,0.2-0.4,0.2-0.6,0.1c-0.2-0.2-0.2-0.3,0-0.5
		C99.8,68.2,100.1,68.1,100.3,68.3"/>
	<path id="XMLID_170_" class="st7" d="M99.9,69.1c-0.1,0-0.2,0-0.4-0.1c-0.2-0.2-0.3-0.5,0-0.7c0.2-0.3,0.6-0.3,0.8-0.1l0,0
		c0.2,0.2,0.2,0.4,0,0.7C100.3,69,100.1,69.1,99.9,69.1 M100,68.3c-0.1,0-0.2,0.1-0.3,0.1c-0.1,0.1-0.1,0.2,0,0.4
		c0.1,0.1,0.3,0.1,0.4-0.1c0.1-0.2,0.1-0.3,0-0.4C100.1,68.3,100.1,68.3,100,68.3"/>
	<path id="XMLID_169_" class="st7" d="M95.3,72.3c0.3,0.3,2-1.7,1.6-1.8C96.8,70.5,95.1,72.1,95.3,72.3"/>
	<path id="XMLID_166_" class="st7" d="M95.4,72.5c-0.1,0-0.1,0-0.1-0.1l0,0c-0.1-0.1,0-0.4,0.1-0.5c0.2-0.3,1.4-1.6,1.6-1.5
		c0.1,0,0.1,0.1,0.1,0.2c0,0.4-1,1.6-1.5,1.8C95.5,72.4,95.5,72.5,95.4,72.5 M96.8,70.7c-0.3,0.3-1.2,1.2-1.4,1.5
		c0.1,0,0.3-0.2,0.6-0.5C96.5,71.3,96.8,70.9,96.8,70.7"/>
	<path id="XMLID_165_" class="st7" d="M94,71.9c0.2,0.3,1.9-1.7,1.6-1.8C95.2,69.9,93.8,71.6,94,71.9"/>
	<path id="XMLID_162_" class="st7" d="M94.1,72c-0.1,0-0.1,0-0.2-0.1c0-0.1-0.2-0.2,0.4-0.9c0,0,0.9-1.2,1.3-1
		c0.1,0,0.1,0.1,0.1,0.2c0,0.4-1.1,1.7-1.6,1.8C94.1,72,94.1,72,94.1,72 M95.5,70.2c-0.1,0-0.2,0.1-0.5,0.4c-0.5,0.5-0.8,1-0.9,1.2
		c0.1,0,0.4-0.2,0.7-0.6C95.3,70.7,95.5,70.3,95.5,70.2"/>
	<path id="XMLID_161_" class="st7" d="M95.4,66.1c0.3-0.1,0.8,0.2,0.7,0.5c-0.1,0.3-0.8,0.5-1,0.3C94.9,66.6,95.2,66.2,95.4,66.1"/>
	<path id="XMLID_158_" class="st7" d="M95.4,67c-0.1,0-0.3,0-0.3-0.1c-0.1-0.1-0.1-0.2-0.1-0.4c0.1-0.2,0.2-0.5,0.4-0.5
		c0.2-0.1,0.5,0,0.7,0.2c0.1,0.1,0.2,0.3,0.1,0.4c-0.1,0.2-0.4,0.4-0.6,0.4C95.5,67,95.5,67,95.4,67 M95.5,66.2
		c-0.1,0-0.3,0.2-0.3,0.4c0,0,0,0.1,0,0.2c0,0,0.2,0.1,0.3,0c0.2,0,0.4-0.2,0.4-0.3c0-0.1,0-0.1-0.1-0.2
		C95.8,66.2,95.6,66.2,95.5,66.2"/>
	<path id="XMLID_157_" class="st7" d="M100.8,74.4c-0.2-0.1-1.6,1.5-1.2,1.6C100.1,76,100.9,75.4,100.8,74.4"/>
	<path id="XMLID_154_" class="st7" d="M99.6,76.1L99.6,76.1c-0.1,0-0.1-0.1-0.1-0.2c0-0.4,0.9-1.4,1.2-1.6c0.1-0.1,0.2-0.1,0.2-0.1
		l0.1,0l0,0.1C101,75.5,100.2,76.1,99.6,76.1L99.6,76.1z M100.7,74.6c-0.3,0.3-1,1-1,1.3C100.1,75.8,100.6,75.3,100.7,74.6"/>
	<path id="XMLID_153_" class="st7" d="M102,76.1c-0.4-0.3-1.1,1.3-0.8,1.4C101.5,77.4,101.9,77.1,102,76.1"/>
	<path id="XMLID_150_" class="st7" d="M101.2,77.7L101.2,77.7c-0.1,0-0.2-0.1-0.2-0.3c0-0.4,0.3-1.2,0.7-1.3c0.1-0.1,0.3-0.1,0.4,0
		l0.1,0l0,0.1C102,77,101.7,77.5,101.2,77.7L101.2,77.7z M101.8,76.2C101.8,76.2,101.8,76.2,101.8,76.2c-0.3,0.1-0.6,0.7-0.6,1.1
		c0,0.1,0,0.1,0,0.1C101.6,77.2,101.8,76.8,101.8,76.2"/>
	<path id="XMLID_149_" class="st7" d="M98.6,75.7c-0.6,0.4-1.5,1.4-1.2,1.8C97.7,77.6,98.5,76.4,98.6,75.7"/>
	<path id="XMLID_146_" class="st7" d="M97.4,77.6C97.4,77.6,97.4,77.6,97.4,77.6l-0.1,0l0,0c-0.3-0.5,0.8-1.6,1.3-2l0.3-0.2
		l-0.1,0.3c-0.1,0.6-0.7,1.6-1.1,1.8C97.5,77.6,97.5,77.6,97.4,77.6 M98.4,76.1c-0.5,0.4-1,1-0.9,1.3c0,0,0,0,0,0
		C97.7,77.2,98.2,76.6,98.4,76.1"/>
	<path id="XMLID_145_" class="st7" d="M99,79.3c0.4,0.6-1.3,1.9-1.8,1.3C98,80.5,98.5,79.9,99,79.3"/>
	<path id="XMLID_142_" class="st7" d="M97.6,80.9c-0.2,0-0.3-0.1-0.4-0.2L97,80.6l0.2-0.1c0.7-0.2,1.2-0.7,1.7-1.2l0.2-0.2l0.1,0.1
		c0.2,0.3,0,0.8-0.5,1.2C98.3,80.7,97.9,80.9,97.6,80.9 M97.5,80.7c0.3,0,0.6-0.2,0.9-0.4c0.3-0.2,0.5-0.5,0.5-0.7
		C98.6,80,98.1,80.5,97.5,80.7"/>
	<path id="XMLID_141_" class="st7" d="M100.2,80.2c0,0-1.8,1.1-1.6,1.3C98.9,81.7,100.3,80.3,100.2,80.2"/>
	<path id="XMLID_138_" class="st7" d="M98.7,81.6c-0.1,0-0.1,0-0.2-0.1c-0.1-0.2,0.1-0.4,0.2-0.5c0,0,1.4-1.2,1.6-1l0,0
		c0.1,0.2-0.7,0.9-0.9,1.1C99.1,81.5,98.9,81.6,98.7,81.6 M99.6,80.7c-0.3,0.2-0.6,0.5-0.8,0.6C99,81.2,99.3,81,99.6,80.7"/>
	<path id="XMLID_137_" class="st7" d="M99.6,84.8c-0.1-0.4-1,1.6-0.9,1.8C98.9,86.9,99.7,84.8,99.6,84.8"/>
	<path id="XMLID_134_" class="st7" d="M98.8,86.8c-0.1,0-0.1,0-0.1-0.1c-0.1-0.2,0.4-1.5,0.7-1.9c0.1-0.1,0.1-0.2,0.3-0.2
		c0,0,0.1,0,0.1,0.1C99.8,84.8,99.2,86.6,98.8,86.8C98.8,86.8,98.8,86.8,98.8,86.8 M99.4,85.2c-0.1,0.3-0.3,0.7-0.4,0.9
		C99.1,85.9,99.2,85.5,99.4,85.2"/>
	<path id="XMLID_133_" class="st7" d="M103.1,78c0.6,1.6-0.2,3.5-1.3,3.7c-0.2-0.2,0.7-0.6,1-1.7C103,79,102.9,77.9,103.1,78"/>
	<path id="XMLID_130_" class="st7" d="M101.8,81.8L101.8,81.8c-0.2-0.2,0-0.4,0.2-0.6c0.2-0.2,0.6-0.6,0.7-1.3
		c0.1-0.4,0.1-0.9,0.1-1.2c0-0.6,0.1-0.7,0.2-0.8c0,0,0.1,0,0.1,0l0,0l0,0c0.3,0.9,0.2,2-0.2,2.9C102.7,81.3,102.3,81.7,101.8,81.8
		L101.8,81.8z M103.1,78.4c0,0.1,0,0.2,0,0.3c0,0.4-0.1,0.8-0.1,1.3c-0.2,0.7-0.6,1.2-0.8,1.4c0,0,0,0-0.1,0.1
		c0.3-0.1,0.5-0.4,0.7-0.8C103.1,80.1,103.3,79.3,103.1,78.4"/>
	<path id="XMLID_129_" class="st7" d="M98,87.2c-0.1-0.2-0.7,1.1-0.8,1.7c-0.1,0.5,0.5,0.6,0.6,0.4C97.8,88.7,98.1,87.3,98,87.2"/>
	<path id="XMLID_126_" class="st7" d="M97.6,89.5c-0.1,0-0.3,0-0.4-0.1c-0.2-0.1-0.2-0.3-0.2-0.5c0.1-0.4,0.6-1.7,0.9-1.8
		c0.1,0,0.1,0,0.2,0.1c0.1,0.1,0,0.3-0.1,1.3c-0.1,0.3-0.1,0.7-0.1,0.8c0,0.1-0.1,0.1-0.1,0.2C97.7,89.5,97.7,89.5,97.6,89.5
		 M97.9,87.5c-0.2,0.3-0.5,1-0.6,1.4c0,0.2,0,0.2,0.1,0.3c0.1,0.1,0.2,0.1,0.2,0.1c0-0.2,0.1-0.5,0.1-0.8
		C97.8,88.1,97.9,87.7,97.9,87.5"/>
	<path id="XMLID_125_" class="st7" d="M95.7,81.5c0.1,0.1,0.1,0.2,0,0.4c-0.1,0.1-0.3,0.2-0.4,0c-0.1-0.1-0.1-0.2,0-0.4
		C95.4,81.4,95.6,81.4,95.7,81.5"/>
	<path id="XMLID_122_" class="st7" d="M95.5,82c-0.1,0-0.2,0-0.2-0.1c-0.2-0.2-0.1-0.3,0-0.5l0,0c0.2-0.1,0.4-0.2,0.5,0
		c0.1,0.1,0.1,0.1,0.1,0.2c0,0.1,0,0.2-0.1,0.3C95.8,81.9,95.7,82,95.5,82C95.6,82,95.5,82,95.5,82 M95.4,81.6
		c-0.1,0.1-0.1,0.2,0,0.2c0,0,0.1,0,0.2,0c0.1,0,0.1,0,0.1-0.1c0-0.1,0.1-0.1,0.1-0.2c0,0,0-0.1-0.1-0.1l0,0
		C95.6,81.5,95.5,81.5,95.4,81.6"/>
	<path id="XMLID_121_" class="st7" d="M96.3,79.3c0.1,0.1,0.1,0.2,0,0.4c-0.1,0.1-0.3,0.2-0.4,0c-0.1-0.1-0.1-0.2,0-0.4
		C96,79.2,96.2,79.1,96.3,79.3"/>
	<path id="XMLID_118_" class="st7" d="M96.1,79.8c-0.1,0-0.2,0-0.2-0.1c-0.2-0.2-0.1-0.3,0-0.5c0.1-0.1,0.2-0.2,0.3-0.2
		c0.1,0,0.2,0,0.3,0.1c0.1,0.1,0.2,0.2,0,0.5C96.3,79.8,96.2,79.8,96.1,79.8 M96.1,79.3C96.1,79.3,96.1,79.3,96.1,79.3
		c-0.1,0-0.1,0-0.2,0.1c-0.1,0.1-0.1,0.2,0,0.2c0.1,0.1,0.2,0.1,0.3,0c0.1-0.2,0-0.2,0-0.2l0,0C96.2,79.3,96.1,79.3,96.1,79.3"/>
	<path id="XMLID_117_" class="st7" d="M95.1,80.1c-0.2-0.2-0.7,0.5-0.5,0.6C94.8,80.7,95,80.5,95.1,80.1"/>
	<path id="XMLID_114_" class="st7" d="M94.6,80.7L94.6,80.7c0,0-0.1-0.1-0.1-0.2c0-0.2,0.3-0.5,0.5-0.6c0.1,0,0.1,0,0.2,0l0,0l0,0
		C95,80.5,94.9,80.7,94.6,80.7L94.6,80.7z M95,80.1c0,0-0.1,0.1-0.1,0.1c-0.2,0.1-0.3,0.4-0.3,0.4C94.8,80.6,94.9,80.4,95,80.1
		L95,80.1z"/>
	<path id="XMLID_113_" class="st7" d="M96.4,78.3c-0.2-0.2-0.7,0.3-0.6,0.4C96,78.6,96.3,78.7,96.4,78.3"/>
	<path id="XMLID_110_" class="st7" d="M95.8,78.7L95.8,78.7c-0.1,0-0.1-0.1-0.1-0.1c0-0.1,0.2-0.3,0.4-0.4c0.1,0,0.2,0,0.3,0l0,0
		l0,0c-0.1,0.4-0.4,0.4-0.5,0.4C95.9,78.7,95.9,78.7,95.8,78.7L95.8,78.7z M96.3,78.3c-0.1,0-0.1,0-0.2,0.1
		c-0.1,0.1-0.2,0.2-0.2,0.2c0,0,0,0,0.1,0C96.1,78.6,96.2,78.6,96.3,78.3C96.3,78.3,96.3,78.3,96.3,78.3"/>
	<path id="XMLID_109_" class="st7" d="M95.2,80.7c0.1-0.2,0.4-0.4,0.5-0.2c0.1,0.2-0.1,0.6-0.2,0.6C95.3,81.1,95.1,80.8,95.2,80.7"
		/>
	<path id="XMLID_106_" class="st7" d="M95.4,81.2c-0.1,0-0.2-0.1-0.3-0.2c-0.1-0.1-0.1-0.3-0.1-0.4c0.1-0.2,0.2-0.3,0.4-0.3
		c0.1,0,0.2,0,0.3,0.1c0.1,0.1,0.1,0.4,0,0.5C95.7,81.1,95.6,81.2,95.4,81.2C95.5,81.2,95.5,81.2,95.4,81.2 M95.5,80.5
		C95.5,80.5,95.5,80.5,95.5,80.5c-0.1,0-0.3,0.1-0.3,0.2l0,0c0,0.1,0,0.2,0.1,0.2c0,0.1,0.1,0.1,0.2,0.1c0,0,0.1,0,0.1-0.1
		C95.7,80.8,95.7,80.6,95.5,80.5C95.6,80.5,95.6,80.5,95.5,80.5"/>
	<path id="XMLID_105_" class="st7" d="M94.4,81.4c0.1-0.2,0.3-0.3,0.4-0.1c0.1,0.2,0,0.5-0.2,0.5C94.5,81.8,94.4,81.5,94.4,81.4"/>
	<path id="XMLID_102_" class="st7" d="M94.7,81.8c-0.1,0-0.2-0.1-0.2-0.1c-0.1-0.1-0.1-0.2-0.1-0.3c0-0.1,0.2-0.2,0.3-0.2
		c0.1,0,0.2,0,0.2,0.1c0.1,0.1,0,0.3,0,0.4C94.9,81.7,94.8,81.8,94.7,81.8L94.7,81.8z M94.7,81.2C94.7,81.2,94.7,81.2,94.7,81.2
		c-0.1,0-0.2,0.1-0.2,0.1c0,0.1,0,0.1,0.1,0.2c0,0.1,0.1,0.1,0.1,0.1c0,0,0.1,0,0.1-0.1C94.8,81.5,94.8,81.3,94.7,81.2
		C94.8,81.3,94.8,81.2,94.7,81.2"/>
	<path id="XMLID_101_" class="st7" d="M96.8,78.7c0.1-0.1,0.3-0.2,0.4-0.1c0.1,0.1,0,0.4-0.2,0.4C96.9,79,96.8,78.8,96.8,78.7"/>
	<path id="XMLID_98_" class="st7" d="M97,79.1c-0.1,0-0.2,0-0.2-0.1c-0.1-0.1-0.1-0.2,0-0.3l0,0c0-0.1,0.2-0.2,0.3-0.2
		c0.1,0,0.1,0,0.2,0.1c0.1,0.1,0,0.3,0,0.4C97.1,79,97.1,79.1,97,79.1 M96.9,78.7c0,0.1,0,0.1,0,0.2c0,0,0.1,0.1,0.1,0.1
		c0,0,0,0,0.1-0.1c0-0.1,0.1-0.2,0-0.3c0,0,0,0-0.1,0C97,78.6,96.9,78.7,96.9,78.7"/>
	<path id="XMLID_97_" class="st7" d="M97,79.5c0.1,0.2,0.1,0.5-0.1,0.5s-0.5-0.3-0.4-0.5C96.5,79.3,96.9,79.3,97,79.5"/>
	<path id="XMLID_94_" class="st7" d="M96.8,80c-0.2,0-0.3-0.1-0.4-0.3c-0.1-0.1-0.1-0.2-0.1-0.3c0-0.1,0.1-0.1,0.3-0.2
		c0.2,0,0.3,0,0.4,0.1c0.1,0.1,0.1,0.3,0,0.4C97,80,96.9,80,96.8,80 M96.7,79.4C96.7,79.4,96.7,79.4,96.7,79.4c-0.1,0-0.2,0-0.2,0.1
		c0,0,0,0.1,0,0.2c0.1,0.2,0.3,0.3,0.4,0.1c0-0.1,0-0.2,0-0.3l0,0C96.9,79.5,96.8,79.4,96.7,79.4"/>
	<path id="XMLID_93_" class="st7" d="M96.4,80.3c-0.2-0.1-0.6,0.5-0.4,0.5C96.1,80.7,96.4,80.7,96.4,80.3"/>
	<path id="XMLID_90_" class="st7" d="M96,80.9L96,80.9c-0.1,0-0.1-0.1-0.1-0.1c0-0.1,0.1-0.4,0.3-0.5c0.1-0.1,0.2-0.1,0.3,0l0,0v0
		c0,0.4-0.2,0.5-0.3,0.5C96.1,80.8,96,80.8,96,80.9L96,80.9z M96.3,80.3C96.3,80.3,96.2,80.3,96.3,80.3c-0.2,0.1-0.3,0.3-0.3,0.4
		c0,0,0.1,0,0.1,0C96.2,80.6,96.3,80.6,96.3,80.3L96.3,80.3z"/>
	<path id="XMLID_89_" class="st7" d="M95.6,77.3c-0.3-0.4-1.6,0.6-1.5,1C94.3,78.4,95.7,77.6,95.6,77.3"/>
	<path id="XMLID_86_" class="st7" d="M94.2,78.4c-0.1,0-0.1,0-0.2-0.1l0,0l0,0c-0.1-0.3,0.5-0.8,0.9-1c0.4-0.2,0.7-0.2,0.8-0.1l0,0
		c0.1,0.3-0.3,0.6-0.6,0.8C95,78,94.5,78.4,94.2,78.4 M95.4,77.3c-0.1,0-0.2,0-0.4,0.1c-0.4,0.2-0.7,0.5-0.8,0.7
		c0.2,0,0.8-0.3,1.1-0.6C95.4,77.4,95.4,77.3,95.4,77.3C95.4,77.3,95.4,77.3,95.4,77.3"/>
	<path id="XMLID_85_" class="st7" d="M94.8,76.3c-0.4-0.3-1.2,0.9-1.2,1.3C94,77.4,95,76.6,94.8,76.3"/>
	<path id="XMLID_82_" class="st7" d="M93.4,77.8l0-0.2c0-0.3,0.5-1.2,1-1.4c0.2-0.1,0.3-0.1,0.4,0l0,0c0,0.1,0.1,0.2,0,0.3
		c-0.1,0.4-0.9,1.1-1.3,1.2L93.4,77.8z M94.6,76.4c0,0-0.1,0-0.1,0c-0.3,0.1-0.6,0.6-0.8,0.9C94.1,77.1,94.6,76.7,94.6,76.4
		C94.7,76.4,94.7,76.4,94.6,76.4C94.7,76.4,94.7,76.4,94.6,76.4"/>
	<path id="XMLID_81_" class="st7" d="M93.5,75.8c-0.3,0-0.3,1-0.1,1.1C93.7,76.9,93.8,75.9,93.5,75.8"/>
	<path id="XMLID_78_" class="st7" d="M93.4,77L93.4,77c-0.3-0.1-0.3-0.6-0.2-0.9c0.1-0.3,0.2-0.4,0.3-0.4l0,0l0,0
		c0.3,0.1,0.3,0.5,0.3,0.7C93.8,76.7,93.7,77,93.4,77L93.4,77z M93.5,75.9c0,0-0.1,0.1-0.1,0.2c0,0.2,0,0.5,0.1,0.6
		c0,0,0.1-0.2,0.1-0.3C93.6,76.2,93.5,76,93.5,75.9"/>
	<path id="XMLID_77_" class="st7" d="M93.8,73.8c-0.4,0-0.9,1.3-0.1,1.4C93.9,75.2,93.9,74,93.8,73.8"/>
	<path id="XMLID_74_" class="st7" d="M93.7,75.4L93.7,75.4c-0.4-0.1-0.6-0.4-0.6-0.8c0-0.4,0.3-0.9,0.6-0.9h0.1l0,0.1
		c0.1,0.2,0.1,1.2,0,1.5C93.9,75.3,93.8,75.4,93.7,75.4L93.7,75.4z M93.7,74c-0.1,0.1-0.3,0.3-0.3,0.6c0,0.2,0,0.4,0.2,0.5
		C93.7,74.9,93.7,74.3,93.7,74"/>
	<path id="XMLID_73_" class="st27" d="M85.3,73.9c0-0.3,3-0.6,4.2,0.3c1.3,1.3-0.5,2.1-1.4,1.7c-0.3-0.1-0.6-0.4-1.2-0.9
		C86.2,74.4,85.1,74.1,85.3,73.9"/>
	<path id="XMLID_72_" class="st7" d="M85.5,73.5c0-0.3,3-0.6,4.2,0.3c1.3,1.3-0.5,2.1-1.4,1.7c-0.3-0.1-0.6-0.4-1.2-0.9
		C86.4,74.1,85.3,73.7,85.5,73.5"/>
	<path id="XMLID_69_" class="st7" d="M88.8,75.7c-0.2,0-0.4,0-0.5-0.1c-0.3-0.1-0.6-0.4-1-0.7l-0.2-0.2c-0.3-0.3-0.8-0.5-1.1-0.7
		c-0.4-0.2-0.6-0.3-0.6-0.5c0,0,0-0.1,0-0.1c0,0,0.1-0.1,0.1-0.1c0.5-0.3,3.1-0.4,4.2,0.4c0.7,0.7,0.5,1.2,0.4,1.4
		C89.8,75.5,89.3,75.7,88.8,75.7 M85.6,73.6c0.1,0.1,0.3,0.2,0.5,0.3c0.3,0.2,0.8,0.4,1.1,0.7l0.2,0.2c0.4,0.3,0.7,0.6,0.9,0.7
		c0.5,0.2,1.3,0,1.5-0.4c0.3-0.4,0-0.8-0.3-1.1C88.5,73.1,86,73.4,85.6,73.6L85.6,73.6z"/>
	<path id="XMLID_68_" class="st7" d="M88.7,73.7c0.5,0,0.9,0.4,0.9,0.9c0,0.5-0.4,0.9-0.9,0.9c-0.5,0-0.9-0.4-0.9-0.9
		C87.8,74.1,88.2,73.7,88.7,73.7"/>
	<path id="XMLID_65_" class="st28" d="M88.7,75.6c-0.6,0-1.1-0.5-1.1-1s0.5-1,1.1-1c0.6,0,1.1,0.5,1.1,1S89.3,75.6,88.7,75.6
		 M88.7,73.9c-0.4,0-0.7,0.3-0.7,0.7s0.3,0.7,0.7,0.7c0.4,0,0.7-0.3,0.7-0.7S89.1,73.9,88.7,73.9"/>
	<path id="XMLID_64_" class="st27" d="M100,73.9c0-0.3-3-0.6-4.2,0.3c-1.3,1.3,0.5,2.1,1.4,1.7c0.3-0.1,0.6-0.4,1.2-0.9
		C99.2,74.4,100.2,74.1,100,73.9"/>
	<path id="XMLID_63_" class="st7" d="M99.9,73.5c0-0.3-3-0.6-4.2,0.3c-1.3,1.3,0.5,2.1,1.4,1.7c0.3-0.1,0.6-0.4,1.2-0.9
		C99,74,100.1,73.7,99.9,73.5"/>
	<path id="XMLID_60_" class="st7" d="M96.6,75.7c-0.5,0-1.1-0.2-1.3-0.6c-0.2-0.2-0.3-0.7,0.3-1.4c1.1-0.8,3.7-0.6,4.2-0.4
		c0.1,0,0.1,0.1,0.1,0.1c0,0,0,0.1,0,0.1c0,0.2-0.2,0.3-0.6,0.5c-0.3,0.2-0.8,0.4-1.1,0.7l-0.2,0.2c-0.4,0.3-0.7,0.6-1,0.7
		C97,75.7,96.8,75.7,96.6,75.7 M98.2,73.4c-0.8,0-1.8,0.1-2.4,0.5c-0.3,0.3-0.6,0.7-0.3,1.1c0.3,0.4,1.1,0.6,1.5,0.4
		c0.2-0.1,0.5-0.3,0.9-0.7l0.2-0.2c0.4-0.3,0.8-0.5,1.1-0.7c0.2-0.1,0.4-0.2,0.5-0.3v0C99.6,73.5,99,73.4,98.2,73.4"/>
	<path id="XMLID_59_" class="st7" d="M96.8,73.7c0.5,0,0.9,0.4,0.9,0.9c0,0.5-0.4,0.9-0.9,0.9c-0.5,0-0.9-0.4-0.9-0.9
		C95.9,74.1,96.3,73.7,96.8,73.7"/>
	<path id="XMLID_56_" class="st28" d="M96.8,75.6c-0.6,0-1.1-0.5-1.1-1s0.5-1,1.1-1c0.6,0,1.1,0.5,1.1,1S97.3,75.6,96.8,75.6
		 M96.8,73.9c-0.4,0-0.7,0.3-0.7,0.7s0.3,0.7,0.7,0.7c0.4,0,0.7-0.3,0.7-0.7S97.1,73.9,96.8,73.9"/>
	<path id="XMLID_55_" class="st29" d="M93,90.1c0.4,0.1,0.7,0.2,1,0.4c2.1,1,2.6-1.2,2.8-4.1c0.4-2.6,2-2.9,1.9-3.4
		c-0.1-0.2-1.3,0.1-1.9,0.2c-2.2,0.4-3-0.2-3.8-0.7c-0.8,0.5-1.6,1.1-3.8,0.7c-0.6-0.1-1.8-0.4-1.9-0.2c-0.1,0.5,1.5,0.8,1.9,3.4
		c0.2,2.8,0.7,5.1,2.8,4.1C92.2,90.2,92.6,90.1,93,90.1"/>
	<path id="XMLID_52_" class="st30" d="M90.9,90.9c-0.3,0-0.5-0.1-0.7-0.2c-1-0.6-1.2-2.4-1.3-4.3c-0.2-1.6-1-2.3-1.5-2.7
		c-0.3-0.2-0.5-0.4-0.4-0.7l0-0.1c0.1-0.2,0.4-0.2,1.7,0.1c0.1,0,0.3,0,0.4,0.1c2.1,0.4,2.9-0.1,3.6-0.6l0.2-0.1l0.2,0.1
		c0.8,0.5,1.5,1,3.6,0.6c0.1,0,0.2,0,0.4-0.1c1.3-0.2,1.6-0.2,1.7-0.1l0,0.1c0.1,0.3-0.1,0.5-0.4,0.7c-0.5,0.4-1.2,1.1-1.5,2.7
		c-0.1,1.9-0.4,3.7-1.3,4.3c-0.5,0.3-1,0.2-1.7-0.1c-0.4-0.2-0.6-0.4-0.9-0.4c-0.4,0-0.6,0.1-1,0.4l0,0
		C91.6,90.9,91.2,90.9,90.9,90.9 M87.4,83.2c0.1,0.1,0.2,0.2,0.3,0.2c0.5,0.4,1.3,1.2,1.6,3c0.1,1.6,0.3,3.5,1.2,4
		c0.3,0.2,0.8,0.2,1.3-0.1c0.4-0.3,0.8-0.4,1.2-0.5l0,0l0,0c0.4,0.1,0.7,0.2,1.1,0.5c0.6,0.3,1,0.3,1.3,0.1c0.8-0.5,1-2.3,1.2-4
		c0.2-1.8,1.1-2.5,1.6-3c0.1-0.1,0.2-0.2,0.3-0.2c-0.3,0-1,0.1-1.3,0.2c-0.1,0-0.3,0-0.4,0.1c-2.2,0.4-3.1-0.1-3.9-0.6
		c-0.8,0.5-1.6,1-3.9,0.7c-0.1,0-0.2,0-0.4-0.1C88.4,83.3,87.7,83.2,87.4,83.2"/>
	<path id="XMLID_51_" class="st31" d="M93.1,88.6c0.2,0,0.3,0.1,0.4,0.2c0.9,0.5,1.3-0.5,1.4-1.8c0-1.6,0.7-2.8,0.6-3.1
		c-0.1-0.1-0.6,0-0.9,0.1c-1,0.2-1.3-0.1-1.7-0.3c-0.4,0.2-0.7,0.5-1.7,0.3c-0.3-0.1-0.9-0.1-1-0.1c0,0.1,0.9,1.1,0.9,3.1
		c0.1,1.2,0.4,2.1,1.4,1.7C92.8,88.7,93,88.6,93.1,88.6"/>
	<path id="XMLID_48_" class="st32" d="M92.1,89c-0.1,0-0.2,0-0.3-0.1c-0.4-0.2-0.6-0.8-0.6-1.7c0-1.5-0.5-2.5-0.7-2.9
		c-0.1-0.2-0.1-0.2-0.1-0.3l0,0c0.1-0.1,1,0,1,0.1c0.9,0.2,1.3-0.1,1.6-0.3l0.1,0l0.1,0c0.3,0.2,0.7,0.4,1.6,0.3l0.1,0
		c0.6-0.1,0.8-0.1,0.8-0.1c0,0.1,0,0.2-0.1,0.6C95.3,85.1,95,86,95,87c-0.1,1-0.3,1.6-0.7,1.8c-0.2,0.1-0.5,0.1-0.8,0
		c-0.1-0.1-0.2-0.1-0.4-0.2c-0.2,0-0.3,0.1-0.5,0.2C92.4,88.9,92.3,89,92.1,89 M90.4,84c0,0,0.1,0.1,0.1,0.2
		c0.2,0.4,0.8,1.4,0.8,2.9c0.1,0.9,0.3,1.5,0.6,1.7c0.2,0.1,0.4,0.1,0.7,0c0.2-0.1,0.4-0.2,0.6-0.2l0,0l0,0c0.2,0,0.3,0.1,0.5,0.2
		c0.3,0.1,0.5,0.1,0.7,0c0.3-0.2,0.5-0.8,0.6-1.8c0-1,0.3-2,0.5-2.5c0.1-0.2,0.1-0.4,0.1-0.5c-0.1,0-0.5,0.1-0.7,0.1l-0.1,0
		c-1,0.2-1.3-0.1-1.7-0.3l0,0l0,0c-0.4,0.2-0.7,0.5-1.7,0.3C91.1,84.1,90.6,84,90.4,84"/>
	<path id="XMLID_47_" class="st33" d="M93.1,84.1c-0.7,0.5-1.6,0.2-2.3,0.2c0.7,1.1,0.7,2.4,0.8,3.7c0,0.5,0.6,1,1,0.6
		c0.5-0.4,0.9,0.1,1.4,0.2c0.7-0.4,0.6-1.4,0.7-2.1c0-0.8,0.4-1.7,0.6-2.4C94.5,84.4,93.7,84.5,93.1,84.1"/>
	<path id="XMLID_44_" class="st34" d="M93.4,84.7c0,1-0.1,2.1-0.1,3.2c0.1,0,0.2,0.1,0.3,0.1c0.3,0.2,0.6,0.2,0.6-0.2
		c0.2-1,0.1-2.1,0.5-3C94.2,84.9,93.8,84.8,93.4,84.7 M92.7,84.8c-0.4,0.1-0.8,0.1-1.2,0.1c0.4,1.1,0.3,2.3,0.6,3.4
		c0.2-0.1,0.4-0.2,0.6-0.3C92.8,86.9,92.8,85.8,92.7,84.8"/>
	<path id="XMLID_43_" class="st14" d="M91.7,83.8c-0.1-0.2,0.4-0.4,0.5-0.2c0.1,0.2,0.1,0.8,0.1,0.8S91.8,84,91.7,83.8"/>
	<path id="XMLID_40_" class="st29" d="M92.4,84.6l-0.2-0.1c0,0-0.5-0.4-0.6-0.6c0-0.1,0-0.1,0-0.2c0-0.1,0.1-0.1,0.1-0.1
		c0.2-0.1,0.4-0.1,0.5,0c0.1,0.2,0.1,0.8,0.1,0.9L92.4,84.6z M92,83.6L92,83.6c0,0-0.1,0-0.2,0c0,0-0.1,0-0.1,0.1l0,0l0,0
		c0.1,0.1,0.2,0.3,0.4,0.4C92.2,84,92.1,83.8,92,83.6C92.1,83.6,92,83.6,92,83.6"/>
	<path id="XMLID_39_" class="st14" d="M93.8,83.7c0.1-0.2-0.4-0.4-0.5-0.2c-0.1,0.2-0.1,0.8-0.1,0.8S93.8,83.9,93.8,83.7"/>
	<path id="XMLID_36_" class="st29" d="M93.2,84.6l0-0.2c0-0.1,0-0.6,0.1-0.9c0-0.1,0.1-0.1,0.2-0.1h0c0.2,0,0.3,0.1,0.4,0.2
		c0,0.1,0,0.1,0,0.2c-0.1,0.2-0.5,0.6-0.6,0.6L93.2,84.6z M93.5,83.6C93.5,83.6,93.5,83.6,93.5,83.6c-0.1,0.1-0.1,0.4-0.1,0.6
		c0.2-0.2,0.3-0.3,0.4-0.4l0,0c0,0,0,0,0,0C93.7,83.6,93.6,83.6,93.5,83.6"/>
	<path id="XMLID_35_" class="st12" d="M95.7,84.1c0.1-0.6,0.6-0.5,0.9-0.6c0.4,0.4-0.4,2.2-0.8,2.1L95.7,84.1z"/>
	<path id="XMLID_32_" class="st29" d="M95.8,85.7C95.8,85.7,95.8,85.7,95.8,85.7l-0.1,0l-0.1-1.6l0,0c0.1-0.5,0.4-0.6,0.7-0.6
		c0.1,0,0.2,0,0.3-0.1l0.1,0l0,0.1c0.3,0.3,0,1.1-0.2,1.6C96.3,85.3,96.1,85.7,95.8,85.7 M95.8,84.1l0.1,1.4
		c0.1-0.1,0.3-0.2,0.4-0.5c0.3-0.5,0.4-1.1,0.3-1.3c-0.1,0-0.2,0-0.2,0C96.1,83.7,95.9,83.7,95.8,84.1"/>
	<path id="XMLID_31_" class="st14" d="M96.4,83.8c-0.6,0-0.5,0.6-0.5,1.4C96.2,84.8,96.5,84.1,96.4,83.8"/>
	<path id="XMLID_30_" class="st12" d="M89.6,84c-0.1-0.6-0.6-0.5-0.9-0.6c-0.4,0.4,0.4,2.2,0.8,2.1L89.6,84z"/>
	<path id="XMLID_27_" class="st29" d="M89.5,85.6c-0.3,0-0.5-0.4-0.7-0.7c-0.2-0.5-0.5-1.3-0.2-1.6l0-0.1l0.1,0c0.1,0,0.2,0,0.3,0.1
		c0.3,0,0.6,0.1,0.7,0.6l0,0l-0.1,1.6L89.5,85.6C89.5,85.6,89.5,85.6,89.5,85.6 M88.7,83.5c-0.1,0.2,0,0.8,0.3,1.3
		c0.2,0.3,0.3,0.5,0.4,0.5l0.1-1.4c-0.1-0.4-0.3-0.4-0.5-0.4C88.9,83.5,88.8,83.5,88.7,83.5"/>
	<path id="XMLID_26_" class="st14" d="M88.8,83.7c0,0.5,0.2,1,0.5,1.4C89.3,84.6,89.6,83.6,88.8,83.7L88.8,83.7L88.8,83.7z"/>
	<path id="XMLID_25_" class="st12" d="M90.4,89.6c0,0.8,1.4,0.6,1.5,0c0.1-0.9-0.5-1.5-0.4-2.3C91,87.8,90.4,88.4,90.4,89.6"/>
	<path id="XMLID_22_" class="st29" d="M91,90.2C91,90.2,91,90.2,91,90.2c-0.5,0-0.7-0.3-0.7-0.6v0c0-1.1,0.6-1.7,1.1-2.3l0.3-0.3
		l0,0.3c-0.1,0.4,0.1,0.8,0.2,1.2c0.1,0.4,0.2,0.7,0.2,1.2C91.9,90,91.5,90.2,91,90.2 M90.5,89.6c0,0.3,0.3,0.4,0.5,0.4
		c0.4,0,0.8-0.2,0.8-0.4c0-0.4-0.1-0.7-0.2-1.1c-0.1-0.3-0.2-0.6-0.2-1C90.9,88.1,90.5,88.6,90.5,89.6"/>
	<path id="XMLID_21_" class="st14" d="M91.2,88c-0.4,0.5-0.8,1.2-0.5,1.8c0.4,0.3,1.2,0,0.9-0.6c-0.1-0.5-0.3-0.9-0.3-1.3L91.2,88z"
		/>
	<path id="XMLID_20_" class="st12" d="M95.4,89.5c0,0.8-1.4,0.6-1.5,0c-0.1-0.9,0.5-1.5,0.4-2.3C94.7,87.7,95.3,88.3,95.4,89.5"/>
	<path id="XMLID_17_" class="st29" d="M94.7,90.1c-0.4,0-0.9-0.2-1-0.6c0-0.4,0.1-0.8,0.2-1.2c0.1-0.4,0.2-0.8,0.2-1.2l-0.1-0.3
		l0.3,0.4c0.5,0.5,1,1.1,1,2.2l0,0C95.5,89.8,95.2,90.1,94.7,90.1C94.8,90.1,94.8,90.1,94.7,90.1 M94.4,87.4c0,0.3-0.1,0.7-0.2,1
		c-0.1,0.3-0.2,0.7-0.2,1.1c0,0.2,0.4,0.4,0.8,0.4c0.2,0,0.5-0.1,0.5-0.4C95.2,88.5,94.8,87.9,94.4,87.4"/>
	<path id="XMLID_16_" class="st14" d="M94.4,87.8c-0.1,0.6-0.5,1.2-0.3,1.8c0.3,0.4,1.2,0.3,1-0.4C95.1,88.7,94.8,88.1,94.4,87.8"/>
	<path id="XMLID_15_" class="st35" d="M79.8,66.5c-1.2,0-1.8,1.2-1.3,4.4c0.2,0.7,0.5,1.2,0.9,1.7c0.2-1.4-0.3-3.6,0.6-4.5
		c0.8-0.8,2.3,0.7,3.4,0.5c-0.6-0.5-1.2-1-1.9-1.5C80.8,66.7,80.3,66.5,79.8,66.5"/>
	<path id="XMLID_14_" class="st35" d="M105.6,66.5c-0.5,0-1,0.2-1.6,0.5c-0.7,0.5-1.4,0.9-1.9,1.5c1.1,0.2,2.6-1.2,3.4-0.5
		c0.9,0.9,0.4,3.1,0.6,4.5c0.4-0.5,0.7-1,0.9-1.7C107.4,67.7,106.8,66.5,105.6,66.5"/>
	<path id="XMLID_11_" class="st30" d="M92.7,94.3c-0.2,0-0.4,0-0.6,0c-1.6,0-4.2,0-5.1-2.9c0,0,0,0,0,0C87,91,87,90.6,86.9,90.3
		c0-0.6-0.1-1.1-0.3-1.6c-0.2-0.4-0.5-0.8-0.8-1.2c-0.4-0.6-0.8-1.1-0.9-1.6c-0.1-0.6-0.2-1.2-0.6-1.8l-2.2-1.8
		c-1.3-1.4-2.5-3.1-1.3-5.7c0-0.1,0.1-0.2,0.1-0.2c0.3-0.5,0.6-0.9,0-1.5l-0.7-0.7c-0.1,0-0.1-0.1,0-0.2l0.1-0.2
		c-0.9-0.8-1.5-1.7-1.9-2.9c0,0,0,0,0,0c-0.4-2.3-0.2-3.8,0.6-4.3c0.6-0.4,1.4-0.3,2.5,0.3c0.7,0.5,1.4,0.9,1.9,1.4
		c1.2-0.9,2.9-1.3,4.4-1.8c0.4-0.1,0.7-0.2,1.1-0.3c3-2.6,4.9-2.6,7.8,0.1l0.3,0.1c1.7,0.5,3.7,1.1,5,2c0.5-0.5,1.2-0.9,1.9-1.4
		c1.1-0.6,1.9-0.7,2.5-0.3c0.8,0.6,1,2,0.6,4.3c0,0,0,0,0,0c-0.4,1.1-1,2-1.9,2.9l0.1,0.2c0,0.1,0,0.1,0,0.2l-0.7,0.7
		c-0.5,0.6-0.3,1,0,1.5c0,0.1,0.1,0.2,0.1,0.2c1.3,2.7,0.1,4.4-1.2,5.7l-2.3,1.8c-0.4,0.6-0.5,1.2-0.6,1.7c-0.1,0.5-0.5,1-0.9,1.6
		c-0.3,0.4-0.6,0.8-0.8,1.2c-0.2,0.5-0.3,1-0.3,1.6c0,0.3,0,0.7-0.1,1.1c0,0,0,0,0,0c-0.9,2.9-3.5,2.9-5.1,2.9
		C93.1,94.3,92.9,94.3,92.7,94.3 M92.3,94c0.1,0,0.3,0,0.4,0c0.2,0,0.4,0,0.6,0c1.5,0,3.9,0,4.7-2.7c0.1-0.4,0.1-0.7,0.1-1.1
		c0-0.6,0.1-1.2,0.3-1.7c0.3-0.5,0.6-0.9,0.8-1.3c0.4-0.6,0.7-1,0.8-1.4c0.1-0.6,0.3-1.3,0.7-1.9c0,0,0,0,0,0l2.3-1.8
		c1.3-1.3,2.3-2.8,1.2-5.3c0-0.1-0.1-0.1-0.1-0.2c-0.3-0.5-0.7-1.2,0-1.9l0.7-0.6l-0.1-0.2c0-0.1,0-0.2,0.1-0.2
		c0.9-0.8,1.5-1.7,1.9-2.8c0.4-2.7,0-3.6-0.5-3.9c-0.6-0.4-1.5,0-2.1,0.3c-0.8,0.5-1.5,1.1-2,1.6l-1,1c-0.1,0.1-0.2,0.1-0.3,0
		c-0.1-0.1-0.1-0.2,0-0.3c0.3-0.3,0.6-0.7,0.9-1c-1.3-0.8-3.2-1.4-4.8-1.9l-0.3-0.1c0,0-0.1,0-0.1,0C93.6,64,92,64,89.1,66.5
		c0,0,0,0-0.1,0c-0.3,0.1-0.7,0.2-1.1,0.3c-1.5,0.4-3.1,0.9-4.3,1.7l0.1,0.2c0.3,0.3,0.6,0.6,0.8,0.9c0.1,0.1,0,0.2,0,0.3
		c-0.1,0.1-0.2,0.1-0.3,0l-0.8-0.9c-0.6-0.6-1.3-1.2-2.2-1.7c-0.6-0.4-1.5-0.7-2.1-0.3c-0.5,0.3-0.9,1.3-0.5,3.9
		c0.4,1.1,1,2,1.9,2.8c0.1,0,0.1,0.1,0.1,0.2L80.6,74l0.6,0.6c0.7,0.8,0.3,1.4,0,2c0,0.1-0.1,0.1-0.1,0.2c-1.2,2.4-0.1,4,1.2,5.3
		l2.3,1.8c0,0,0,0,0,0c0.4,0.6,0.6,1.3,0.7,1.9c0.1,0.4,0.4,0.9,0.8,1.4c0.3,0.4,0.6,0.8,0.8,1.3c0.3,0.6,0.3,1.2,0.3,1.8
		c0,0.3,0,0.7,0.1,1.1c0.8,2.7,3.2,2.7,4.7,2.7C92.2,94,92.3,94,92.3,94"/>
	<path id="XMLID_10_" class="st36" d="M127.7,68.6c-1-0.8-2.2-1-3.2-0.6c-0.9,0.3-1.4,1.1-1.6,2.2c-0.4,4.2-1.4,7.4-2.5,10.6
		c-0.2,0.6-0.4,1.3-0.6,2c-2.2,6.2-8.7,12-12.9,15.8c-1,1-1.4,2.5-1.2,4c0.1,0,0.2,0,0.4-0.1c-0.2-1.4,0.2-2.7,1.1-3.6
		c4.3-3.8,10.8-9.7,13-16c0.2-0.7,0.4-1.3,0.6-2c1-3.2,2.1-6.4,2.5-10.7c0.1-0.9,0.6-1.6,1.4-1.9c0.3-0.1,0.6-0.2,0.9-0.2
		c0.7,0,1.4,0.3,2,0.7c1,0.8,1.5,2.2,1.2,3.6l-1.7,7.3c-2.7,12.9-9,17.7-14.6,22c-1.5,1.2-3,2.3-4.3,3.5c0,0.2,0,0.3,0,0.5
		c1.4-1.3,2.9-2.5,4.5-3.7c5.6-4.3,12-9.1,14.7-22.2l1.7-7.3C129.4,71,128.9,69.6,127.7,68.6"/>
	<path id="XMLID_9_" class="st36" d="M73.4,101.6c-5.6-4.2-11.9-9-14.6-22l-1.7-7.2c-0.2-1.5,0.2-2.8,1.2-3.7c0.6-0.5,1.3-0.7,2-0.7
		c0.3,0,0.6,0.1,0.9,0.2c0.8,0.3,1.2,1,1.4,1.9c0.4,4.2,1.4,7.5,2.5,10.7c0.2,0.6,0.4,1.3,0.6,2c2.3,6.3,8.7,12.1,13,16
		c1,1,1.4,2.6,1,4c0.1,0,0.3,0,0.4,0c0.3-1.6-0.1-3.2-1.1-4.3c-4.3-3.8-10.7-9.6-12.9-15.8c-0.2-0.7-0.4-1.3-0.6-2
		c-1-3.1-2.1-6.4-2.5-10.6c-0.2-1.1-0.7-1.9-1.6-2.2c-1-0.4-2.3-0.1-3.2,0.6c-1.1,0.9-1.6,2.4-1.4,4l1.7,7.3
		c2.7,13,9.1,17.9,14.7,22.2c1.5,1.2,3,2.3,4.4,3.5c0-0.2,0-0.4,0-0.5C76.3,103.7,74.9,102.7,73.4,101.6"/>
	<path id="XMLID_6_" class="st36" d="M108.4,108.4c0-0.5-0.1-1-0.1-1.4c0-0.4-0.1-0.8-0.1-1.2c0-0.2,0-0.3,0-0.5c0-0.5,0-1.1,0-1.7
		l0,0l0,0c-0.3-1-1.1-1.2-2-1c-0.1,0-0.2,0-0.4,0.1c-0.4,0.1-0.7,0.2-1.1,0.3c-0.4,0.1-0.8,0.2-1.2,0.3l0,0c-0.8,0.2-1.4,0.2-2.5,0
		l0,0L81.8,103c-0.3-0.2-1-0.4-1.7-0.4c-0.1,0-0.3,0-0.4,0c-0.5,0.1-1,0.2-1.4,0.5c-0.4,0.3-0.8,0.8-0.8,1.7c0,0.2,0,0.3,0,0.5
		c0,0.2,0.1,0.5,0.2,0.8c-0.2,1.5,0.1,2.8,0.9,3.5c0.6,0.6,1.5,0.9,2.7,0.9c0.3,0,0.7,0,1.1-0.1l25-0.2l0,0
		C108.2,110.2,108.4,109,108.4,108.4 M107.5,110l-25,0.2l0,0c-1.6,0.2-2.8,0-3.5-0.7c-0.7-0.7-1-1.8-0.8-3.2l0,0l0,0
		c0-0.1,0-0.1-0.1-0.2c-0.1-0.2-0.1-0.4-0.1-0.6c-0.1-0.8,0.1-1.4,0.7-1.8c0.3-0.2,0.7-0.3,1-0.4c0.1,0,0.3,0,0.4,0
		c0.1,0,0.1,0,0.2,0c0.6,0,1.1,0.1,1.4,0.3l0.1,0l19.2,0.1c1.1,0.3,1.8,0.3,2.7,0c0.4-0.1,0.8-0.2,1.2-0.3c0.4-0.1,0.7-0.2,1-0.3
		c0.1,0,0.2,0,0.4-0.1c0.8-0.1,1.3,0,1.6,0.8c0,0.7,0,1.3,0.1,2c0,0.2,0,0.3,0,0.5c0,0.3,0,0.6,0.1,0.9c0,0.5,0.1,1,0.1,1.4
		C108,109.1,107.8,109.9,107.5,110"/>
	<polygon id="XMLID_5_" class="st37" points="32.5,111.1 41,111.1 34.1,116.3 36.7,107.9 39.4,116.3 	"/>
	<polygon id="XMLID_4_" class="st37" points="145.8,111.1 154.3,111.1 147.4,116.3 150.1,107.9 152.7,116.3 	"/>
</g>
</svg>
