<?xml version="1.0" encoding="utf-8"?>
<!-- Generator: Adobe Illustrator 27.2.0, SVG Export Plug-In . SVG Version: 6.00 Build 0)  -->
<svg version="1.1" id="Calque_1" xmlns="http://www.w3.org/2000/svg" xmlns:xlink="http://www.w3.org/1999/xlink" x="0px" y="0px"
	 viewBox="0 0 1600 1600" style="enable-background:new 0 0 1600 1600;" xml:space="preserve">
<style type="text/css">
	.st0{fill-rule:evenodd;clip-rule:evenodd;}
	.st1{fill-rule:evenodd;clip-rule:evenodd;fill:#FFFFFF;}
</style>
<circle class="st0" cx="826.3" cy="800.4" r="604.5"/>
<path class="st1" d="M1206.6,1109.8h-139V873c0-64.9-24.7-101.2-76.1-101.2c-55.9,0-85.1,37.8-85.1,101.2v236.8h-134V658.7h134v60.8
	c0,0,40.3-74.5,136-74.5c95.7,0,164.2,58.4,164.2,179.3V1109.8z M612.6,599.6c-45.6,0-82.6-37.3-82.6-83.2s37-83.2,82.6-83.2
	c45.6,0,82.6,37.3,82.6,83.2S658.2,599.6,612.6,599.6z M543.4,1109.8h139.7V658.7H543.4V1109.8z"/>
</svg>
