<svg width="173" height="50" viewBox="0 0 173 50" fill="none" xmlns="http://www.w3.org/2000/svg">
<g id="Group 18451">
<g id="Group 18450">
<path id="Vector" d="M34.6682 3.17215C30.2542 4.09183 26.7407 8.2187 26.7563 12.8989C26.7563 13.0548 26.7718 13.2185 26.7873 13.2964C34.1791 15.1046 37.5333 19.5822 37.5566 25.7745C37.576 31.9706 32.7038 38.7552 24.4696 38.7825C17.8 38.8059 10.8586 33.089 10.8314 23.9156C10.812 17.8481 14.0731 12.0065 18.2426 8.54215C22.3034 5.16349 27.8744 2.99289 32.929 2.9773C33.5735 2.9734 34.2412 3.02796 34.6605 3.16825C31.512 1.67182 27.9947 0.830079 24.2794 0.830079C10.8702 0.826182 0 11.7376 0 25.1938C0 38.65 10.8702 49.5615 24.2755 49.5615C37.6847 49.5615 48.5511 38.65 48.5511 25.1938C48.5511 15.4709 42.8753 7.08079 34.6682 3.17215Z" fill="#E30613"/>
<path id="Vector_2" d="M18.2384 8.54239C14.0689 12.0068 10.8078 17.8483 10.8272 23.9159C10.8583 33.0932 17.7958 38.8061 24.4655 38.7827C32.6997 38.7555 37.5719 31.967 37.5525 25.7747C37.533 19.5786 34.1749 15.101 26.7832 13.2967C26.7676 13.2187 26.756 13.0551 26.7521 12.8992C26.7405 8.21894 30.2539 4.09207 34.668 3.17239C34.6641 3.17239 34.6602 3.16849 34.6563 3.16849C34.237 3.0321 33.5693 2.97754 32.9248 2.97754C27.8741 2.99313 22.3031 5.16373 18.2384 8.54239Z" fill="white"/>
<path id="XMLID_37_" d="M59.8603 21.4679L53.3848 5.9541H57.6164L61.6578 16.2537L65.5711 5.9541H69.6086L63.3233 21.4679H59.8603Z" fill="#1A2129"/>
<path id="XMLID_34_" d="M84.7765 13.6467C84.7765 14.656 84.6212 15.6498 84.3106 16.624C84 17.6021 83.5419 18.4751 82.9324 19.2466C82.3229 20.0182 81.5542 20.6418 80.6225 21.1133C79.6908 21.5848 78.6076 21.8225 77.3692 21.8225C76.1308 21.8225 75.0437 21.5848 74.1159 21.1133C73.1842 20.6418 72.4155 20.0182 71.806 19.2466C71.1965 18.4751 70.7384 17.5982 70.4278 16.624C70.1172 15.6498 69.9619 14.656 69.9619 13.6467C69.9619 12.6374 70.1172 11.6515 70.4278 10.685C70.7384 9.7186 71.1965 8.85738 71.806 8.09357C72.4155 7.33367 73.1842 6.72185 74.1159 6.25811C75.0476 5.79827 76.1308 5.56445 77.3692 5.56445C78.6076 5.56445 79.6869 5.79437 80.607 6.25811C81.5271 6.71795 82.2957 7.32977 82.9169 8.09357C83.538 8.85738 84 9.7186 84.3106 10.685C84.6212 11.6515 84.7765 12.6374 84.7765 13.6467ZM80.8632 13.6311C80.8632 12.9842 80.7894 12.3724 80.638 11.7918C80.4866 11.2111 80.2653 10.7084 79.9664 10.2915C79.6675 9.87058 79.3025 9.53934 78.8755 9.28994C78.4485 9.04443 77.9438 8.91973 77.3692 8.91973C76.7907 8.91973 76.2899 9.04443 75.8629 9.28994C75.4358 9.53545 75.0709 9.87058 74.772 10.2915C74.4731 10.7123 74.2479 11.2111 74.1004 11.7918C73.949 12.3724 73.8752 12.9881 73.8752 13.6311C73.8752 14.2975 73.949 14.9171 74.1004 15.49C74.2479 16.0589 74.4692 16.5617 74.7565 16.9903C75.0437 17.419 75.4087 17.7619 75.8474 18.0074C76.2861 18.2529 76.7946 18.3776 77.3692 18.3776C77.9476 18.3776 78.4485 18.2529 78.8755 18.0074C79.3025 17.7619 79.6675 17.419 79.9664 16.9903C80.2653 16.5617 80.4905 16.0589 80.638 15.49C80.7894 14.9171 80.8632 14.2975 80.8632 13.6311Z" fill="#1A2129"/>
<path id="XMLID_31_" d="M97.0244 21.4683L96.8613 20.2758C96.5003 20.685 96.0189 21.0435 95.421 21.3553C94.8231 21.6671 94.1205 21.8229 93.313 21.8229C92.2492 21.8229 91.3097 21.5969 90.4983 21.1488C89.687 20.6967 89.0076 20.0966 88.4524 19.3445C87.8973 18.5924 87.478 17.7233 87.1907 16.7374C86.9034 15.7515 86.7598 14.7188 86.7598 13.6471C86.7598 12.6378 86.9073 11.6519 87.2062 10.6854C87.5052 9.719 87.9555 8.85777 88.565 8.09397C89.1706 7.33406 89.9354 6.72224 90.8516 6.2585C91.7678 5.79866 92.8432 5.56485 94.0816 5.56485C94.893 5.56485 95.7665 5.71293 96.7021 6.0091V0H100.678V21.4683H97.0244ZM96.7021 9.36827C95.9373 9.06821 95.223 8.91623 94.5669 8.91623C93.8875 8.91623 93.3013 9.04482 92.8121 9.30202C92.323 9.55922 91.9192 9.90995 91.6009 10.3503C91.2826 10.7907 91.0419 11.2856 90.8827 11.835C90.7235 12.3845 90.642 12.9496 90.642 13.5302C90.642 14.1771 90.7119 14.7967 90.8477 15.3891C90.9875 15.9814 91.1971 16.4997 91.4844 16.9401C91.7717 17.3804 92.1328 17.735 92.5676 18.0039C93.0024 18.2728 93.5187 18.4092 94.1127 18.4092C94.6019 18.4092 95.1027 18.2767 95.6112 18.0039C96.1198 17.735 96.4847 17.4155 96.6944 17.0492V9.36827H96.7021Z" fill="#1A2129"/>
<path id="XMLID_26_" d="M112.224 21.4523L112.065 20.2949C111.634 20.7704 111.086 21.1445 110.423 21.4173C109.759 21.6862 109.029 21.8225 108.233 21.8225C107.569 21.8225 106.929 21.7095 106.319 21.4835C105.71 21.2575 105.166 20.9379 104.692 20.5171C104.219 20.1001 103.838 19.5818 103.551 18.9739C103.26 18.3621 103.116 17.6684 103.116 16.8968C103.116 16.1252 103.268 15.4432 103.567 14.8548C103.865 14.2664 104.273 13.7675 104.789 13.3584C105.306 12.9492 105.896 12.6179 106.56 12.3607C107.224 12.1035 107.922 11.9087 108.652 11.7801C109.169 11.6749 109.732 11.593 110.341 11.5385C110.951 11.4839 111.463 11.4372 111.871 11.3943V11.1683C111.871 10.311 111.649 9.69913 111.211 9.33282C110.772 8.9665 110.162 8.78724 109.39 8.78724C108.94 8.78724 108.509 8.8418 108.101 8.94702C107.693 9.05613 107.328 9.18863 107.006 9.3484C106.684 9.50818 106.401 9.67185 106.152 9.83163C105.904 9.9914 105.706 10.1356 105.554 10.2681L104.238 7.46618C104.409 7.31809 104.673 7.13493 105.022 6.9206C105.376 6.70627 105.803 6.49583 106.304 6.29319C106.804 6.09055 107.371 5.91909 108.004 5.7788C108.633 5.6385 109.312 5.56836 110.038 5.56836C110.892 5.56836 111.673 5.68137 112.379 5.90739C113.086 6.13342 113.695 6.48804 114.208 6.96737C114.72 7.45059 115.12 8.06241 115.411 8.79893C115.698 9.53935 115.846 10.4318 115.846 11.4839V21.4523H112.224ZM111.902 14.1962C111.471 14.2196 111.032 14.2547 110.578 14.3092C110.128 14.3638 109.697 14.4339 109.285 14.5197C108.423 14.6911 107.825 14.9873 107.491 15.4043C107.158 15.8212 106.991 16.2772 106.991 16.7721C106.991 17.2865 107.177 17.6996 107.554 18.0113C107.93 18.3231 108.462 18.479 109.153 18.479C109.669 18.479 110.17 18.3737 110.655 18.1555C111.141 17.9412 111.552 17.6723 111.898 17.3527V14.1962H111.902Z" fill="#1A2129"/>
<path id="XMLID_14_" d="M131.304 20.1503C131.153 20.2594 130.92 20.4075 130.598 20.6023C130.276 20.7972 129.876 20.9842 129.394 21.1674C128.913 21.3505 128.354 21.5064 127.709 21.635C127.069 21.7636 126.343 21.8299 125.528 21.8299C124.588 21.8299 123.684 21.6701 122.814 21.3466C121.944 21.0232 121.18 20.5322 120.508 19.8658C119.84 19.1994 119.308 18.3655 118.908 17.3562C118.509 16.3469 118.311 15.1583 118.311 13.7827C118.311 12.4109 118.505 11.2068 118.893 10.178C119.281 9.14919 119.801 8.29186 120.461 7.6021C121.117 6.91624 121.874 6.40573 122.732 6.07449C123.59 5.74325 124.487 5.57568 125.431 5.57568C126.327 5.57568 127.115 5.69259 127.787 5.93031C128.459 6.16802 129.041 6.46029 129.534 6.81491C130.027 7.16954 130.427 7.55923 130.738 7.9879C131.048 8.41656 131.3 8.82574 131.491 9.21154L128.54 11.2068C128.218 10.6495 127.818 10.1273 127.337 9.6441C126.855 9.16088 126.23 8.91927 125.462 8.91927C124.608 8.91927 123.862 9.30117 123.233 10.0611C122.604 10.8249 122.286 12.0096 122.286 13.619C122.286 15.1622 122.608 16.343 123.249 17.1613C123.889 17.9758 124.821 18.385 126.04 18.385C126.619 18.385 127.135 18.3265 127.597 18.2096C128.055 18.0927 128.459 17.9524 128.8 17.7926C129.142 17.6329 129.425 17.4653 129.651 17.2938C129.876 17.1224 130.039 16.9821 130.147 16.8768L131.304 20.1503Z" fill="#1A2129"/>
<path id="XMLID_9_" d="M147.497 13.6467C147.497 14.656 147.342 15.6498 147.031 16.624C146.721 17.6021 146.263 18.4751 145.653 19.2466C145.044 20.0182 144.275 20.6418 143.343 21.1133C142.411 21.5848 141.328 21.8225 140.09 21.8225C138.851 21.8225 137.764 21.5848 136.837 21.1133C135.905 20.6418 135.136 20.0182 134.527 19.2466C133.917 18.4751 133.459 17.5982 133.148 16.624C132.838 15.6498 132.683 14.656 132.683 13.6467C132.683 12.6374 132.838 11.6515 133.148 10.685C133.459 9.7186 133.917 8.85738 134.527 8.09357C135.136 7.33367 135.905 6.72185 136.837 6.25811C137.768 5.79827 138.851 5.56445 140.09 5.56445C141.328 5.56445 142.408 5.79437 143.328 6.25811C144.248 6.71795 145.016 7.32977 145.638 8.09357C146.259 8.85738 146.721 9.7186 147.031 10.685C147.342 11.6515 147.497 12.6374 147.497 13.6467ZM143.584 13.6311C143.584 12.9842 143.51 12.3724 143.359 11.7918C143.207 11.2111 142.986 10.7084 142.687 10.2915C142.388 9.87058 142.023 9.53934 141.596 9.28994C141.169 9.04443 140.664 8.91973 140.09 8.91973C139.511 8.91973 139.011 9.04443 138.584 9.28994C138.157 9.53545 137.792 9.87058 137.493 10.2915C137.194 10.7123 136.969 11.2111 136.821 11.7918C136.67 12.3724 136.596 12.9881 136.596 13.6311C136.596 14.2975 136.67 14.9171 136.821 15.49C136.969 16.0589 137.19 16.5617 137.477 16.9903C137.764 17.419 138.129 17.7619 138.568 18.0074C139.007 18.2529 139.515 18.3776 140.09 18.3776C140.668 18.3776 141.169 18.2529 141.596 18.0074C142.023 17.7619 142.388 17.419 142.687 16.9903C142.986 16.5617 143.211 16.0589 143.359 15.49C143.51 14.9171 143.584 14.2975 143.584 13.6311Z" fill="#1A2129"/>
<path id="XMLID_7_" d="M169.013 21.4684V12.3612C169.013 11.3324 168.819 10.4985 168.435 9.86717C168.05 9.23586 167.332 8.91631 166.288 8.91631C165.989 8.91631 165.682 8.96307 165.376 9.0605C165.065 9.15792 164.77 9.27093 164.494 9.39953C164.215 9.52813 163.97 9.66063 163.757 9.80092C163.543 9.94121 163.372 10.0659 163.244 10.1711C163.287 10.4283 163.33 10.7167 163.372 11.0401C163.415 11.3636 163.438 11.7143 163.438 12.104V21.4723H159.463V12.3612C159.463 11.8897 159.424 11.4454 159.35 11.0246C159.277 10.6076 159.141 10.2413 158.951 9.92952C158.756 9.61776 158.508 9.37225 158.197 9.1891C157.887 9.00594 157.499 8.91631 157.029 8.91631C156.431 8.91631 155.864 9.07609 155.328 9.39953C154.793 9.72298 154.346 10.0659 153.981 10.4283V21.4684H150.006V5.95463H153.663L153.822 7.11202C154.292 6.68336 154.878 6.31704 155.573 6.01698C156.268 5.71691 156.971 5.56493 157.677 5.56493C158.407 5.56493 159.129 5.67794 159.843 5.90397C160.562 6.12999 161.229 6.51969 161.851 7.07695C162.557 6.64829 163.334 6.28977 164.18 5.99749C165.026 5.70912 165.931 5.56104 166.894 5.56104C168.05 5.56104 169.017 5.71302 169.801 6.01308C170.582 6.31315 171.211 6.74181 171.68 7.29908C172.15 7.85634 172.488 8.5422 172.694 9.36056C172.895 10.175 173 11.1103 173 12.1625V21.4645H169.013V21.4684Z" fill="#1A2129"/>
<path id="Vector_3" d="M72.6367 35.4667C72.6367 36.2694 72.5513 37.0566 72.3805 37.8321C72.2096 38.6076 71.9495 39.3402 71.604 40.0339C71.2546 40.7236 70.8237 41.3433 70.3035 41.8888C69.7832 42.4344 69.1776 42.8787 68.4788 43.2177C67.2909 43.7983 65.9476 44.0867 64.453 44.0867H59.5342V27.0181H64.3248C64.9382 27.0181 65.6176 27.0687 66.363 27.17C67.1123 27.2714 67.8227 27.4779 68.506 27.7858C69.2009 28.1287 69.8104 28.5652 70.3268 29.1029C70.847 29.6407 71.274 30.2447 71.6157 30.9189C71.9573 31.5931 72.2096 32.3179 72.3805 33.0934C72.5513 33.8767 72.6367 34.6639 72.6367 35.4667ZM69.3213 35.6186C69.3213 34.6522 69.1504 33.7364 68.8127 32.8791C68.4711 32.0218 67.947 31.3554 67.2326 30.8799C66.8599 30.6266 66.3941 30.4357 65.8428 30.3071C65.2915 30.1785 64.7441 30.1161 64.1967 30.1161H62.7952V40.9925H64.1191C65.276 40.9925 66.2504 40.7821 67.0502 40.3573C67.815 39.9326 68.3856 39.2857 68.7583 38.4089C69.1349 37.532 69.3213 36.6046 69.3213 35.6186Z" fill="#1A2129"/>
<path id="Vector_4" d="M76.8407 30.6032C76.1963 30.6032 75.7149 30.4162 75.4004 30.0421C75.086 29.6679 74.9307 29.2471 74.9307 28.7872C74.9307 28.343 75.086 27.9338 75.4004 27.5597C75.7149 27.1856 76.1963 26.9985 76.8407 26.9985C77.4696 26.9985 77.9394 27.1856 78.2538 27.5597C78.5683 27.9338 78.7236 28.343 78.7236 28.7872C78.7236 29.2471 78.5644 29.6679 78.2538 30.0421C77.9394 30.4162 77.4696 30.6032 76.8407 30.6032ZM75.2607 44.0906V31.7528H78.4208V44.0867H75.2607V44.0906Z" fill="#1A2129"/>
<path id="Vector_5" d="M91.8303 43.7831C91.8303 45.525 91.3489 46.8539 90.39 47.7736C89.4311 48.6932 88.049 49.157 86.2476 49.157C85.6187 49.157 85.0325 49.118 84.489 49.0401C83.9455 48.9621 83.4602 48.8725 83.037 48.7712C82.6139 48.6699 82.2606 48.5646 81.9772 48.4633C81.6977 48.362 81.5152 48.2841 81.4298 48.2334L82.0937 45.4432C82.5207 45.6809 83.0836 45.903 83.7824 46.1096C84.4812 46.3161 85.2227 46.4174 86.0108 46.4174C86.9154 46.4174 87.5831 46.246 88.0179 45.9069C88.4527 45.564 88.6701 45.1236 88.6701 44.5781V43.861C88.3479 43.9468 88.049 44.0052 87.7733 44.0403C87.5016 44.0754 87.2182 44.0909 86.9309 44.0909C85.9254 44.0909 85.0441 43.9234 84.2832 43.5921C83.5262 43.2609 82.8895 42.8088 82.3771 42.236C81.8646 41.6631 81.4764 40.9929 81.2124 40.2291C80.9484 39.4614 80.8164 38.643 80.8164 37.774C80.8164 36.94 80.9484 36.1373 81.2124 35.3696C81.4764 34.6019 81.8763 33.9277 82.412 33.347C82.9477 32.7664 83.631 32.3066 84.4657 31.9636C85.2965 31.6207 86.2826 31.4531 87.4239 31.4531C88.3091 31.4531 89.1477 31.4999 89.9474 31.5934C90.7471 31.6869 91.3761 31.7766 91.8342 31.8623V43.7831H91.8303ZM88.6701 34.2122C88.4489 34.1771 88.2509 34.1537 88.08 34.1342C87.9092 34.1186 87.7035 34.107 87.4667 34.107C86.8494 34.107 86.3175 34.2044 85.8633 34.4031C85.4091 34.598 85.0403 34.8669 84.7491 35.2098C84.4579 35.5527 84.2444 35.9424 84.1085 36.3867C83.9727 36.8309 83.9028 37.2908 83.9028 37.7701C83.9028 38.8301 84.1939 39.6913 84.7724 40.3538C85.3547 41.0201 86.2243 41.3514 87.389 41.3514C87.6957 41.3514 87.948 41.3163 88.146 41.2501C88.344 41.1838 88.5187 41.1059 88.6701 41.0201V34.2122Z" fill="#1A2129"/>
<path id="Vector_6" d="M96.5477 30.6032C95.9033 30.6032 95.4219 30.4162 95.1074 30.0421C94.793 29.6679 94.6338 29.2471 94.6338 28.7872C94.6338 28.343 94.7891 27.9338 95.1074 27.5597C95.4219 27.1856 95.9033 26.9985 96.5477 26.9985C97.1766 26.9985 97.6464 27.1856 97.9609 27.5597C98.2753 27.9338 98.4345 28.343 98.4345 28.7872C98.4345 29.2471 98.2753 29.6679 97.9609 30.0421C97.6464 30.4162 97.1766 30.6032 96.5477 30.6032ZM94.9677 44.0906V31.7528H98.1278V44.0867H94.9677V44.0906Z" fill="#1A2129"/>
<path id="Vector_7" d="M105.011 44.371C103.916 44.371 103.101 44.0631 102.569 43.4513C102.037 42.8356 101.773 42.0951 101.773 41.2261V34.3129H100.038V31.7526H101.773V28.5532H104.934V31.7526H107.764V34.3129H104.934V40.5831C104.934 40.9767 105.027 41.2495 105.213 41.4015C105.399 41.5535 105.621 41.6314 105.877 41.6314C106.506 41.6314 107.049 41.4521 107.507 41.0936L108.323 43.3694C107.931 43.6617 107.445 43.8994 106.855 44.0865C106.273 44.2774 105.656 44.371 105.011 44.371Z" fill="#1A2129"/>
<path id="Vector_8" d="M116.657 44.0793L116.533 43.1596C116.191 43.5376 115.757 43.8376 115.229 44.052C114.701 44.2663 114.118 44.3754 113.489 44.3754C112.961 44.3754 112.453 44.2858 111.968 44.1065C111.482 43.9273 111.051 43.6701 110.675 43.3388C110.298 43.0076 109.995 42.5984 109.766 42.1113C109.537 41.6242 109.421 41.0747 109.421 40.459C109.421 39.8433 109.541 39.3016 109.778 38.834C110.019 38.3663 110.341 37.9688 110.753 37.6454C111.16 37.3219 111.63 37.0569 112.158 36.8504C112.686 36.6439 113.241 36.4919 113.819 36.3906C114.231 36.3048 114.677 36.2425 115.163 36.1996C115.648 36.1567 116.056 36.1178 116.378 36.0827V35.9034C116.378 35.2215 116.203 34.7344 115.854 34.446C115.504 34.1576 115.023 34.0095 114.406 34.0095C114.049 34.0095 113.707 34.0524 113.381 34.1381C113.055 34.2239 112.767 34.3291 112.511 34.4577C112.255 34.5863 112.03 34.7149 111.832 34.8435C111.634 34.9721 111.478 35.0851 111.358 35.1903L110.314 32.9651C110.45 32.8443 110.659 32.7002 110.939 32.5287C111.218 32.3572 111.56 32.1935 111.96 32.0299C112.36 31.8662 112.81 31.7298 113.311 31.6207C113.812 31.5116 114.351 31.4531 114.93 31.4531C115.609 31.4531 116.23 31.5428 116.789 31.722C117.348 31.9013 117.834 32.1819 118.241 32.5677C118.649 32.9496 118.967 33.4367 119.196 34.0251C119.425 34.6136 119.542 35.3228 119.542 36.1606V44.087H116.657V44.0793ZM116.405 38.3079C116.063 38.3274 115.714 38.3546 115.353 38.3975C114.992 38.4404 114.65 38.4949 114.328 38.5651C113.645 38.7015 113.167 38.9353 112.903 39.2704C112.639 39.6017 112.507 39.9641 112.507 40.3577C112.507 40.7668 112.659 41.0942 112.958 41.3436C113.257 41.593 113.68 41.7138 114.227 41.7138C114.639 41.7138 115.035 41.6281 115.419 41.4566C115.803 41.2851 116.133 41.0747 116.409 40.8175V38.3079H116.405Z" fill="#1A2129"/>
<path id="Vector_9" d="M125.789 40.482C125.789 40.9263 125.878 41.2264 126.057 41.39C126.236 41.5537 126.484 41.6316 126.81 41.6316C126.996 41.6316 127.175 41.6122 127.346 41.5693C127.517 41.5264 127.676 41.4719 127.831 41.4017L128.39 43.8061C128.254 43.8919 127.948 44.0049 127.474 44.153C126.996 44.2972 126.472 44.3712 125.894 44.3712C125.451 44.3712 125.032 44.3127 124.632 44.1919C124.232 44.0711 123.883 43.8841 123.588 43.6308C123.289 43.3736 123.056 43.0384 122.889 42.6215C122.718 42.2045 122.633 41.6979 122.633 41.0978V27.022H125.793V40.482H125.789Z" fill="#1A2129"/>
<path id="Vector_10" d="M135.599 44.0906V27.022H138.864V40.9925H146.768V44.0906H135.599Z" fill="#1A2129"/>
<path id="Vector_11" d="M155.328 44.0793L155.204 43.1596C154.862 43.5376 154.428 43.8376 153.9 44.052C153.372 44.2663 152.789 44.3754 152.16 44.3754C151.632 44.3754 151.124 44.2858 150.639 44.1065C150.153 43.9273 149.722 43.6701 149.346 43.3388C148.969 43.0076 148.666 42.5984 148.437 42.1113C148.208 41.6242 148.092 41.0747 148.092 40.459C148.092 39.8433 148.212 39.3016 148.449 38.834C148.69 38.3663 149.012 37.9688 149.423 37.6454C149.831 37.3219 150.301 37.0569 150.829 36.8504C151.357 36.6439 151.912 36.4919 152.49 36.3906C152.902 36.3048 153.348 36.2425 153.834 36.1996C154.319 36.1567 154.727 36.1178 155.049 36.0827V35.9034C155.049 35.2215 154.874 34.7344 154.525 34.446C154.175 34.1576 153.694 34.0095 153.077 34.0095C152.719 34.0095 152.378 34.0524 152.052 34.1381C151.726 34.2239 151.438 34.3291 151.182 34.4577C150.926 34.5863 150.701 34.7149 150.503 34.8435C150.305 34.9721 150.149 35.0851 150.029 35.1903L148.985 32.9651C149.121 32.8443 149.33 32.7002 149.61 32.5287C149.889 32.3572 150.231 32.1935 150.631 32.0299C151.031 31.8662 151.481 31.7298 151.982 31.6207C152.483 31.5116 153.022 31.4531 153.601 31.4531C154.28 31.4531 154.901 31.5428 155.46 31.722C156.019 31.9013 156.505 32.1819 156.912 32.5677C157.32 32.9496 157.638 33.4367 157.867 34.0251C158.096 34.6136 158.213 35.3228 158.213 36.1606V44.087H155.328V44.0793ZM155.076 38.3079C154.734 38.3274 154.385 38.3546 154.024 38.3975C153.663 38.4404 153.321 38.4949 152.999 38.5651C152.316 38.7015 151.838 38.9353 151.574 39.2704C151.31 39.6017 151.178 39.9641 151.178 40.3577C151.178 40.7668 151.33 41.0942 151.628 41.3436C151.927 41.593 152.351 41.7138 152.898 41.7138C153.309 41.7138 153.705 41.6281 154.09 41.4566C154.474 41.2851 154.804 41.0747 155.08 40.8175V38.3079H155.076Z" fill="#1A2129"/>
<path id="Vector_12" d="M172.258 37.6918C172.258 38.8843 172.088 39.9053 171.75 40.7509C171.408 41.5966 170.95 42.2863 170.372 42.8241C169.793 43.3619 169.118 43.7555 168.345 44.001C167.572 44.2465 166.761 44.3712 165.911 44.3712C165.111 44.3712 164.331 44.2777 163.566 44.0906C162.801 43.9036 162.044 43.6464 161.299 43.3229V27.022H164.459V31.7295C164.801 31.6438 165.127 31.5775 165.441 31.5268C165.756 31.4762 166.117 31.4489 166.524 31.4489C167.495 31.4489 168.337 31.6282 169.059 31.9867C169.781 32.3452 170.375 32.8167 170.845 33.4091C171.311 33.9975 171.664 34.6639 171.901 35.4043C172.138 36.1447 172.258 36.9085 172.258 37.6918ZM169.172 37.7698C169.172 36.55 168.865 35.6342 168.256 35.0263C167.642 34.4184 166.897 34.1105 166.012 34.1105C165.534 34.1105 165.018 34.2041 164.455 34.395V41.4797C164.676 41.5303 164.902 41.581 165.131 41.6355C165.36 41.6901 165.577 41.7135 165.779 41.7135C166.781 41.7135 167.596 41.3783 168.225 40.7081C168.858 40.0339 169.172 39.0558 169.172 37.7698Z" fill="#1A2129"/>
</g>
</g>
</svg>
