<svg width="101" height="32" viewBox="0 0 101 32" fill="none" xmlns="http://www.w3.org/2000/svg">
<rect width="101" height="32" rx="6" fill="white"/>
<path d="M12.5039 8.11282H10.9838C10.8741 8.11282 10.7854 8.12126 10.7178 8.13815C10.5363 8.17615 10.3969 8.24794 10.2956 8.3535C10.1013 8.53506 10 8.73774 10 8.96153V16.2833C10 16.5071 10.0929 16.7098 10.2787 16.8913C10.4645 17.056 10.6798 17.1363 10.9205 17.1363H12.5039V8.11282Z" fill="#1A2129"/>
<path d="M12.5039 8.11282H10.9838C10.8741 8.11282 10.7854 8.12126 10.7178 8.13815C10.5363 8.17615 10.3969 8.24794 10.2956 8.3535C10.1013 8.53506 10 8.73774 10 8.96153V16.2833C10 16.5071 10.0929 16.7098 10.2787 16.8913C10.4645 17.056 10.6798 17.1363 10.9205 17.1363H12.5039V8.11282Z" fill="#1A2129"/>
<path d="M19.3264 14.5321L17.0885 12.6363L18.4819 11.4582L22.4215 8.12664H20.3778C20.3778 8.12664 18.9591 8.10975 17.819 9.07248L13.605 12.632L17.819 16.1916C18.9591 17.1543 20.3778 17.1374 20.3778 17.1374H22.4215L19.3264 14.5321Z" fill="#1A2129"/>
<path d="M35.9707 15.7862C35.9327 15.7314 35.2022 14.4435 33.775 11.9311C33.547 11.53 33.3401 11.1711 33.1627 10.8544C32.542 9.7481 32.2085 9.16118 32.1662 9.10206C32.1536 9.07673 32.1367 9.05139 32.1198 9.02606C32.0142 8.8276 31.9298 8.67981 31.8622 8.5827C31.6047 8.26179 31.2795 8.10133 30.8953 8.10133H28.9952C28.6489 8.10133 28.3491 8.23645 28.1 8.50247C28.024 8.60381 27.948 8.71782 27.8804 8.84449C27.8551 8.88249 27.5722 9.37652 27.0359 10.3266C26.6897 10.9388 26.2337 11.7369 25.6721 12.7292C24.9627 13.9706 24.1309 15.44 23.1724 17.129C23.1724 17.1332 23.1724 17.1374 23.1724 17.1374C23.1724 17.1417 23.1766 17.1417 23.185 17.1417H25.1654C25.6003 17.1417 25.9508 16.9643 26.2125 16.6139L26.8037 15.5751C26.8079 15.5582 26.8164 15.5413 26.8248 15.5329H26.829L27.9227 13.6074H27.9184L29.9494 10.031L31.44 12.6616C31.6047 12.953 31.7862 13.2654 31.9805 13.6074H31.9762L33.433 16.1747C33.4752 16.2423 33.5174 16.3183 33.5639 16.3985C33.813 16.8968 34.2057 17.1459 34.7335 17.1459H36.735L35.9707 15.7862Z" fill="#1A2129"/>
<path d="M49.0914 10.9392C49.0661 10.8674 49.0407 10.7956 49.0196 10.7238C48.9858 10.6183 48.9521 10.5254 48.9225 10.4451C48.8127 10.2087 48.686 9.97645 48.534 9.74843C48.458 9.6302 48.3102 9.45708 48.0991 9.22907C47.9133 9.06017 47.7655 8.93772 47.6558 8.85749C46.9591 8.35079 46.1948 8.09744 45.3587 8.09744H38.3705C38.2607 8.09744 38.1341 8.13967 37.9821 8.21989C37.6992 8.40568 37.5598 8.65903 37.5598 8.97994V10.4409H39.8948H40.562H45.3207C45.5445 10.4409 45.7472 10.4747 45.933 10.5465C46.0386 10.5887 46.1441 10.6478 46.2497 10.7238C46.3299 10.7787 46.4355 10.8758 46.5537 11.0152C46.7733 11.2981 46.883 11.5979 46.883 11.9188V13.3291C46.883 13.612 46.7902 13.8865 46.6044 14.1525C46.5833 14.1947 46.5072 14.2792 46.3764 14.4058C46.085 14.6761 45.7556 14.807 45.3841 14.807H39.8948V11.7457H37.5598V16.4917H37.5978C37.6105 16.5424 37.6232 16.5846 37.6358 16.61C37.6612 16.686 37.7287 16.7873 37.8385 16.9013C38.0074 17.0618 38.1974 17.142 38.4085 17.142H45.3461C46.009 17.142 46.6255 16.9858 47.204 16.6733C47.3644 16.5804 47.5164 16.4833 47.66 16.3819C47.7951 16.2848 47.9556 16.1497 48.1413 15.9724C48.3356 15.757 48.4707 15.5881 48.5509 15.4657C49.007 14.8112 49.2307 14.068 49.2307 13.232V12.037C49.2307 11.6274 49.1843 11.2601 49.0914 10.9392Z" fill="#1A2129"/>
<path d="M61.1255 10.3178V9.01731C61.1255 8.92441 61.117 8.84841 61.1044 8.79774C61.0706 8.64573 61.0115 8.5275 60.9313 8.43461C60.7539 8.22348 60.5259 8.11792 60.2472 8.11792H51.3927C51.342 8.12214 51.304 8.13059 51.2744 8.13903C51.228 8.14325 51.1562 8.16859 51.0591 8.21081C50.9282 8.27415 50.8184 8.37549 50.7213 8.51483C50.6326 8.67106 50.5862 8.81885 50.5862 8.96242V9.55779C50.5862 9.84069 50.5862 10.094 50.5862 10.3221H61.1255V10.3178Z" fill="#1A2129"/>
<path d="M52.9342 14.9805V13.604L52.9426 13.5955H58.6683V11.6574H50.5991C50.5991 11.6701 50.5991 11.687 50.5991 11.6996V16.2515C50.5991 16.3908 50.6245 16.5175 50.6751 16.6399C50.7849 16.8511 50.9454 16.9988 51.1649 17.0791C51.2705 17.1128 51.3507 17.1297 51.4098 17.1297H60.2306C60.4206 17.1297 60.5811 17.0875 60.7077 17.0073C60.7457 16.9904 60.8133 16.9355 60.902 16.8468C61.0498 16.6737 61.1215 16.4879 61.1215 16.2895V14.9889C61.1215 14.9847 61.1173 14.9805 61.1131 14.9805H52.9342Z" fill="#1A2129"/>
<path d="M74.6271 15.7862C74.5891 15.7314 73.8587 14.4435 72.4315 11.9311C72.2034 11.53 71.9965 11.1711 71.8192 10.8544C71.19 9.7481 70.8565 9.16118 70.8185 9.10206C70.8058 9.07673 70.7889 9.05139 70.772 9.02606C70.6665 8.8276 70.582 8.67981 70.5144 8.5827C70.2569 8.26179 69.9317 8.10133 69.5475 8.10133H67.6474C67.3011 8.10133 67.0013 8.23645 66.7522 8.50247C66.6762 8.60381 66.6002 8.71782 66.5326 8.84449C66.5073 8.88249 66.2244 9.37652 65.6882 10.3266C65.3419 10.9388 64.8859 11.7369 64.3243 12.7292C63.6149 13.9706 62.7831 15.44 61.8246 17.129C61.8246 17.1332 61.8246 17.1374 61.8246 17.1374C61.8246 17.1417 61.8288 17.1417 61.8373 17.1417H63.8176C64.2525 17.1417 64.603 16.9643 64.8648 16.6139L65.4559 15.5751C65.4601 15.5582 65.4686 15.5413 65.477 15.5329H65.4812L66.5749 13.6074H66.5707L68.6017 10.031L70.0922 12.6616C70.2569 12.953 70.4384 13.2654 70.6327 13.6074H70.6285L72.0852 16.1747C72.1274 16.2423 72.1697 16.3183 72.2161 16.3985C72.4652 16.8968 72.8579 17.1459 73.3857 17.1459H75.3872L74.6271 15.7862Z" fill="#1A2129"/>
<path d="M25.5766 24.3608L25.3275 23.7655H23.951L23.7018 24.3608H23.1403L24.3774 21.5402H24.939L26.1593 24.3608H25.5766ZM24.141 23.301H25.1333L24.6435 22.1145L24.141 23.301Z" fill="#1A2129"/>
<path d="M33.7481 22.0853C33.6129 22.022 33.4736 21.9882 33.3343 21.9882C33.1611 21.9882 33.0007 22.0304 32.8529 22.1149C32.7093 22.1993 32.5953 22.3133 32.5109 22.4611C32.4264 22.6089 32.3842 22.7694 32.3842 22.9425C32.3842 23.1156 32.4264 23.2761 32.5109 23.4238C32.5953 23.5716 32.7093 23.6856 32.8529 23.7701C32.9965 23.8545 33.1569 23.8968 33.3343 23.8968C33.4694 23.8968 33.6045 23.8672 33.7396 23.8081C33.8747 23.749 33.9972 23.6687 34.0985 23.5632L34.4152 23.9179C34.2674 24.0699 34.0943 24.1881 33.9001 24.2726C33.7058 24.3612 33.5032 24.4035 33.3047 24.4035C33.0345 24.4035 32.7853 24.3401 32.5573 24.2092C32.3335 24.0783 32.1562 23.9052 32.0253 23.6814C31.8944 23.4576 31.8311 23.2127 31.8311 22.9467C31.8311 22.6765 31.8986 22.4316 32.0295 22.212C32.1604 21.9924 32.342 21.8193 32.5658 21.6926C32.7938 21.5659 33.0429 21.5026 33.3216 21.5026C33.5243 21.5026 33.7185 21.5448 33.9127 21.6251C34.107 21.7053 34.2716 21.8193 34.4068 21.9586L34.0943 22.3556C34.0014 22.2373 33.8832 22.1486 33.7481 22.0853Z" fill="#1A2129"/>
<path d="M42.5562 24.3608L42.3071 23.7655H40.9306L40.6815 24.3608H40.1199L41.3571 21.5402H41.9186L43.1389 24.3608H42.5562ZM41.1206 23.301H42.1129L41.6231 22.1145L41.1206 23.301Z" fill="#1A2129"/>
<path d="M51.0386 21.7176C51.2624 21.8358 51.4355 22.0047 51.5621 22.22C51.6888 22.4354 51.7522 22.6761 51.7522 22.9505C51.7522 23.2208 51.6888 23.4657 51.5621 23.6768C51.4355 23.8921 51.2581 24.0568 51.0301 24.1793C50.8063 24.3017 50.5488 24.3608 50.2616 24.3608H49.1089V21.5402H50.2827C50.5656 21.5402 50.819 21.5993 51.0386 21.7176ZM50.7599 23.7655C50.8992 23.6852 51.0048 23.5755 51.085 23.4361C51.161 23.2968 51.2032 23.1363 51.2032 22.9548C51.2032 22.7732 51.161 22.6127 51.0808 22.4692C51.0006 22.3256 50.8908 22.2158 50.7472 22.1356C50.6079 22.0554 50.4474 22.0174 50.2743 22.0174H49.6494V23.8879H50.2954C50.4685 23.8837 50.6205 23.8457 50.7599 23.7655Z" fill="#1A2129"/>
<path d="M57.8568 21.5402H59.9258V22.0131H58.3973V22.7098H59.7696V23.1828H58.3973V23.8921H59.9723V24.3651H57.8568V21.5402Z" fill="#1A2129"/>
<path d="M66.1509 21.5402H66.7674L67.7005 23.3559L68.6295 21.5402H69.246V24.3608H68.7519V22.3383L67.8737 24.0695H67.5274L66.6449 22.3383V24.3608H66.1551V21.5402H66.1509Z" fill="#1A2129"/>
<path d="M77.8382 21.5402L76.8121 23.4403V24.3651H76.2716V23.4614L75.2202 21.5444H75.7691L76.5376 22.8703L77.2934 21.5444H77.8382V21.5402Z" fill="#1A2129"/>
<path d="M39.8923 9.79242H37.5573V13.0099H39.8923V9.79242Z" fill="#1A2129"/>
<path d="M52.9331 9.99147H50.5896V14.632H52.9331V9.99147Z" fill="#1A2129"/>
<path d="M90.9615 12.3499C90.8982 12.143 90.7631 11.9741 90.5942 11.8601L90.59 11.8516L82.2379 7.11401C82.2379 7.11401 82.2379 7.11401 82.2337 7.11823C82.221 7.11401 82.2126 7.10556 82.1999 7.10134C82.1872 7.09712 82.1788 7.08867 82.1661 7.08445C82.1535 7.08023 82.145 7.076 82.1323 7.07178C82.1112 7.06334 82.0901 7.05489 82.0732 7.05067C82.0648 7.04645 82.0563 7.04645 82.0437 7.04222C82.0268 7.038 82.0057 7.03378 81.9888 7.02956C81.9803 7.02956 81.9761 7.02533 81.9719 7.02533C81.9466 7.02111 81.9212 7.01689 81.8959 7.01267C81.8874 7.01267 81.8832 7.01267 81.8748 7.01267C81.8494 7 81.8241 7 81.7945 7C81.6552 7 81.5201 7.03378 81.4019 7.08867L84.6025 12.6117L84.6067 12.6159L90.9995 12.6117C90.9995 12.5694 90.9953 12.5314 90.9911 12.4892C90.9827 12.447 90.9784 12.3963 90.9615 12.3499Z" fill="#B70F2F"/>
<path d="M81.4025 7.09272C81.1703 7.20673 80.9929 7.41785 80.9254 7.67542C80.9254 7.67964 80.9254 7.67964 80.9254 7.68387C80.9169 7.71342 80.9127 7.74298 80.9085 7.77676C80.9085 7.78098 80.9085 7.78521 80.9085 7.78943C80.9042 7.82321 80.9 7.85699 80.9 7.89499V17.3449C80.9 17.3787 80.9042 17.4167 80.9085 17.4505C80.9085 17.4505 80.9085 17.4505 80.9085 17.4547C80.9465 17.7291 81.1111 17.9656 81.3392 18.1049L84.6158 12.6242L81.4025 7.09272Z" fill="#EF5463"/>
<path d="M90.9916 12.7341C90.9916 12.7299 90.9958 12.7215 90.9958 12.7172C91 12.6835 91 12.6497 91 12.6159V12.6117L84.5861 12.6159L81.3306 18.0925C81.3686 18.1136 81.4066 18.1347 81.4446 18.1516C81.4488 18.1516 81.453 18.1558 81.4572 18.1558C81.4741 18.16 81.4868 18.1685 81.5037 18.1727C81.5164 18.1769 81.5248 18.1811 81.5375 18.1854C81.5544 18.1896 81.5712 18.1938 81.5881 18.198C81.6008 18.2022 81.6093 18.2022 81.6219 18.2065C81.643 18.2107 81.6599 18.2149 81.681 18.2149C81.6895 18.2149 81.6979 18.2191 81.7106 18.2191C81.7402 18.2234 81.7697 18.2234 81.7993 18.2234C81.8246 18.2234 81.8542 18.2234 81.8795 18.2191C81.8879 18.2191 81.8964 18.2191 81.9048 18.2149C81.9259 18.2107 81.9428 18.2107 81.9597 18.2065C81.9682 18.2065 81.9808 18.2022 81.9893 18.2022C82.0104 18.198 82.0273 18.1938 82.0484 18.1854C82.0611 18.1811 82.0779 18.1769 82.0906 18.1727C82.0991 18.1685 82.1033 18.1685 82.1117 18.1642C82.1666 18.1431 82.2173 18.1178 82.2637 18.0882L90.468 13.4351C90.7467 13.3168 90.9494 13.0508 90.9916 12.7341Z" fill="#E5203D"/>
</svg>
