<?xml version="1.0" encoding="UTF-8"?>
<svg xmlns="http://www.w3.org/2000/svg" xmlns:xlink="http://www.w3.org/1999/xlink" width="2100" height="2100" viewBox="0 0 2100 2100">

<path fill-rule="nonzero" fill="rgb(0%, 0%, 0%)" fill-opacity="1" d="M 1113.351562 1614.679688 C 1107.519531 1612.804688 1077.839844 1586.433594 1047.378906 1556.070312 C 1016.921875 1525.710938 990.917969 1500.871094 989.605469 1500.871094 C 988.289062 1500.871094 987.890625 1507.261719 988.722656 1515.074219 C 989.960938 1526.726562 995.292969 1534.421875 1018.410156 1557.914062 C 1050.289062 1590.3125 1050.25 1591.0625 1015.929688 1606.632812 C 995.664062 1615.820312 977.832031 1616.296875 957.285156 1608.191406 C 947.726562 1604.421875 932.34375 1602.464844 915.621094 1602.898438 C 872.789062 1604 845.507812 1588.183594 830.644531 1553.628906 C 822.671875 1535.09375 822 1534.527344 815.242188 1540.644531 C 811.355469 1544.164062 801.667969 1549.363281 793.71875 1552.195312 C 763.714844 1562.898438 731.933594 1556.945312 709.148438 1536.359375 C 689.585938 1518.6875 681.28125 1496.246094 683.414062 1466.808594 C 685.011719 1444.695312 684.714844 1443.765625 675.355469 1441.609375 C 634.464844 1432.191406 603.105469 1387.222656 609.582031 1347.304688 C 611.523438 1335.34375 610.957031 1334.601562 598.023438 1332.175781 C 550.085938 1323.183594 519.050781 1267.863281 535.484375 1220.714844 L 539.792969 1208.351562 L 485.515625 1154.222656 C 455.660156 1124.453125 429.769531 1096.140625 427.984375 1091.308594 C 422.660156 1076.921875 427.652344 1066.421875 464.535156 1014.449219 C 500.476562 963.808594 578.210938 853.398438 611.398438 805.839844 C 675.042969 714.648438 676.117188 713.300781 687.921875 709.589844 C 706.796875 703.660156 814.0625 696.679688 849.292969 699.089844 C 884.210938 701.46875 912.347656 708.699219 941.636719 722.839844 L 960.292969 731.839844 L 983.410156 721 C 996.121094 715.03125 1044.019531 695.980469 1089.851562 678.660156 C 1163.820312 650.699219 1176.578125 647 1203.480469 645.679688 C 1236.070312 644.078125 1246.609375 647.269531 1422.890625 712.089844 L 1471.859375 730.089844 L 1527.050781 840.570312 C 1661.320312 1109.324219 1660.460938 1107.457031 1656.238281 1122.214844 C 1653.269531 1132.632812 1639.359375 1147.246094 1593.160156 1188.496094 C 1560.570312 1217.605469 1528.609375 1245.902344 1522.128906 1251.386719 L 1510.359375 1261.351562 L 1537.570312 1290 C 1565.699219 1319.617188 1576.558594 1341.953125 1576.558594 1370.210938 C 1576.558594 1405.496094 1542.609375 1453.285156 1509.519531 1464.558594 C 1470.5 1477.855469 1476.019531 1481.402344 1367.941406 1373.613281 C 1270.339844 1276.269531 1258.238281 1266.945312 1255.460938 1286.90625 C 1254.699219 1292.375 1280.449219 1320.449219 1349.199219 1389.105469 C 1411.851562 1451.667969 1444 1486.417969 1444 1491.582031 C 1444 1506.988281 1397 1559.617188 1372.691406 1571.433594 C 1364.679688 1575.328125 1346.980469 1578.851562 1331.011719 1579.734375 L 1303.238281 1581.269531 L 1192.191406 1470.648438 C 1081.109375 1359.976562 1069.519531 1350.734375 1065.839844 1369.832031 C 1064.851562 1374.957031 1090.261719 1402.761719 1156.609375 1469.148438 L 1248.738281 1561.339844 L 1231.789062 1578.769531 C 1207.289062 1603.96875 1182.859375 1615.414062 1150.449219 1616.882812 C 1135.871094 1617.546875 1119.179688 1616.554688 1113.351562 1614.679688 Z M 927.136719 1563.039062 C 971.46875 1542.003906 956.054688 1474.425781 906.910156 1474.371094 C 866.976562 1474.328125 845.292969 1519.855469 870.808594 1550.175781 C 887.144531 1569.59375 904.820312 1573.628906 927.136719 1563.039062 Z M 791.082031 1513.414062 C 804.480469 1504.746094 864.113281 1437.960938 868.308594 1426.929688 C 881.050781 1393.40625 845.472656 1357.058594 808.894531 1366.238281 C 798.421875 1368.867188 737.269531 1429.054688 724.058594 1449.738281 C 696.894531 1492.261719 748.296875 1541.097656 791.082031 1513.414062 Z M 714.304688 1400.101562 C 732.5625 1390.796875 768.894531 1348.554688 771.757812 1333.292969 C 778.878906 1295.34375 736.675781 1264.953125 701.863281 1282.957031 C 695.953125 1286.011719 681.292969 1299.703125 669.289062 1313.375 C 650.625 1334.632812 647.207031 1340.859375 645.722656 1356.285156 C 644.226562 1371.867188 645.421875 1376.03125 654.503906 1386.824219 C 671.304688 1406.792969 692.101562 1411.410156 714.304688 1400.101562 Z M 641.234375 1288.648438 C 651.609375 1283.09375 659.957031 1265.03125 659.957031 1248.128906 C 659.957031 1213.382812 624.078125 1192.003906 592.914062 1208.175781 C 564.28125 1223.039062 558.101562 1257.449219 579.726562 1281.652344 C 595.578125 1299.394531 616.671875 1301.792969 641.234375 1288.648438 Z M 1510.890625 1215.851562 C 1581.589844 1152.113281 1623.890625 1112.8125 1623.789062 1110.960938 C 1623.320312 1102.398438 1448.179688 760.808594 1442.75 757.871094 C 1423.101562 747.230469 1231.320312 681.75 1214.949219 680.089844 C 1193.378906 677.910156 1187.421875 679.75 1065.058594 726.46875 C 1022.449219 742.738281 981.609375 759.960938 974.308594 764.738281 C 962.332031 772.570312 954.035156 788.808594 889.945312 929.78125 C 850.847656 1015.769531 818.902344 1089.21875 818.949219 1093 C 819.109375 1105.644531 826.386719 1113.820312 843.195312 1120.238281 C 867.257812 1129.429688 895.101562 1123.050781 924.082031 1101.714844 C 988.984375 1053.941406 1030.761719 971.269531 1043.28125 865.859375 L 1047.890625 827.109375 L 1072.660156 829.019531 C 1086.28125 830.078125 1101.339844 831.738281 1106.109375 832.710938 C 1116.261719 834.769531 1122.339844 848.03125 1118.101562 858.871094 C 1115.589844 865.289062 1143.171875 894.53125 1299.441406 1051.089844 C 1400.800781 1152.644531 1484.878906 1235.734375 1486.289062 1235.734375 C 1487.691406 1235.734375 1498.761719 1226.789062 1510.890625 1215.851562 Z M 1739.949219 1113.132812 C 1706.820312 1101.144531 1703.960938 1096.539062 1599.160156 886.351562 C 1501.429688 690.359375 1500.808594 688.980469 1500.808594 664.949219 C 1500.808594 636.308594 1508.96875 617.699219 1529.390625 599.769531 C 1537.019531 593.070312 1575.558594 571.691406 1615.039062 552.261719 L 1686.820312 516.929688 L 1813.921875 771.230469 C 1883.828125 911.089844 1942.539062 1026.089844 1944.390625 1026.789062 C 1946.238281 1027.480469 1947.648438 1030.890625 1947.53125 1034.359375 C 1947.371094 1038.75 1922.890625 1052.5 1867.039062 1079.578125 C 1781.429688 1121.078125 1770.140625 1124.058594 1739.949219 1113.132812 Z M 1824.058594 1034.570312 C 1842.761719 1026.050781 1847.269531 998.558594 1832.398438 983.691406 C 1808.671875 959.949219 1767.589844 981.621094 1775.621094 1013.640625 C 1780.730469 1034 1803.621094 1043.890625 1824.058594 1034.570312 Z M 302.894531 1060.089844 C 288.710938 1054.808594 262.910156 1037.851562 194.246094 988.671875 C 174.550781 974.570312 157.082031 963.03125 155.425781 963.03125 C 150.578125 963.03125 151.960938 954.761719 157.574219 950.191406 C 160.414062 947.871094 181.203125 919.558594 203.773438 887.269531 C 226.347656 854.980469 271.179688 791.070312 303.410156 745.238281 C 335.636719 699.410156 369.746094 650.828125 379.210938 637.289062 C 422.734375 575.019531 486.703125 483.800781 487.457031 482.921875 C 488.3125 481.929688 597.4375 557.699219 620.550781 575.328125 C 627.539062 580.660156 637.789062 594.28125 643.332031 605.609375 C 651.855469 623.03125 653.101562 629.589844 651.414062 648.179688 C 650.320312 660.261719 646.679688 675.460938 643.324219 681.941406 C 639.96875 688.429688 609.707031 732.589844 576.074219 780.089844 C 542.441406 827.578125 506.570312 878.371094 496.359375 892.949219 C 401.46875 1028.480469 390.792969 1042.390625 374.179688 1052.121094 C 353.527344 1064.230469 323.117188 1067.621094 302.894531 1060.089844 Z M 309.304688 976.648438 C 341.996094 962.988281 330.335938 913.78125 294.40625 913.78125 C 280.71875 913.78125 262.253906 932.710938 262.253906 946.738281 C 262.253906 959.628906 271.308594 973.679688 282.542969 978.210938 C 293.753906 982.730469 294.910156 982.660156 309.304688 976.648438 Z M 309.304688 976.648438 "/>
</svg>
