<?xml version="1.0" encoding="utf-8"?>
<!-- Generator: Adobe Illustrator 19.0.0, SVG Export Plug-In . SVG Version: 6.00 Build 0)  -->
<svg version="1.1" id="Calque_1" xmlns="http://www.w3.org/2000/svg" xmlns:xlink="http://www.w3.org/1999/xlink" x="0px" y="0px"
	 viewBox="0 0 184.7 60.5" style="enable-background:new 0 0 184.7 60.5;" xml:space="preserve">
<style type="text/css">
	.st0{fill:#FEFEFE;}
	.st1{fill:#2090FE;}
	.st2{fill:#1F90FE;}
	.st3{fill:#2191FE;}
	.st4{fill:#2291FE;}
	.st5{fill:#2392FE;}
</style>
<path class="st0" d="M36.7-142.7c0,0,0.1,0,0.1,0C36.8-142.7,36.8-142.6,36.7-142.7z"/>
<path class="st1" d="M173.9,25.8c0.3,3.7-1.1,7.2-3.3,10.4c-2.5,3.5-5.9,5.8-10.2,6.6c-5.7,1-10.8-0.5-14.9-4.7
	c-3.6-3.7-5.2-8.2-4.9-13.3c0.3-5.3,2.5-9.7,6.6-13c2.5-2.1,5.5-3.3,8.8-3.5c6.4-0.4,11.4,2.1,15,7.3
	C172.5,17.8,174.1,21.4,173.9,25.8z M150.1,12.8C150.1,12.8,150.1,12.7,150.1,12.8c0.4-0.5,0.9-0.9,1.3-1.3c0.8-0.7,0.7-0.5,0.1-1.3
	c-0.2-0.2-0.3-0.2-0.6-0.1c-0.7,0.3-1.3,0.6-1.9,1c-3.5,2.2-5.8,5.3-7.1,9.3c-0.5,1.4-0.7,2.8-0.8,4.3c0,0.1-0.1,0.2,0.1,0.3
	c0.1,0.1,0.1,0,0.2-0.1c0.9-0.7,1.9-1.3,2.8-2c0.4-0.3,0.5-0.7,0.5-1.1c0-0.3,0-0.7-0.1-1c-0.2-0.9-0.3-1.8-0.2-2.8
	c0.1-2.5,2.6-5.3,6.2-4.2c1.5,0.5,2.8,1.4,3.7,2.7c0.3,0.4,0.6,0.9,0.7,1.5c0.1,1.1-0.1,2.1-0.8,3c-0.4,0.5-0.5,1-0.4,1.6
	c0.1,0.4,0.1,0.7-0.4,0.9c-0.1,0-0.1,0.2-0.2,0.3c-0.1,0.4-0.2,0.9-0.7,1.1c-0.1,0.1-0.2,0.2-0.3,0.3c-0.3,0.4-0.6,0.5-1.1,0.5
	c-0.6,0-1.1-0.2-1.7-0.3c-0.9-0.2-1.3,0.2-1.1,1.1c0.3,1.8,0.6,3.6,0.7,5.4c0,0.6,0.3,0.9,0.8,1c0.6,0.2,1.1,0.2,1.7,0.3
	c0.7,0.1,1.4,0.1,2-0.5c0.2-0.2,0.6-0.2,0.9-0.2c0.1,0,0.2,0.1,0.2,0.1c0,0.5,0.4,0.3,0.7,0.3c0.3,0,0.5,0,0.6,0.3
	c0.4,1.5-0.9,2.9-2.5,2.6c-0.5-0.1-1-0.1-1.5,0c-0.4,0.1-0.8,0.2-1.3,0.2c-1.2,0.1-2.5,0.5-3.7-0.3c-0.1-0.1-0.2-0.1-0.3,0
	c-0.6,0.7-0.6,1.9,0.1,2.5c0.3,0.3,0.7,0.5,1,0.8c0.1,0.1,0.2,0.2,0.4,0.2c1,0,2,0.1,3-0.2c2-0.7,3.9-1.6,6-1.9
	c0.8-0.1,1.2-0.8,1-1.6c-0.2-0.9-0.4-1.8-0.5-2.8c-0.1-0.7-0.4-1.3-1-1.8c-0.3-0.2-0.5-0.5-0.8-0.7c-0.3-0.3-0.6-0.5-0.9-0.8
	c-0.3-0.4-0.3-1.2,0-1.7c0.3-0.3,0.4-0.7,0.4-1.1c0-0.2,0-0.4,0.2-0.4c0.5-0.1,0.6-0.5,0.6-0.9c0-0.3,0.1-0.5,0.4-0.5
	c0.2,0,0.3-0.2,0.3-0.4c0-0.1-0.1-0.3-0.1-0.4c-0.2-0.7-0.1-0.9,0.6-0.9c1.1-0.1,2.1-0.3,2.9-1.2c0.3-0.4,0.7-0.7,1.1-1
	c1.7-1.6,3.7-1.9,5.8-1.2c1.4,0.5,2.6,1.5,3.5,2.6c1.3,1.6,1.7,3.5,1.6,5.5c-0.2,3-1.8,5-4.3,6.4c-0.8,0.4-1.6,0.5-2.5,0.5
	c-0.6,0-0.7,0.2-0.7,0.8c0,1.2,0.6,2.2,1.5,2.9c0.6,0.5,0.7,0.5,1.2,0c2.5-2.3,4.3-5.2,5.2-8.5c1.2-4.6,0.5-9-1.8-13.2
	c-0.1-0.2-0.3-0.3-0.5-0.2c-0.7,0.5-1.5,0.9-2.3,1.4c-0.2,0.1-0.2,0.2-0.1,0.4c0.1,0.2,0.3,0.5,0.3,0.8c-0.4-0.1-0.7-0.3-0.9-0.6
	c-0.1-0.2-0.2-0.2-0.4-0.1c-0.4,0.1-0.8,0-1.2-0.2c0.4-0.1,0.6-0.3,0.9-0.4c0.3-0.1,0.3-0.2,0.2-0.5c-0.5-0.8-1-1.6-1.5-2.4
	c-0.2-0.4-0.5-0.4-0.9-0.2c-0.7,0.3-1.4,0.7-2.1,0.9c-0.3,0.1-0.4,0.3-0.3,0.6c0.2,0.7,0.4,1.5,0.7,2.2c0.1,0.2,0,0.3-0.2,0.4
	c-0.3,0.1-0.3,0-0.4-0.2c-0.2-0.7-0.4-1.3-0.6-2c-0.2-0.5-0.4-0.6-0.9-0.5c-0.9,0.2-1.9,0.3-2.8,0.4c-0.2,0-0.3,0.1-0.3,0.3
	c0,0.9,0,1.8,0,2.7c0,0.3,0.1,0.4,0.4,0.3c0.6-0.1,1.2-0.1,1.7-0.2c0.5,0,1-0.2,1.6-0.1c-0.3,0.4-0.6,0.7-1.1,0.7
	c-0.6,0.1-1.2,0.1-1.7,0.2c-0.8,0.1-0.8,0-0.9,0.9c0,0.3-0.1,0.4-0.4,0.4c-0.3,0-0.3-0.2-0.3-0.4c0-1.3,0-2.5,0-3.8
	c0-1,0-1.1-1.1-1.1c-0.5,0-0.8-0.2-0.9-0.7c0.6,0,1.1,0.1,1.7,0.1c0.2,0,0.3,0,0.3-0.3c0-0.7,0-1.5,0-2.2c0-0.3-0.1-0.4-0.4-0.4
	c-0.4-0.1-0.9-0.1-1.3-0.2c-0.3-0.1-0.5,0-0.6,0.3c-0.2,0.5-0.5,0.9-0.7,1.3c-0.1,0.1-0.1,0.4-0.4,0.2c-0.2-0.1-0.3-0.3-0.2-0.5
	c0.2-0.4,0.4-0.9,0.7-1.3c0.1-0.2,0.1-0.4-0.1-0.5c-0.3-0.2-0.6-0.4-1-0.6c-0.2-0.1-0.4-0.1-0.5,0c-0.3,0.3-0.7,0.6-1.1,0.9
	C150.9,12.9,150.6,13.1,150.1,12.8z M167.5,12.9c-0.1,0-0.2,0.1-0.3,0.2c-0.4,0.3-0.7,0.6-1.1,0.8c-0.3,0.2-0.4,0.4-0.2,0.8
	c0.6,0.9,1.1,1.7,1.6,2.6c0.1,0.2,0.2,0.2,0.3,0.1c0.8-0.4,1.6-0.9,2.3-1.4c0.2-0.1,0.2-0.2,0.1-0.4c-0.7-0.9-1.5-1.8-2.4-2.6
	C167.8,12.9,167.7,12.9,167.5,12.9z M157.6,14.5C157.6,14.5,157.6,14.5,157.6,14.5c0,0.4,0,0.7,0,1.1c0,0.2,0.1,0.3,0.3,0.3
	c0.9-0.1,1.9-0.2,2.8-0.4c0.3-0.1,0.4-0.2,0.2-0.4c-0.3-0.7-0.7-1.5-1.1-2.2c-0.1-0.2-0.3-0.2-0.5-0.2c-0.4,0.1-0.9,0.2-1.3,0.2
	c-0.3,0-0.5,0.1-0.5,0.5C157.6,13.8,157.6,14.2,157.6,14.5z M161.9,11.5c-0.1,0-0.1,0-0.1,0.1c-0.4,0.2-0.8,0.5-1.2,0.7
	c-0.1,0.1-0.2,0.2-0.1,0.3c0.4,0.8,0.8,1.6,1.2,2.4c0.1,0.2,0.2,0.2,0.4,0.2c0.8-0.3,1.5-0.6,2.2-1c0.2-0.1,0.3-0.3,0.1-0.5
	c-0.7-0.7-1.4-1.5-2.3-2.1C162,11.6,162,11.5,161.9,11.5z M166.9,12.3c-0.1-0.2-0.2-0.2-0.3-0.3c-0.8-0.6-1.6-1.1-2.5-1.5
	c-0.9-0.5-0.9-0.5-1.5,0.3c-0.2,0.2-0.1,0.3,0.1,0.4c0.8,0.7,1.6,1.4,2.3,2.2c0.1,0.2,0.3,0.2,0.5,0.1c0.4-0.3,0.9-0.6,1.3-1
	C166.8,12.4,166.9,12.4,166.9,12.3z M157.6,9.6c0,0.9,0,1.7,0,2.5c0,0.2,0,0.3,0.2,0.2c0.4-0.1,0.8-0.2,1.2-0.3
	c0.2,0,0.3-0.1,0.1-0.3C158.7,11,158.3,10.3,157.6,9.6z M156.8,9.8c-0.6,0.6-1,1.3-1.5,2c-0.1,0.2-0.1,0.3,0.1,0.3
	c0.4,0.1,0.7,0.2,1.1,0.2c0.2,0,0.3,0,0.3-0.2C156.9,11.3,156.9,10.6,156.8,9.8z M158.6,9.6c0.3,0.5,0.6,0.9,0.9,1.4
	c0.6,0.8,0.8,0.9,1.5,0.2c0,0,0,0,0,0c0.1-0.1,0.1-0.2,0-0.3C160.3,10.4,159.5,9.9,158.6,9.6z M155.9,9.6
	C155.9,9.6,155.9,9.6,155.9,9.6c-0.7,0.1-1.2,0.5-1.8,0.8c-0.3,0.2-0.8,0.3-0.7,0.6c0,0.3,0.5,0.4,0.8,0.6c0.2,0.1,0.3,0.1,0.4-0.1
	C155.1,10.9,155.5,10.3,155.9,9.6z M155.1,9c-1.1,0.2-2.1,0.4-3.2,0.8c0.2,0.2,0.3,0.3,0.4,0.5c0.2,0.3,0.4,0.3,0.7,0.1
	c0.3-0.2,0.7-0.4,1-0.6C154.4,9.5,154.8,9.3,155.1,9z M159.3,9c0.7,0.4,1.4,0.8,2.1,1.2c0.5,0.3,0.6,0.2,1-0.2
	c0.1-0.2,0.1-0.3-0.1-0.4C161.3,9.3,160.4,9.1,159.3,9z"/>
<path class="st2" d="M102.7,35.5c-2.8,0-5.6,0-8.4,0c-0.2,0-0.4,0-0.4,0.3c-0.1,2.1,0.2,4.2,1.3,6.1c1.3,2.2,3.3,3.1,5.7,2.9
	c1.1-0.1,2.2-0.3,3.2-1c1-0.7,1.5-1.8,1.9-3c0.1-0.2,0.1-0.5,0.2-0.7c0.1-0.7,0.1-0.7,0.8-0.7c1.3,0,2.6,0,3.8,0
	c0.4,0,0.4,0.1,0.4,0.4c-0.6,4.2-3.8,7.5-8,8.2c-2.1,0.3-4.2,0.4-6.3-0.1c-3.2-0.8-5.3-2.7-6.6-5.7c-1.3-2.9-1.5-6-1.3-9.1
	c0.1-2.1,0.5-4.1,1.5-6.1c2.1-4.3,5.5-6.4,10.3-6.3c2.3,0,4.4,0.5,6.3,1.9c2.5,1.7,3.8,4.2,4.2,7.2c0.3,1.8,0.3,3.6,0.3,5.4
	c0,0.4-0.2,0.3-0.4,0.3C108.3,35.4,105.5,35.4,102.7,35.5C102.7,35.4,102.7,35.5,102.7,35.5z M100.2,32.1
	C100.2,32,100.2,32,100.2,32.1c2-0.1,3.9-0.1,5.9-0.1c0.2,0,0.4,0.1,0.4-0.3c-0.1-0.6,0-1.3-0.1-1.9c-0.4-2.2-1.3-4.1-3.5-5.1
	c-2.6-1.2-6-0.5-7.7,2.2c-0.9,1.4-1.2,2.9-1.3,4.6c0,0.4,0.1,0.5,0.5,0.5C96.4,32,98.3,32.1,100.2,32.1z"/>
<path class="st2" d="M21.2,43.9c-0.2,0.1-0.3,0.3-0.4,0.5c-1.8,2.5-4.2,3.8-7.3,3.9c-1.3,0-2.5,0.1-3.8-0.4c-2.4-0.9-3.9-2.6-4.8-5
	c-0.5-1.4-0.6-2.9-0.6-4.3c0-5,0-10.1-0.1-15.1c0-0.6,0-1.2,0-1.8c0-0.3,0.1-0.3,0.3-0.3c1.4,0,2.8,0,4.1,0C9,21.3,9,21.5,9,21.7
	c0,4.2,0,8.5,0,12.7c0,1.6-0.1,3.3,0.1,4.9c0.2,2,0.8,4,2.9,4.9c2.8,1.2,6.9,0.3,8.2-3.4c0.7-1.8,0.8-3.7,0.8-5.6
	c0.1-4.5,0-9,0-13.5c0-0.4,0.1-0.5,0.5-0.5c1.3,0,2.6,0,3.9,0c0.3,0,0.4,0.1,0.4,0.4c0,8.5,0,17,0,25.5c0,0.3-0.1,0.4-0.4,0.4
	c-1.3,0-2.6,0-3.9,0c-0.3,0-0.4-0.1-0.4-0.4c0-0.9,0-1.9,0-2.8C21.3,44.3,21.3,44.1,21.2,43.9z"/>
<path class="st2" d="M35.5,25.1c0.2-0.1,0.3-0.4,0.5-0.6c1.6-2.4,3.9-3.7,6.8-3.8c1.8-0.1,3.5,0.1,5.1,0.9c3,1.4,4.5,3.7,4.7,6.9
	c0.1,1.1,0,2.3,0,3.4c0,5.1,0,10.2,0,15.2c0,0.4-0.1,0.6-0.5,0.5c-1.2,0-2.5,0-3.7,0c-0.4,0-0.5-0.1-0.5-0.5c0-5.2,0-10.5,0-15.7
	c0-1.3,0-2.6-0.5-3.8c-0.8-1.9-2.3-2.9-4.3-3.1c-2.6-0.3-4.6,0.7-6.2,2.7c-0.7,0.9-1,1.9-1.1,3c-0.3,2.2-0.3,4.5-0.3,6.7
	c0,3.4,0,6.8,0,10.3c0,0.4-0.1,0.5-0.5,0.5c-1.2,0-2.5,0-3.7,0c-0.4,0-0.5-0.1-0.5-0.5c0-8.2,0-16.5,0-24.7c0-1.1,0-1.1,1.1-1.1
	c1,0,2.1,0,3.1,0c0.3,0,0.4,0.1,0.4,0.4c0,1,0,1.9,0,2.9C35.4,24.8,35.3,25,35.5,25.1z"/>
<path class="st2" d="M84.2,29.8c-0.7,0-1.3,0-2,0c-0.3,0-0.4-0.1-0.4-0.4c-0.1-1.4-0.5-2.8-1.5-3.8c-1.5-1.5-3.4-1.7-5.4-1.1
	c-2,0.6-3.1,2.2-3.7,4.2c-0.7,2.1-0.8,4.3-0.7,6.5c0.1,1.9,0.2,3.8,0.9,5.6c0.6,1.6,1.6,3,3.2,3.6c2.8,1,6.3,0.2,7.2-4
	c0.1-0.4,0.2-0.8,0.2-1.2c0-0.3,0.1-0.3,0.3-0.3c1.4,0,2.7,0,4.1,0c0.2,0,0.3,0,0.3,0.3c-0.3,2.5-1.2,4.8-3.1,6.5
	c-1.6,1.5-3.5,2.3-5.7,2.4c-1.6,0.1-3.2,0.1-4.8-0.3c-3.3-0.9-5.4-3.1-6.7-6.3c-1.1-2.8-1.2-5.7-1-8.6c0.1-1.9,0.5-3.8,1.2-5.6
	c1.9-4.5,5.6-6.8,10.5-6.7c2.4,0,4.6,0.7,6.4,2.4c1.6,1.5,2.4,3.3,2.7,5.4c0,0.3,0.1,0.7,0.1,1c0,0.3-0.1,0.3-0.3,0.3
	C85.5,29.8,84.8,29.8,84.2,29.8C84.2,29.8,84.2,29.8,84.2,29.8z"/>
<path class="st1" d="M121.7,36.2c0,3.6,0,7.2,0,10.9c0,0.4-0.1,0.5-0.5,0.5c-1.3,0-2.5,0-3.8,0c-0.4,0-0.5-0.1-0.5-0.5
	c0-5.3,0-10.5,0-15.8c0-2,0-4,0-6c0-0.4-0.1-0.4-0.4-0.4c-1.2,0-2.3,0-3.5,0c-0.3,0-0.4-0.1-0.4-0.4c0-0.9,0-1.7,0-2.6
	c0-0.3,0.1-0.4,0.4-0.4c1.2,0,2.3,0,3.5,0c0.3,0,0.4-0.1,0.4-0.4c0-1.9,0.1-3.7,0.1-5.6c0-2.3,0.9-4.2,2.8-5.6
	c1.5-1,3.3-1.3,5.1-1.3c0.9,0,1.8,0.2,2.7,0.4c0.3,0.1,0.5,0.2,0.5,0.5c0,1.1,0,2.3,0,3.4c0,0.3-0.2,0.2-0.4,0.2
	c-1.1-0.1-2.3-0.1-3.4,0c-1.6,0.2-2.5,1.1-2.6,2.7c-0.1,1.8,0,3.5-0.1,5.3c0,0.3,0.2,0.3,0.4,0.3c1.6,0,3.3,0,4.9,0
	c0.4,0,0.5,0.1,0.5,0.5c0,0.8,0,1.7,0,2.5c0,0.3-0.1,0.4-0.4,0.4c-1.6,0-3.3,0-4.9,0c-0.4,0-0.5,0.1-0.5,0.5
	C121.7,28.9,121.7,32.6,121.7,36.2z"/>
<path class="st3" d="M57.1,34.5c0-4.2,0-8.4,0-12.6c0-0.4,0.1-0.5,0.5-0.5c1.3,0,2.6,0,3.9,0c0.3,0,0.4,0.1,0.4,0.4
	c0,8.5,0,16.9,0,25.4c0,0.4-0.1,0.4-0.5,0.4c-1.3,0-2.6,0-3.9,0c-0.4,0-0.5-0.1-0.5-0.5C57.1,42.9,57.1,38.7,57.1,34.5z"/>
<path class="st3" d="M142.7,46.6c0.3-0.2,0.7-0.3,1-0.4c2.8-0.8,5.6-0.9,8.4-0.7c1.7,0.1,3.3,0.5,4.9,1.1c0.2,0.1,0.4,0.1,0.6,0
	c3-1.2,6.1-1.3,9.2-1.1c1.6,0.1,3.1,0.5,4.6,0.8c0.2,0,0.3,0.1,0.5,0.2c0,0.2-0.2,0.2-0.3,0.2c-2.3,1-4.7,1.4-7.2,1.2
	c-1.2-0.1-2.2-0.5-3-1.3c-0.3-0.3-0.5-0.3-0.9-0.2c-0.6,0.2-1.2,0.3-1.7,0.6c-0.1,0.1-0.3,0.1-0.3,0.2c0,0.2,0.2,0.2,0.3,0.3
	c1.7,1.1,3.3,2.4,4.6,4c0.2,0.3,0.3,0.5,0,0.7c-0.4,0.4-0.6,0.4-0.9,0.1c-1-1-1.9-2.1-3.1-3.1c-0.5-0.4-1.1-0.9-1.7-1.3
	c-0.3-0.2-0.5-0.2-0.7,0c-1.6,1.1-3.1,2.4-4.4,4c-0.1,0.1-0.1,0.1-0.2,0.2c-0.5,0.5-1,0.5-1.4-0.2c-0.1-0.1,0-0.2,0.1-0.3
	c1.4-1.6,2.9-3.1,4.7-4.2c0.1-0.1,0.4-0.1,0.3-0.3c0-0.2-0.2-0.2-0.4-0.2c-0.3-0.1-0.5-0.2-0.8-0.3c-0.9-0.4-1.6-0.4-2.4,0.4
	c-0.6,0.7-1.6,0.8-2.4,0.8c-2.5,0.2-4.8-0.2-7.1-1.2C142.9,46.7,142.7,46.7,142.7,46.6z"/>
<path class="st1" d="M59.5,15.2c-0.8,0-1.6,0-2.4,0c-0.3,0-0.4-0.1-0.4-0.4c0-1.6,0-3.1,0-4.7c0-0.3,0.1-0.4,0.4-0.3
	c1.6,0,3.2,0,4.8,0c0.3,0,0.4,0.1,0.4,0.4c0,1.6,0,3.1,0,4.7c0,0.3-0.1,0.4-0.4,0.4C61.1,15.2,60.3,15.2,59.5,15.2z"/>
<path class="st3" d="M143.6,45.2c-2.3,0-4-1-5.3-2.5c-0.6-0.7-1.1-1.5-1.6-2.2c-0.1-0.1-0.3-0.3-0.2-0.5c0.1-0.2,0.4,0,0.5,0
	c0.9,0.2,1.7,0.6,2.5,1c1.7,0.9,3.4,1.8,4.8,3.1c0.2,0.2,0.4,0.5,0.7,0.7c0.2,0.2,0.1,0.2-0.1,0.3C144.5,45.2,144,45.2,143.6,45.2z"
	/>
<path class="st3" d="M169.3,45.1c0.3-0.6,0.8-1,1.3-1.4c2-1.5,4.2-2.7,6.5-3.6c0.3-0.1,0.7-0.3,0.9-0.1c0.2,0.2-0.2,0.5-0.3,0.8
	c-0.6,1-1.3,1.9-2.1,2.7C173.8,44.9,172.1,45.6,169.3,45.1z"/>
<path class="st3" d="M148.6,44.7c-2,0-3.4-1-4.2-2.7c-0.5-1.1-0.8-2.2-1-3.4c0-0.1-0.1-0.3,0.1-0.4c0.1-0.1,0.2,0.1,0.3,0.1
	c2,1.5,3.8,3.2,5.3,5.1c0.2,0.3,0.3,0.6,0.5,0.8c0.2,0.3,0,0.3-0.2,0.4C149.1,44.7,148.8,44.7,148.6,44.7z"/>
<path class="st3" d="M165.7,44.8c-0.2-0.1-0.6,0.1-0.7-0.2c-0.1-0.3,0.1-0.5,0.3-0.8c0.7-1,1.5-1.8,2.4-2.6c1-0.9,1.9-1.8,3-2.6
	c0.1-0.1,0.2-0.1,0.3-0.2c0.1-0.1,0.2-0.1,0.3-0.1c0.1,0.1,0.1,0.2,0,0.3c-0.1,0.8-0.3,1.5-0.5,2.3c-0.2,0.6-0.4,1.1-0.7,1.6
	C169,44.1,167.6,44.8,165.7,44.8z"/>
<path class="st3" d="M133.4,32.1c0.6,0.3,1,0.7,1.5,1.1c1.9,1.7,3.5,3.7,4.7,6c0.1,0.3,0.3,0.5,0.4,0.8c0.1,0.1,0.2,0.3,0.1,0.4
	c-0.1,0.1-0.3,0-0.4,0c-1.3-0.5-2.4-1.3-3.4-2.3c-1.4-1.5-2.4-3.3-2.9-5.3c0-0.1-0.1-0.3-0.1-0.4C133.3,32.2,133.3,32.2,133.4,32.1z
	"/>
<path class="st3" d="M174.5,40.4c0.2-1,0.7-1.7,1.2-2.4c1.3-2,2.9-3.8,4.7-5.4c0.2-0.2,0.6-0.6,0.8-0.5c0.3,0.2,0,0.6-0.1,0.8
	c-0.7,2.5-2,4.5-4,6.1C176.3,39.7,175.5,40.1,174.5,40.4z"/>
<path class="st4" d="M174.3,32.6c0.3,0.6,0.4,1.3,0.5,1.9c0.2,1.5,0.2,3-0.5,4.4c-0.5,1.1-1.3,1.9-2.2,2.6c-0.3,0.3-0.4,0.2-0.4-0.2
	c-0.1-1,0.2-1.9,0.4-2.9c0.4-1.6,0.9-3.2,1.5-4.7C173.7,33.4,173.9,33,174.3,32.6z"/>
<path class="st4" d="M140.4,32.6c1.6,2.8,2.5,5.8,2.6,9C140.4,41,138.8,35.5,140.4,32.6z"/>
<path class="st3" d="M136.4,33c0,0.1,0.1,0.3-0.1,0.3c-0.1,0.1-0.2-0.1-0.3-0.1c-1.8-1.3-2.7-3-3.1-5.1c-0.2-1.1-0.2-2.3-0.2-3.5
	c0-0.1-0.1-0.2,0.1-0.3c0.1-0.1,0.2,0.1,0.3,0.2c0.7,1,1.2,2.1,1.7,3.2c0.7,1.6,1.3,3.2,1.6,4.9C136.4,32.7,136.4,32.9,136.4,33z"/>
<path class="st3" d="M181.9,24.3c0.1,2.7-0.1,5.2-1.8,7.4c-0.4,0.6-1,1-1.6,1.5c-0.1,0.1-0.1,0.1-0.2,0.1c-0.1-0.1-0.1-0.2-0.1-0.3
	c0-0.7,0.2-1.4,0.4-2.1c0.6-2.2,1.6-4.2,2.8-6.2C181.5,24.6,181.6,24.4,181.9,24.3z"/>
<path class="st5" d="M175.5,27c1.3,2.1,2.2,4.3,1.7,6.8c-0.2,0.7-0.5,1.4-0.9,2.1c-0.1,0.1-0.1,0.2-0.2,0.2c-0.1,0-0.1-0.2-0.2-0.3
	c-0.4-1-0.5-2.1-0.6-3.1c-0.1-1.6-0.2-3.2,0-4.8c0-0.2,0.1-0.4,0.1-0.6C175.4,27.2,175.5,27.1,175.5,27z"/>
<path class="st4" d="M139,27.1c0.7,1.4,0.3,7.9-0.6,9C136.3,33.4,137.1,29.6,139,27.1z"/>
<path class="st3" d="M134.5,17.1c0.4,0.9,0.6,1.8,0.7,2.7c0.3,2,0.4,3.9,0.2,5.9c0,0.2,0,0.6-0.2,0.7c-0.3,0.1-0.4-0.3-0.5-0.5
	c-0.6-1-1-2-1.1-3.2c-0.2-1.8,0.1-3.5,0.6-5.2c0-0.1,0.1-0.1,0.1-0.2C134.4,17.3,134.4,17.2,134.5,17.1z"/>
<path class="st4" d="M180.2,17.1c1,3.3,1.5,6.5-0.8,9.5C178.7,25.4,179.2,18.4,180.2,17.1z"/>
<path class="st4" d="M178.1,30.2c-1.5-2.6-2.5-5.3-2.6-8.4C178.2,24.3,179.3,27.3,178.1,30.2z"/>
<path class="st3" d="M139,21.9c-0.1,2.5-0.8,4.7-1.8,6.8c-0.2,0.4-0.4,0.8-0.6,1.1c-0.1,0.1-0.1,0.2-0.3,0.2c-0.1,0-0.1-0.2-0.1-0.3
	c-0.5-1.9-0.3-3.7,0.8-5.5C137.6,23.4,138.2,22.6,139,21.9z"/>
<path class="st5" d="M178.1,23.3c-1.3-0.8-3.9-5.4-3.9-6.9C176.9,17.9,178.7,20.6,178.1,23.3z"/>
<path class="st4" d="M140.6,16.5c-0.9,2.6-2.1,5-4.1,6.9c-0.2-0.7-0.1-1.3,0-1.9c0.4-2.1,1.8-3.6,3.5-4.7
	C140.1,16.7,140.3,16.6,140.6,16.5z"/>
<path class="st5" d="M175.5,12.7c2.2,1.4,3.8,5,3.1,6.8C177,18.7,175.5,14.4,175.5,12.7z"/>
<path class="st4" d="M139.1,12.6c-0.4,2.7-1.2,5.1-3.2,7C135.3,17.5,136.7,14.5,139.1,12.6z"/>
</svg>
